<svg width="146" height="76" viewBox="0 0 146 76" fill="none" xmlns="http://www.w3.org/2000/svg">
<g clip-path="url(#clip0_5_952)">
<path d="M44.5818 4.13837C45.1329 2.38573 46.3861 0.778268 48.1193 0.185779C49.8526 -0.40671 52.3905 0.495846 53.6936 1.79174C56.0771 4.1622 56.6587 12.3056 55.0212 14.879C54.6954 14.8618 53.5715 14.849 53.2419 14.8367L52.7755 13.2857V14.8214C50.2024 14.7421 47.5235 14.7918 44.8432 14.8431C44.603 13.0211 44.0307 5.89102 44.5818 4.13837Z" fill="#2F2E41"/>
<path d="M70.0546 31.2558C69.8231 31.2249 69.6012 31.1437 69.4045 31.0179C69.2079 30.8922 69.0412 30.7249 68.9164 30.5279C68.7915 30.331 68.7114 30.1091 68.6818 29.8779C68.6522 29.6467 68.6737 29.4118 68.7448 29.1898L64.2031 25.79L66.9805 24.7965L70.8675 28.1774C71.2333 28.3214 71.5335 28.5943 71.7111 28.9444C71.8887 29.2945 71.9315 29.6975 71.8313 30.0769C71.7311 30.4564 71.4948 30.786 71.1674 31.0032C70.8399 31.2205 70.444 31.3104 70.0546 31.2558Z" fill="#9E616A"/>
<path d="M52.0128 13.4356L52.4473 11.9015C52.4473 11.9015 53.5309 11.5489 55.38 12.8872C57.229 14.2254 68.643 26.1709 68.643 26.1709L65.2448 26.645L54.8591 19.2413L52.0128 13.4356Z" fill="#E6E6E6"/>
<path d="M123.12 72.0306C130.071 68.4886 135.605 61.3867 135.452 53.5999C128.954 59.0479 120.734 62.0267 112.246 62.009C108.973 61.9903 105.334 61.6295 102.79 63.685C101.207 64.964 100.378 66.99 100.132 69.0076C99.8863 71.0252 100.162 73.0657 100.437 75.0796L100.266 75.5574C108.053 76.0906 116.169 75.5725 123.12 72.0306Z" fill="#F0F0F0"/>
<path d="M135.29 53.5809C132.262 59.1987 127.416 63.8876 121.639 66.6406C120.39 67.2359 119.071 67.7312 117.692 67.9113C116.347 68.0766 114.982 67.8793 113.738 67.3399C112.569 66.8602 111.428 66.2345 110.163 66.0468C108.828 65.849 107.553 66.2851 106.518 67.1265C105.253 68.1561 104.433 69.578 103.68 70.9964C102.844 72.5712 102.001 74.2202 100.524 75.296C100.345 75.4264 100.558 75.6958 100.737 75.5657C103.306 73.6939 103.925 70.3208 106.028 68.0566C107.01 67.0001 108.317 66.2324 109.802 66.351C111.101 66.4547 112.277 67.099 113.457 67.5948C114.696 68.1155 115.952 68.4037 117.302 68.2973C118.684 68.1884 120.025 67.7435 121.284 67.1827C124.128 65.89 126.752 64.1589 129.058 62.0529C131.703 59.664 133.919 56.8411 135.61 53.7065C135.714 53.5124 135.393 53.3881 135.29 53.5809Z" fill="white"/>
<path d="M123.564 65.8447C124.17 66.7538 125.079 67.4185 126.13 67.7201C127.182 68.0217 128.306 67.9407 129.303 67.4914C129.504 67.3998 129.371 67.0832 129.169 67.1749C128.242 67.595 127.194 67.6704 126.216 67.3875C125.238 67.1046 124.393 66.4821 123.834 65.6323C123.713 65.4477 123.443 65.6612 123.564 65.8447Z" fill="white"/>
<path d="M114.299 67.661C114.721 65.4699 115.955 63.5179 117.755 62.1944C117.934 62.0635 117.721 61.794 117.543 61.9248C115.672 63.3056 114.392 65.3395 113.957 67.6206C113.916 67.8381 114.258 67.8773 114.299 67.661H114.299Z" fill="white"/>
<path d="M131.287 59.4757C130.98 59.1726 130.752 58.7981 130.625 58.3857C130.499 57.9732 130.476 57.5358 130.561 57.1127C130.605 56.8959 130.263 56.8569 130.219 57.0723C130.128 57.5402 130.153 58.0232 130.292 58.4792C130.431 58.9352 130.68 59.3502 131.017 59.6881C131.046 59.7226 131.087 59.7448 131.132 59.7501C131.177 59.7554 131.222 59.7435 131.259 59.7167C131.294 59.6884 131.317 59.6472 131.323 59.6021C131.328 59.5569 131.315 59.5115 131.287 59.4757H131.287Z" fill="white"/>
<path d="M114.763 37.1946C114.732 37.3292 114.7 37.4638 114.666 37.5995C114.236 39.4071 113.659 41.1768 112.942 42.8911C112.888 43.0246 112.832 43.159 112.775 43.2906C111.002 47.4024 108.479 51.1501 105.335 54.343C104.083 55.6124 102.736 56.7849 101.306 57.8503C99.3299 59.3216 97.0705 60.76 95.7365 62.7384C95.595 62.9432 95.4664 63.1566 95.3513 63.3773L99.6954 75.3124C99.7189 75.3346 99.7398 75.3579 99.7634 75.3802L99.915 75.8646C99.9926 75.8148 100.072 75.7615 100.15 75.7117C100.195 75.683 100.239 75.6516 100.284 75.6229C100.314 75.6029 100.344 75.5828 100.372 75.5665C100.382 75.5599 100.392 75.5531 100.399 75.5475C100.427 75.5312 100.451 75.513 100.476 75.4977C100.921 75.2009 101.365 74.9004 101.807 74.5963C101.81 74.5953 101.81 74.5953 101.811 74.5916C105.175 72.2659 108.373 69.6396 111.071 66.6123C111.152 66.5212 111.236 66.4292 111.315 66.3326C112.523 64.9613 113.617 63.4938 114.586 61.9447C115.113 61.0947 115.597 60.2186 116.036 59.3198C117.166 56.9952 117.922 54.5078 118.277 51.9487C118.984 46.8472 118.048 41.5768 114.999 37.5035C114.921 37.3994 114.844 37.2977 114.763 37.1946Z" fill="#F0F0F0"/>
<path d="M114.621 37.2764C115.593 43.581 114.553 50.2362 111.601 55.9051C110.963 57.1307 110.209 58.3185 109.217 59.2908C108.242 60.2312 107.033 60.8939 105.715 61.2102C104.492 61.5298 103.204 61.7153 102.08 62.326C100.895 62.9697 100.14 64.0842 99.8216 65.3776C99.4321 66.96 99.6356 68.5878 99.8901 70.1727C100.173 71.9324 100.494 73.7558 99.9641 75.502C99.8999 75.7136 100.233 75.8007 100.297 75.5894C101.219 72.5512 99.6778 69.4863 99.9914 66.4146C100.138 64.9813 100.718 63.5833 101.975 62.7856C103.075 62.0881 104.403 61.8956 105.644 61.5827C106.947 61.2542 108.124 60.7296 109.138 59.8333C110.176 58.9163 110.978 57.7554 111.645 56.5515C113.136 53.8102 114.186 50.8519 114.757 47.785C115.427 44.2884 115.493 40.7031 114.952 37.1843C114.919 36.9665 114.588 37.06 114.621 37.2764V37.2764Z" fill="white"/>
<path d="M112.658 54.1129C113.69 54.475 114.817 54.4593 115.839 54.0686C116.86 53.6779 117.709 52.9376 118.234 51.9799C118.339 51.7858 118.042 51.613 117.936 51.8074C117.449 52.7001 116.658 53.3896 115.706 53.7515C114.755 54.1134 113.705 54.1238 112.746 53.781C112.537 53.7067 112.451 54.0391 112.658 54.1129Z" fill="white"/>
<path d="M106.356 61.1297C105.371 59.1266 105.179 56.8267 105.818 54.6884C105.881 54.4766 105.549 54.3895 105.485 54.601C104.825 56.8274 105.03 59.2205 106.059 61.3027C106.158 61.5011 106.454 61.327 106.356 61.1297Z" fill="white"/>
<path d="M114.982 44.3876C114.554 44.3305 114.146 44.1681 113.796 43.915C113.446 43.6618 113.164 43.3259 112.976 42.9374C112.881 42.7378 112.584 42.9121 112.679 43.1103C112.889 43.5386 113.2 43.9092 113.586 44.1898C113.973 44.4703 114.422 44.6522 114.894 44.7195C114.939 44.7296 114.985 44.7226 115.024 44.6999C115.063 44.6771 115.092 44.6404 115.105 44.5972C115.116 44.5532 115.109 44.5065 115.087 44.4673C115.064 44.428 115.026 44.3994 114.982 44.3876V44.3876Z" fill="white"/>
<path d="M39.5161 15.708C33.5616 10.6728 24.8616 8.31446 17.7202 11.4564C25.2627 15.3402 31.1855 21.7612 34.4406 29.5832C35.685 32.6043 36.7538 36.0939 39.635 37.644C41.4278 38.6085 43.6211 38.5917 45.5813 38.0402C47.5416 37.4886 49.3222 36.4483 51.0782 35.4186L51.5859 35.3917C49.0776 28.0165 45.4705 20.7432 39.5161 15.708Z" fill="#F0F0F0"/>
<path d="M17.7654 11.6135C24.1271 12.2361 30.3306 14.8908 35.1029 19.1488C36.1347 20.0694 37.101 21.0929 37.7991 22.2932C38.4706 23.4684 38.8144 24.8017 38.7949 26.1543C38.802 27.4159 38.663 28.7073 38.9774 29.9451C39.3087 31.2499 40.2036 32.2563 41.3804 32.8845C42.8202 33.6532 44.451 33.8597 46.0528 34.0064C47.8312 34.1693 49.6811 34.3103 51.2451 35.2554C51.4346 35.3699 51.6016 35.0698 51.4124 34.9555C48.6912 33.3111 45.3338 34.0416 42.4293 32.9773C41.074 32.4806 39.8605 31.5734 39.3977 30.1601C38.9929 28.9242 39.1352 27.5924 39.139 26.315C39.143 24.9736 38.9253 23.7059 38.3063 22.5034C37.6732 21.2734 36.7449 20.2101 35.7412 19.2672C33.4494 17.1461 30.8375 15.3978 28.0014 14.0863C24.7729 12.5716 21.3085 11.6192 17.7582 11.2703C17.5384 11.2487 17.5471 11.5921 17.7654 11.6135L17.7654 11.6135Z" fill="white"/>
<path d="M33.6249 17.6831C34.2321 16.7752 34.4962 15.6815 34.3699 14.5973C34.2436 13.5131 33.7353 12.509 32.9356 11.7643C32.7733 11.6141 32.5318 11.8588 32.6944 12.0091C33.4403 12.7012 33.9138 13.6366 34.0293 14.6465C34.1448 15.6563 33.8948 16.6741 33.3243 17.5162C33.2005 17.6993 33.5018 17.8652 33.6249 17.6831V17.6831Z" fill="white"/>
<path d="M38.8756 25.5142C36.6868 25.9701 34.4062 25.5861 32.4886 24.4387C32.2987 24.3248 32.1316 24.6249 32.3213 24.7386C34.3191 25.929 36.6932 26.3238 38.9699 25.8443C39.1869 25.7984 39.0914 25.4686 38.8756 25.5142V25.5142Z" fill="white"/>
<path d="M24.7588 13.0265C24.5972 13.4266 24.3385 13.7804 24.0061 14.0561C23.6736 14.3318 23.2777 14.5208 22.8539 14.6061C22.6364 14.6492 22.7321 14.9791 22.9481 14.9363C23.4159 14.8399 23.8529 14.6306 24.2209 14.3268C24.5889 14.023 24.8768 13.6338 25.0594 13.1934C25.0801 13.1533 25.0847 13.1069 25.0723 13.0635C25.0599 13.0202 25.0315 12.9831 24.9927 12.9599C24.9528 12.938 24.9059 12.9327 24.8621 12.9452C24.8183 12.9577 24.7811 12.9869 24.7588 13.0265V13.0265Z" fill="white"/>
<path d="M10.5252 36.8301C10.6617 36.807 10.7982 36.784 10.9369 36.763C12.7742 36.4626 14.6329 36.3116 16.4947 36.3116C16.6387 36.3093 16.7846 36.3092 16.9283 36.311C21.4138 36.3587 25.8515 37.237 30.0157 38.9012C31.6721 39.565 33.2756 40.3535 34.8121 41.26C36.9341 42.5121 39.135 44.0381 41.4785 44.5038C41.7225 44.5551 41.9694 44.5913 42.2178 44.6122L51.5795 36.0119C51.5909 35.9817 51.6044 35.9535 51.616 35.9232L52.0055 35.5969C51.9295 35.5446 51.8496 35.4921 51.7736 35.4398C51.7297 35.4093 51.6836 35.3807 51.6397 35.3502C51.6097 35.3304 51.5797 35.3108 51.5537 35.2913C51.5438 35.2847 51.5338 35.2782 51.5258 35.2737C51.4999 35.2542 51.4737 35.2388 51.4498 35.2214C51.0039 34.9262 50.5551 34.6336 50.1034 34.3437C50.1015 34.3415 50.1015 34.3415 50.0974 34.3413C46.6504 32.1407 42.9891 30.2079 39.1502 28.8911C39.0347 28.8516 38.9173 28.8097 38.7975 28.7741C37.0638 28.1901 35.2852 27.7485 33.4794 27.4537C32.49 27.2955 31.4933 27.1873 30.493 27.1296C27.9082 26.9856 25.3167 27.2481 22.8136 27.9077C17.8239 29.2232 13.3113 32.1166 10.7199 36.4937C10.6537 36.6057 10.5894 36.7159 10.5252 36.8301Z" fill="#F0F0F0"/>
<path d="M10.6556 36.9293C16.1107 33.6043 22.6656 31.9969 29.045 32.5295C30.4242 32.6446 31.8133 32.8812 33.0949 33.4202C34.34 33.9551 35.4189 34.8131 36.2194 35.9048C36.9864 36.9078 37.6544 38.0224 38.6523 38.8219C39.7041 39.6647 41.0258 39.9305 42.3444 39.7251C43.9578 39.4738 45.3845 38.6589 46.7519 37.8137C48.2702 36.8752 49.8323 35.8765 51.6513 35.6914C51.8717 35.669 51.824 35.329 51.6039 35.3514C48.4391 35.6734 46.1991 38.2738 43.2379 39.169C41.8561 39.5867 40.3399 39.5914 39.1176 38.741C38.0487 37.9974 37.3588 36.8486 36.5911 35.8264C35.785 34.753 34.8463 33.8715 33.6267 33.2833C32.379 32.6816 30.9963 32.3903 29.626 32.2405C26.5164 31.9239 23.3761 32.0971 20.3204 32.7539C16.8287 33.4842 13.488 34.8052 10.4427 36.6597C10.2543 36.7745 10.4684 37.0434 10.6556 36.9293L10.6556 36.9293Z" fill="white"/>
<path d="M26.9805 32.2471C26.9176 31.1574 26.4686 30.1255 25.7136 29.3357C24.9586 28.5458 23.9469 28.0495 22.8591 27.9354C22.6389 27.913 22.5938 28.2534 22.8142 28.2758C23.8274 28.3802 24.7698 28.8427 25.4713 29.5796C26.1728 30.3165 26.5873 31.2794 26.6398 32.2944C26.6515 32.515 26.9921 32.4664 26.9805 32.2471V32.2471Z" fill="white"/>
<path d="M35.8977 35.3451C34.4252 37.0242 32.3726 38.0878 30.1491 38.3238C29.9288 38.3469 29.9765 38.6869 30.1965 38.6637C32.5099 38.4139 34.6437 37.3027 36.1722 35.5521C36.3177 35.3851 36.0425 35.179 35.8977 35.3451V35.3451Z" fill="white"/>
<path d="M17.092 33.8559C17.2043 34.2725 17.2113 34.7104 17.1122 35.1303C17.013 35.5502 16.811 35.939 16.5241 36.2617C16.3764 36.4267 16.6518 36.6326 16.7985 36.4686C17.1138 36.1106 17.3365 35.681 17.447 35.2173C17.5576 34.7536 17.5526 34.2699 17.4327 33.8086C17.425 33.7642 17.4007 33.7243 17.3646 33.6971C17.3286 33.6699 17.2835 33.6575 17.2386 33.6623C17.1935 33.6687 17.1528 33.6927 17.1254 33.729C17.0979 33.7653 17.0859 33.8109 17.092 33.8559V33.8559Z" fill="white"/>
<path d="M102.777 45.8461C102.753 45.4125 102.575 45.0017 102.276 44.6865C101.976 44.3712 101.575 44.1719 101.142 44.1239L74.5304 41.1275C74.2752 41.0984 74.0168 41.1229 73.7716 41.1995L67.6669 43.1068L64.1642 44.2023L57.7001 46.2215C57.3099 46.3438 56.9714 46.592 56.7378 46.927C56.5041 47.2619 56.3884 47.6648 56.4089 48.0725L57.5001 73.9547C57.5233 74.3753 57.6896 74.7755 57.9715 75.0891C58.2534 75.4027 58.634 75.611 59.0505 75.6796L86.2224 75.7387C86.35 75.7594 86.4795 75.7663 86.6085 75.7592C86.7967 75.7501 86.9823 75.7122 87.1589 75.647L103.082 75.5372C103.453 75.4008 103.77 75.1488 103.986 74.8184C104.202 74.488 104.305 74.0968 104.281 73.7031L102.777 45.8461Z" fill="white"/>
<path d="M59.307 74.088L86.4787 74.1466C86.5184 74.1533 86.5592 74.1495 86.597 74.1357L102.518 74.0267C102.564 74.0099 102.604 73.9784 102.631 73.9369C102.658 73.8955 102.671 73.8463 102.668 73.7969L101.166 45.9393C101.162 45.8854 101.14 45.8344 101.103 45.7951C101.066 45.7558 101.016 45.7307 100.962 45.724L100.783 45.7029L74.349 42.7297C74.3369 42.7281 74.3247 42.7277 74.3125 42.7287C74.2926 42.7292 74.2729 42.7323 74.2538 42.738L59.3641 47.391L58.1823 47.7593C58.134 47.7751 58.0921 47.8061 58.0631 47.8478C58.0341 47.8896 58.0196 47.9396 58.0217 47.9903L59.1133 73.8715C59.1159 73.9243 59.1366 73.9745 59.1718 74.0139C59.2071 74.0533 59.2548 74.0794 59.307 74.088Z" fill="#D98C5F"/>
<path d="M59.3641 47.391L74.2538 42.738C74.2729 42.7323 74.2926 42.7292 74.3125 42.7287C74.3247 42.7277 74.3369 42.7281 74.349 42.7297L100.783 45.7029L94.4167 47.7702L92.0339 48.5427L85.2541 50.7427C85.234 50.748 85.2137 50.7521 85.1931 50.7549C85.18 50.7538 85.1669 50.7527 85.1512 50.7519L59.3641 47.391Z" fill="#2F2E41"/>
<path d="M59.0504 75.6809L86.2221 75.7395C86.3499 75.7599 86.4796 75.766 86.6088 75.7576C86.7971 75.7491 86.983 75.7122 87.1602 75.648L103.081 75.539C103.452 75.4023 103.769 75.1499 103.985 74.8193C104.201 74.4887 104.305 74.0975 104.281 73.7034L102.777 45.8461C102.758 45.5199 102.653 45.2044 102.472 44.9318C102.447 44.8958 102.422 44.8597 102.395 44.8265C102.208 44.5823 101.961 44.39 101.679 44.2677C101.508 44.1931 101.327 44.1447 101.143 44.1241L101.111 44.1199L74.5317 41.1269C74.4235 41.1161 74.3145 41.113 74.2058 41.1175C74.058 41.1276 73.912 41.1556 73.771 41.2008L67.6668 43.1059L64.1648 44.2032L57.6995 46.2221C57.4349 46.3045 57.1926 46.4456 56.9906 46.635C56.9745 46.6474 56.9596 46.6613 56.946 46.6764C56.9361 46.6863 56.9269 46.6969 56.9184 46.7081C56.7454 46.8888 56.611 47.1028 56.5234 47.337C56.4359 47.5713 56.3971 47.8208 56.4093 48.0705L57.4986 73.9546C57.522 74.3756 57.6885 74.776 57.9706 75.0899C58.2527 75.4037 58.6336 75.6122 59.0504 75.6809ZM56.8694 48.0491C56.8569 47.7903 56.9185 47.5332 57.047 47.308C57.0851 47.2362 57.1304 47.1685 57.1823 47.1058C57.3234 46.9323 57.505 46.7958 57.7111 46.7084C57.7516 46.6906 57.7933 46.6755 57.8358 46.663L68.7217 43.263L73.9096 41.6388C73.9446 41.627 73.9776 41.6207 74.0104 41.6117C74.0902 41.5931 74.1716 41.5821 74.2535 41.5788C74.3282 41.5728 74.4033 41.5747 74.4776 41.5843L101.088 44.5815C101.11 44.5843 101.128 44.5873 101.149 44.5901C101.393 44.6262 101.622 44.7283 101.812 44.8853C101.961 45.0048 102.083 45.1542 102.17 45.3239C102.257 45.4936 102.307 45.6797 102.317 45.8701L103.819 73.7302C103.837 74.0253 103.76 74.3182 103.598 74.5659C103.437 74.8136 103.2 75.003 102.922 75.1059L86.9988 75.2152C86.7737 75.2976 86.5312 75.3208 86.2945 75.2827L59.1231 75.2266C58.8111 75.1744 58.5262 75.0179 58.3151 74.7828C58.104 74.5478 57.9793 74.2481 57.9613 73.933L56.8694 48.0491Z" fill="#3F3D56"/>
<path d="M86.6911 75.8088C86.6304 75.8118 86.5709 75.7908 86.5256 75.7503C86.4803 75.7098 86.4528 75.6531 86.4492 75.5925L84.9517 50.5373C84.948 50.4763 84.9688 50.4164 85.0094 50.3708C85.0501 50.3251 85.1072 50.2974 85.1683 50.2937L85.1704 50.2936C85.2311 50.2906 85.2907 50.3116 85.336 50.3521C85.3813 50.3926 85.4087 50.4493 85.4124 50.5099L86.9099 75.5651C86.9135 75.6261 86.8927 75.686 86.8521 75.7316C86.8115 75.7773 86.7543 75.805 86.6933 75.8087L86.6911 75.8088Z" fill="#3F3D56"/>
<path d="M96.0851 74.114L93.4781 74.0964L91.0043 48.3923C91.0043 48.3923 94.1358 47.1142 94.2731 47.3317C94.3567 47.4612 96.0755 73.9547 96.0851 74.114Z" fill="#3F3D56"/>
<path d="M101.947 45.1046L101.759 44.9509C101.565 44.7919 101.329 44.6927 101.08 44.6655L74.4694 41.6685C74.3226 41.6524 74.1741 41.6606 74.03 41.6928L73.9303 41.7174L73.9102 41.3201L78.3233 36.4484C78.5861 36.1596 78.9122 35.9353 79.2761 35.7928C79.64 35.6504 80.032 35.5937 80.4215 35.6271L98.411 37.2154C98.9485 37.2611 99.457 37.4778 99.8616 37.8337C100.266 38.1896 100.546 38.6657 100.659 39.192L101.947 45.1046Z" fill="#3F3D56"/>
<path d="M61.7263 64.7079C61.7547 64.7033 61.7835 64.7019 61.8122 64.7036L70.0023 65.1989C70.1049 65.2051 70.2007 65.2517 70.2689 65.3284C70.337 65.4051 70.3718 65.5057 70.3656 65.608C70.3594 65.7103 70.3127 65.806 70.2359 65.874C70.159 65.942 70.0582 65.9767 69.9556 65.9705L61.7655 65.4752C61.6704 65.4694 61.5808 65.4289 61.5138 65.3613C61.4467 65.2938 61.407 65.204 61.4021 65.109C61.3973 65.0141 61.4277 64.9207 61.4874 64.8467C61.5472 64.7727 61.6323 64.7233 61.7263 64.7079Z" fill="white"/>
<path d="M61.8635 67.579C61.8919 67.5744 61.9207 67.573 61.9494 67.5747L70.1396 68.07C70.2421 68.0762 70.338 68.1228 70.4061 68.1995C70.4742 68.2762 70.509 68.3768 70.5029 68.4791C70.4967 68.5814 70.45 68.6771 70.3731 68.7451C70.2962 68.8131 70.1954 68.8478 70.0929 68.8416L61.9028 68.3463C61.8077 68.3405 61.718 68.3 61.651 68.2324C61.584 68.1649 61.5442 68.0751 61.5394 67.9801C61.5345 67.8852 61.5649 67.7918 61.6247 67.7178C61.6845 67.6438 61.7695 67.5944 61.8635 67.579Z" fill="white"/>
<path d="M101.037 33.2962L85.2388 41.8797L78.7481 29.9834L94.5464 21.3999L101.037 33.2962Z" fill="white"/>
<path d="M101.037 33.2962L85.2388 41.8797L78.7481 29.9834L94.5464 21.3999L101.037 33.2962ZM85.3712 41.4319L100.588 33.1641L94.414 21.8477L79.1969 30.1155L85.3712 41.4319Z" fill="#E6E6E6"/>
<path d="M94.2304 25.7721L82.5996 32.0913L83.0218 32.8651L94.6525 26.5459L94.2304 25.7721Z" fill="#D98C5F"/>
<path d="M95.4968 28.0933L83.866 34.4125L84.2882 35.1862L95.919 28.867L95.4968 28.0933Z" fill="#D98C5F"/>
<path d="M96.7633 30.4146L85.1326 36.7338L85.5547 37.5075L97.1855 31.1883L96.7633 30.4146Z" fill="#D98C5F"/>
<path d="M65.0363 22.8128C64.8731 22.6303 64.8175 22.6117 64.7595 22.6516L55.7692 28.8415C55.7119 28.8809 55.7085 28.9392 55.8198 29.1537C56.1136 29.6076 56.4728 30.1436 56.8659 30.7121L68.4331 47.442C69.5173 49.0102 70.4593 50.2448 70.5327 50.1943L79.523 44.0044C79.5964 43.9539 78.7742 42.6368 77.6899 41.0687L66.1227 24.3387C65.7305 23.7715 65.3568 23.2474 65.0363 22.8128Z" fill="white"/>
<path d="M66.234 24.3787C66.0296 24.0927 65.8349 23.8276 65.6609 23.5966C65.4515 23.3197 65.2798 23.1004 65.1495 22.9435C65.1066 22.8925 65.0697 22.8487 65.0364 22.8128C64.8731 22.6303 64.8175 22.6117 64.7595 22.6516L55.7692 28.8415C55.7119 28.8809 55.7085 28.9392 55.8198 29.1537C55.8426 29.1977 55.8708 29.2495 55.9043 29.3089C56.0045 29.4855 56.1491 29.7235 56.3345 30.0178C56.6448 30.5078 57.0529 31.12 57.4833 31.7425L68.4678 47.6296C68.9666 48.3511 69.4502 49.0204 69.8294 49.5151C70.4606 50.3388 70.507 50.3069 70.5771 50.2585L79.5675 44.0687C79.6376 44.0204 79.684 43.9884 79.1364 43.1071C78.8075 42.5778 78.3522 41.8891 77.8534 41.1676L66.8689 25.2805C66.6535 24.9689 66.4386 24.6636 66.234 24.3787ZM57.6121 31.6539C57.183 31.0333 56.7758 30.4223 56.4673 29.9349C56.2825 29.643 56.1395 29.4058 56.041 29.2318C55.9853 29.1398 55.9366 29.0436 55.8954 28.9443L64.811 22.8058C64.8895 22.8795 64.9623 22.9591 65.0288 23.0437C65.0934 23.1206 65.1682 23.2133 65.2532 23.3216C65.3378 23.4302 65.4321 23.5534 65.5362 23.691C65.8833 24.1518 66.3107 24.7479 66.7402 25.3692L77.7246 41.2563C78.7671 42.764 79.3677 43.7577 79.442 43.9654L70.525 50.1048C70.3568 49.9618 69.639 49.0487 68.5965 47.541L57.6121 31.6539Z" fill="#E4E4E4"/>
<path d="M63.1142 27.9586L61.412 29.1305C61.3267 29.1893 61.2682 29.2795 61.2495 29.3813C61.2308 29.4831 61.2534 29.5881 61.3122 29.6733L62.3294 31.1445C62.3884 31.2295 62.4788 31.2878 62.5808 31.3064C62.6827 31.3251 62.788 31.3027 62.8734 31.2441L64.5755 30.0721C64.6606 30.0132 64.7189 29.923 64.7376 29.8213C64.7563 29.7195 64.7339 29.6146 64.6753 29.5293L63.6582 28.0581C63.5991 27.9731 63.5088 27.9149 63.4068 27.8962C63.3048 27.8775 63.1996 27.8999 63.1142 27.9586Z" fill="#D98C5F"/>
<path d="M67.3548 29.5772L61.4224 33.6617C61.4032 33.6749 61.3868 33.6918 61.3742 33.7113C61.3615 33.7309 61.3528 33.7527 61.3486 33.7756C61.3444 33.7985 61.3447 33.8219 61.3496 33.8447C61.3545 33.8674 61.3639 33.889 61.3771 33.9082C61.3903 33.9273 61.4072 33.9437 61.4268 33.9563C61.4464 33.9689 61.4683 33.9776 61.4912 33.9818C61.5141 33.986 61.5377 33.9857 61.5605 33.9808C61.5833 33.9759 61.6049 33.9666 61.6241 33.9534L67.5565 29.8689C67.5756 29.8557 67.592 29.8388 67.6047 29.8193C67.6174 29.7998 67.6261 29.7779 67.6303 29.755C67.6345 29.7322 67.6341 29.7087 67.6292 29.6859C67.6243 29.6632 67.615 29.6416 67.6018 29.6225C67.5885 29.6033 67.5716 29.5869 67.5521 29.5743C67.5325 29.5617 67.5106 29.553 67.4877 29.5488C67.4647 29.5446 67.4412 29.545 67.4184 29.5498C67.3956 29.5547 67.374 29.564 67.3548 29.5772Z" fill="#E4E4E4"/>
<path d="M64.1482 32.7938L61.895 34.3451C61.8758 34.3584 61.8594 34.3752 61.8468 34.3947C61.8341 34.4143 61.8254 34.4361 61.8212 34.459C61.817 34.4819 61.8173 34.5054 61.8222 34.5281C61.8271 34.5509 61.8365 34.5724 61.8497 34.5916C61.8629 34.6107 61.8798 34.6271 61.8994 34.6397C61.919 34.6524 61.9409 34.661 61.9638 34.6652C61.9867 34.6694 62.0103 34.6691 62.0331 34.6642C62.0559 34.6593 62.0775 34.65 62.0967 34.6368L64.3499 33.0855C64.3886 33.0588 64.4152 33.0178 64.4237 32.9716C64.4322 32.9254 64.4219 32.8777 64.3952 32.839C64.3684 32.8003 64.3274 32.7738 64.2811 32.7654C64.2348 32.7569 64.187 32.7671 64.1482 32.7938V32.7938Z" fill="#E4E4E4"/>
<path d="M67.5115 34.3185L65.8094 35.4905C65.724 35.5493 65.6656 35.6395 65.6469 35.7413C65.6281 35.8431 65.6507 35.9481 65.7096 36.0333L66.7267 37.5045C66.7857 37.5895 66.8761 37.6477 66.9781 37.6664C67.0801 37.6851 67.1853 37.6626 67.2707 37.604L68.9729 36.4321C69.058 36.3731 69.1163 36.2829 69.135 36.1812C69.1537 36.0795 69.1313 35.9746 69.0727 35.8893L68.0555 34.4181C67.9965 34.3331 67.9061 34.2748 67.8041 34.2562C67.7022 34.2375 67.5969 34.2599 67.5115 34.3185Z" fill="#D98C5F"/>
<path d="M71.7521 35.9371L65.8197 40.0216C65.781 40.0483 65.7544 40.0892 65.7459 40.1354C65.7374 40.1817 65.7477 40.2294 65.7744 40.268C65.8012 40.3067 65.8422 40.3332 65.8885 40.3417C65.9348 40.3502 65.9826 40.3399 66.0214 40.3132L71.9538 36.2288C71.973 36.2156 71.9894 36.1987 72.002 36.1792C72.0147 36.1596 72.0234 36.1378 72.0276 36.1149C72.0318 36.092 72.0315 36.0685 72.0266 36.0458C72.0217 36.023 72.0123 36.0015 71.9991 35.9823C71.9859 35.9632 71.969 35.9468 71.9494 35.9342C71.9298 35.9215 71.9079 35.9129 71.885 35.9087C71.8621 35.9045 71.8385 35.9048 71.8157 35.9097C71.7929 35.9146 71.7713 35.9239 71.7521 35.9371Z" fill="#E4E4E4"/>
<path d="M68.5456 39.1538L66.2923 40.7051C66.2536 40.7318 66.227 40.7728 66.2185 40.819C66.21 40.8652 66.2203 40.9129 66.247 40.9516C66.2738 40.9903 66.3148 41.0167 66.3611 41.0252C66.4075 41.0337 66.4552 41.0235 66.494 40.9968L68.7472 39.4454C68.7664 39.4322 68.7828 39.4154 68.7955 39.3958C68.8081 39.3763 68.8168 39.3545 68.821 39.3316C68.8252 39.3087 68.8249 39.2852 68.82 39.2625C68.8151 39.2397 68.8058 39.2181 68.7925 39.199C68.7793 39.1798 68.7624 39.1635 68.7428 39.1508C68.7232 39.1382 68.7014 39.1295 68.6784 39.1253C68.6555 39.1211 68.632 39.1215 68.6092 39.1264C68.5864 39.1313 68.5648 39.1406 68.5456 39.1538Z" fill="#E4E4E4"/>
<path d="M71.9088 40.6785L70.2067 41.8505C70.1214 41.9093 70.0629 41.9995 70.0442 42.1013C70.0255 42.2031 70.048 42.3081 70.1069 42.3933L71.1241 43.8644C71.1831 43.9495 71.2735 44.0077 71.3754 44.0264C71.4774 44.0451 71.5826 44.0226 71.6681 43.964L73.3702 42.7921C73.4553 42.7331 73.5136 42.6429 73.5323 42.5412C73.551 42.4395 73.5286 42.3346 73.47 42.2493L72.4528 40.7781C72.3938 40.6931 72.3034 40.6348 72.2015 40.6162C72.0995 40.5975 71.9943 40.6199 71.9088 40.6785Z" fill="#D98C5F"/>
<path d="M76.1495 42.2971L70.2171 46.3816C70.1979 46.3948 70.1815 46.4116 70.1688 46.4312C70.1562 46.4507 70.1475 46.4725 70.1433 46.4954C70.1391 46.5183 70.1394 46.5418 70.1443 46.5645C70.1492 46.5873 70.1585 46.6089 70.1718 46.628C70.185 46.6472 70.2019 46.6635 70.2215 46.6762C70.2411 46.6888 70.2629 46.6975 70.2859 46.7017C70.3088 46.7059 70.3323 46.7055 70.3551 46.7006C70.3779 46.6958 70.3995 46.6864 70.4187 46.6732L76.3511 42.5888C76.3899 42.5621 76.4164 42.5211 76.4249 42.4749C76.4334 42.4287 76.4232 42.381 76.3964 42.3423C76.3697 42.3036 76.3286 42.2771 76.2823 42.2687C76.236 42.2602 76.1882 42.2704 76.1495 42.2971V42.2971Z" fill="#E4E4E4"/>
<path d="M72.9429 45.5138L70.6897 47.0651C70.6705 47.0783 70.6541 47.0952 70.6414 47.1147C70.6288 47.1343 70.6201 47.1561 70.6159 47.179C70.6117 47.2019 70.612 47.2253 70.6169 47.2481C70.6218 47.2708 70.6311 47.2924 70.6444 47.3116C70.6576 47.3307 70.6745 47.3471 70.6941 47.3597C70.7137 47.3723 70.7355 47.381 70.7585 47.3852C70.7814 47.3894 70.8049 47.3891 70.8277 47.3842C70.8505 47.3793 70.8722 47.37 70.8913 47.3568L73.1446 45.8054C73.1833 45.7787 73.2099 45.7378 73.2184 45.6916C73.2269 45.6454 73.2166 45.5977 73.1899 45.559C73.1631 45.5203 73.1221 45.4938 73.0758 45.4853C73.0295 45.4769 72.9817 45.4871 72.9429 45.5138Z" fill="#E4E4E4"/>
<path d="M91.8139 30.2811C91.7783 29.4103 91.7241 28.849 91.6614 28.849H68.7196C68.6569 28.849 68.6026 29.4103 68.5671 30.2811C68.5433 30.8881 68.5281 31.6456 68.5281 32.4657V48.4168L68.6213 48.4286L72.393 48.9189L76.3239 49.4329L78.1199 49.6663L81.9611 50.1668L85.1516 50.5827C85.1668 50.5844 85.1804 50.5844 85.194 50.5861C85.2143 50.5827 85.2346 50.5793 85.2533 50.5742L86.5088 50.1668L87.9575 49.6967L91.7597 48.4624L91.8528 48.432V32.4657C91.8528 31.6456 91.8376 30.8881 91.8139 30.2811Z" fill="white"/>
<path d="M91.8901 29.904C91.8782 29.6775 91.8664 29.4949 91.8528 29.3495C91.8433 29.1975 91.8218 29.0466 91.7884 28.898C91.7511 28.756 91.7088 28.756 91.6613 28.756H68.7195C68.6721 28.756 68.6297 28.756 68.5925 28.898C68.5597 29.0541 68.5381 29.2123 68.5281 29.3714C68.5162 29.5135 68.5044 29.6893 68.4925 29.904C68.4552 30.5888 68.4349 31.4985 68.4349 32.4656V48.4032L68.5281 48.4167L68.6213 48.4286V32.4656C68.6213 31.6236 68.6365 30.9101 68.6586 30.347C68.6627 29.876 68.7006 29.4059 68.7721 28.9403H91.6105C91.682 29.4053 91.72 29.8749 91.724 30.3453C91.7444 30.9084 91.7596 31.6219 91.7596 32.4656V48.4624L91.946 48.4015V32.4656C91.946 31.4985 91.9257 30.5888 91.8901 29.904Z" fill="#E4E4E4"/>
<path d="M75.7698 33.7118H72.8437C72.771 33.7116 72.699 33.7258 72.6318 33.7534C72.5646 33.781 72.5036 33.8216 72.4521 33.8728C72.4007 33.924 72.3598 33.9848 72.3319 34.0517C72.304 34.1187 72.2897 34.1905 72.2896 34.263V36.7925C72.2895 36.8651 72.3037 36.937 72.3315 37.0042C72.3593 37.0713 72.4001 37.1323 72.4516 37.1837C72.5031 37.235 72.5642 37.2757 72.6315 37.3035C72.6988 37.3312 72.7709 37.3455 72.8437 37.3454H75.7698C75.9168 37.3453 76.0577 37.287 76.1616 37.1833C76.2655 37.0797 76.3239 36.9391 76.3239 36.7925V34.263C76.3235 34.1166 76.2649 33.9764 76.1611 33.8731C76.0572 33.7698 75.9165 33.7118 75.7698 33.7118Z" fill="#D98C5F"/>
<path d="M87.8405 34.6908H77.6404C77.5739 34.6908 77.5101 34.7172 77.4631 34.7641C77.4161 34.811 77.3897 34.8747 77.3897 34.941C77.3897 35.0074 77.4161 35.0711 77.4631 35.118C77.5101 35.1649 77.5739 35.1913 77.6404 35.1913H87.8405C87.9071 35.1913 87.9708 35.1649 88.0179 35.118C88.0649 35.0711 88.0913 35.0074 88.0913 34.941C88.0913 34.8747 88.0649 34.811 88.0179 34.7641C87.9708 34.7172 87.9071 34.6908 87.8405 34.6908Z" fill="#E4E4E4"/>
<path d="M81.5138 35.8658H77.6404C77.5739 35.8658 77.5101 35.8922 77.4631 35.9391C77.4161 35.9861 77.3897 36.0497 77.3897 36.1161C77.3897 36.1825 77.4161 36.2461 77.4631 36.293C77.5101 36.34 77.5739 36.3663 77.6404 36.3663H81.5138C81.5803 36.3663 81.644 36.34 81.6911 36.293C81.7381 36.2461 81.7645 36.1825 81.7645 36.1161C81.7645 36.0497 81.7381 35.9861 81.6911 35.9391C81.644 35.8922 81.5803 35.8658 81.5138 35.8658Z" fill="#E4E4E4"/>
<path d="M75.7698 41.1987H72.8437C72.6967 41.1988 72.5558 41.2571 72.4519 41.3607C72.348 41.4644 72.2897 41.605 72.2896 41.7516V44.2811C72.2897 44.4277 72.348 44.5683 72.4519 44.672C72.5558 44.7757 72.6967 44.8339 72.8437 44.834H75.7698C75.9167 44.8336 76.0574 44.7753 76.1613 44.6717C76.2651 44.5681 76.3236 44.4276 76.3239 44.2811V41.7516C76.3236 41.6051 76.2651 41.4647 76.1612 41.3611C76.0574 41.2574 75.9167 41.1991 75.7698 41.1987Z" fill="#D98C5F"/>
<path d="M87.8406 42.1777H77.6404C77.5737 42.1777 77.5097 42.2042 77.4625 42.2513C77.4153 42.2984 77.3888 42.3622 77.3888 42.4288C77.3888 42.4954 77.4153 42.5593 77.4625 42.6064C77.5097 42.6534 77.5737 42.6799 77.6404 42.6799H87.8406C87.9073 42.6799 87.9713 42.6534 88.0185 42.6064C88.0657 42.5593 88.0922 42.4954 88.0922 42.4288C88.0922 42.3622 88.0657 42.2984 88.0185 42.2513C87.9713 42.2042 87.9073 42.1777 87.8406 42.1777Z" fill="#E4E4E4"/>
<path d="M81.5138 43.3528H77.6404C77.5737 43.3528 77.5097 43.3792 77.4625 43.4263C77.4153 43.4734 77.3888 43.5373 77.3888 43.6039C77.3888 43.6705 77.4153 43.7343 77.4625 43.7814C77.5097 43.8285 77.5737 43.855 77.6404 43.855H81.5138C81.5805 43.855 81.6445 43.8285 81.6917 43.7814C81.7389 43.7343 81.7654 43.6705 81.7654 43.6039C81.7654 43.5373 81.7389 43.4734 81.6917 43.4263C81.6445 43.3792 81.5805 43.3528 81.5138 43.3528Z" fill="#E4E4E4"/>
<path d="M76.2443 48.9561C76.1954 48.874 76.1259 48.8061 76.0427 48.759C75.9596 48.7118 75.8655 48.6871 75.7698 48.6873H72.8437C72.7554 48.6871 72.6685 48.708 72.59 48.7483C72.5116 48.7886 72.444 48.8471 72.393 48.9189L76.3239 49.4329V49.2385C76.3241 49.1388 76.2965 49.041 76.2443 48.9561Z" fill="#D98C5F"/>
<path d="M87.8406 49.6663H78.1199L81.9611 50.1668H86.5088L87.9575 49.6967C87.922 49.6762 87.8816 49.6657 87.8406 49.6663Z" fill="#E4E4E4"/>
<path d="M102.133 45.2566C102.114 45.2686 102.094 45.2782 102.073 45.2854L101.231 45.5576L94.4164 47.7709L92.0341 48.5419L91.946 48.5707L91.7597 48.6315L87.9575 49.8658L86.5088 50.3359L85.2533 50.7433C85.2346 50.7484 85.2143 50.7518 85.194 50.7552C85.1804 50.7535 85.1668 50.7535 85.1516 50.7518L81.9611 50.3359L78.1199 49.8354L76.3239 49.602L72.393 49.088L68.6213 48.5977L68.5281 48.5859L68.4349 48.5724L57.1826 47.1064L57.0877 47.0929C57.0658 47.0909 57.0445 47.0845 57.025 47.0743C56.9797 47.054 56.942 47.0197 56.9177 46.9765C56.8933 46.9333 56.8834 46.8834 56.8894 46.8342C56.8939 46.7929 56.9097 46.7537 56.9352 46.7209C56.9453 46.7108 56.9538 46.7006 56.964 46.6922C56.9725 46.6871 56.9826 46.6769 56.9928 46.6719C57.0383 46.6406 57.0939 46.6273 57.1487 46.6347L57.7112 46.7091L68.4349 48.1074L68.5281 48.1192L68.6213 48.131L74.1771 48.8564L76.2443 49.1252L81.6849 49.8354L85.1601 50.2885L86.5579 49.8354L91.004 48.3931L91.7597 48.1479L91.8529 48.1175L91.946 48.0871L94.2724 47.333L101.192 45.0859L101.812 44.8847L101.933 44.8458C101.984 44.8295 102.04 44.8319 102.091 44.8526C102.141 44.8733 102.182 44.911 102.207 44.9591C102.213 44.9705 102.218 44.9823 102.222 44.9946C102.238 45.0421 102.237 45.0932 102.221 45.1404C102.205 45.1876 102.174 45.2284 102.133 45.2566Z" fill="#3F3D56"/>
<path d="M78.7347 61.1572C78.5859 61.1572 78.4374 61.1457 78.2903 61.1228L61.278 58.4715C60.6939 58.3787 60.1518 58.1109 59.7235 57.7037C59.2953 57.2964 59.0011 56.769 58.8799 56.1913L56.9813 46.995L57.0982 47.0092L85.5378 50.4399L81.3796 59.4685C81.1457 59.9721 80.7725 60.3986 80.304 60.6978C79.8354 60.997 79.291 61.1563 78.7347 61.1572Z" fill="#3F3D56"/>
<path d="M49.2039 71.8116L51.2756 71.3805L50.5957 63.2012L47.538 63.8374L49.2039 71.8116Z" fill="#9E616A"/>
<path d="M48.2887 70.9375L48.908 75.9589L48.9092 75.9691L48.9577 75.9589L50.3797 75.6626L50.353 74.2232L51.3138 75.4694L52.2338 75.2786V75.2774L54.0916 74.8908L54.242 74.8603L54.8154 74.7408L55.213 74.6581C55.3618 74.6268 55.5002 74.5582 55.6152 74.4589C55.7302 74.3595 55.8179 74.2325 55.8702 74.0899C55.9224 73.9474 55.9375 73.7939 55.9139 73.6439C55.8903 73.4939 55.8289 73.3524 55.7354 73.2327C55.6637 73.142 55.5755 73.0657 55.4755 73.0076C55.4627 73.0013 55.45 72.9936 55.4372 72.9873H55.436C55.4168 72.9771 55.3977 72.9682 55.3773 72.9593L55.3429 72.944L54.7351 72.6885L54.7326 72.6872L53.1283 72.0133L51.8158 71.4614L51.524 70.0614L51.1736 70.1568L48.9819 70.7493L48.2887 70.9375Z" fill="#2F2E41"/>
<path d="M34.9658 65.1338L36.5748 66.5059L42.6433 60.9661L40.2688 58.9412L34.9658 65.1338Z" fill="#9E616A"/>
<path d="M32.6306 68.4181L33.7558 67.516L33.3567 69.0362L36.3844 71.6182C36.4727 71.6943 36.5754 71.752 36.6864 71.788C36.7701 71.815 36.8573 71.8298 36.9452 71.8317C37.0841 71.8351 37.2219 71.8062 37.3476 71.7473C37.4734 71.6883 37.5836 71.601 37.6697 71.4922C37.7558 71.3834 37.8153 71.256 37.8435 71.1203C37.8717 70.9846 37.8679 70.8441 37.8324 70.7101L36.8411 66.9816L37.7727 65.8946L37.4827 65.6766L35.6718 64.3089L35.099 63.8767L31.4895 67.4436L32.6306 68.4181Z" fill="#2F2E41"/>
<path d="M43.104 32.474L53.078 32.0912L53.4533 21.9927L45.0254 22.2627L43.104 32.474Z" fill="#9E616A"/>
<path d="M50.5614 9.94704C52.6592 9.94704 54.3598 8.25004 54.3598 6.15669C54.3598 4.06333 52.6592 2.36633 50.5614 2.36633C48.4637 2.36633 46.7631 4.06333 46.7631 6.15669C46.7631 8.25004 48.4637 9.94704 50.5614 9.94704Z" fill="#9E616A"/>
<path d="M47.2834 2.82785L51.6568 0.642578C52.5509 1.04464 53.321 1.67808 53.8871 2.47721C54.4532 3.27634 54.7947 4.21206 54.8763 5.18731L54.9853 6.4903L53.154 6.02509L52.9533 4.35897L52.6423 5.89513L51.7972 5.68054L51.8052 3.09388L50.9595 5.6787L47.9409 4.98665L47.2834 2.82785Z" fill="#2F2E41"/>
<path d="M53.2698 29.7944C53.2698 29.7944 56.5928 35.5581 53.3847 44.3029L48.8479 55.847L40.9651 63.8075L36.7288 61.3084L44.6052 54.6445L41.0927 42.7624C40.2838 40.0696 40.0345 37.2403 40.3599 34.4479C40.613 32.3584 42.5027 30.728 43.7953 28.756C48.1118 31.5343 53.0835 31.0873 53.2698 29.7944Z" fill="#2F2E41"/>
<path d="M48.8534 52.9279L51.8111 66.638L47.5326 67.443L45.0961 55.9175L48.8534 52.9279Z" fill="#2F2E41"/>
<path d="M47.7777 11.2145L52.6886 11.2798L54.2869 13.3051C55.0502 13.4847 55.7439 13.8843 56.2815 14.4541C56.8191 15.0239 57.177 15.7389 57.3108 16.5101L57.4615 17.3796C57.7735 19.1784 57.4423 21.0294 56.5259 22.6094L53.5278 25.4334L53.6578 25.6691C53.722 25.7857 53.7409 25.9218 53.7108 26.0513C53.6807 26.1809 53.6037 26.2948 53.4947 26.3713C53.5866 26.6029 53.5973 26.8587 53.525 27.0972L53.4616 27.3062C53.4616 27.3062 55.1425 27.7521 44.7724 26.216C44.5527 26.1834 44.3496 26.0802 44.1938 25.9221C44.0381 25.764 43.9382 25.5595 43.9093 25.3397C43.7966 25.2266 43.7224 25.081 43.697 24.9235C43.6716 24.7661 43.6965 24.6046 43.7679 24.4619L43.7891 24.4198L43.6826 24.2946C43.5641 24.1554 43.4956 23.9806 43.4881 23.7981C43.4806 23.6155 43.5344 23.4357 43.641 23.2872L43.6138 17.3572C43.4892 16.4673 43.6854 15.5622 44.1675 14.8034C44.6495 14.0445 45.3861 13.4812 46.2458 13.214L47.7777 11.2145Z" fill="#E6E6E6"/>
<path d="M61.7466 36.5658C61.7441 36.3327 61.6905 36.103 61.5894 35.8929C61.4883 35.6828 61.3423 35.4973 61.1617 35.3496C60.981 35.2019 60.7701 35.0955 60.5437 35.0379C60.3174 34.9803 60.0812 34.973 59.8517 35.0164L57.0247 30.103L55.6975 32.7325L58.5855 36.9951C58.6841 37.375 58.9189 37.7056 59.2454 37.9243C59.572 38.1429 59.9675 38.2345 60.3572 38.1816C60.7468 38.1286 61.1035 37.9349 61.3596 37.6371C61.6156 37.3393 61.7534 36.9582 61.7466 36.5658V36.5658Z" fill="#9E616A"/>
<path d="M46.2254 16.5209L44.6465 16.7639C44.6465 16.7639 44.1635 17.7941 45.2688 19.7889C46.3741 21.7836 56.8616 34.5468 56.8616 34.5468L57.748 31.2391L51.6522 20.0488L46.2254 16.5209Z" fill="#E6E6E6"/>
<path d="M145.798 76.0001H0.201747C0.148341 75.9999 0.0971775 75.9786 0.0594689 75.9409C0.0217603 75.9031 0.000583649 75.852 0.000583649 75.7987C0.000583649 75.7454 0.0217603 75.6943 0.0594689 75.6566C0.0971775 75.6188 0.148341 75.5976 0.201747 75.5974H145.798C145.852 75.5974 145.903 75.6186 145.941 75.6564C145.979 75.6941 146 75.7453 146 75.7987C146 75.8521 145.979 75.9033 145.941 75.9411C145.903 75.9788 145.852 76.0001 145.798 76.0001Z" fill="#CCCCCC"/>
</g>
<defs>
<clipPath id="clip0_5_952">
<rect width="146" height="76" fill="white"/>
</clipPath>
</defs>
</svg>
