<svg width="129" height="93" viewBox="0 0 129 93" fill="none" xmlns="http://www.w3.org/2000/svg">
<path d="M29.4852 27.8582C29.7582 28.0284 30.0263 28.2017 30.2939 28.3807C33.1213 35.5084 34.7357 43.0608 35.0698 50.7235C35.111 51.6097 35.1319 52.4945 35.1325 53.3779C35.1568 60.0027 34.1946 66.5941 32.2777 72.9344C32.1765 73.2682 32.0732 73.6006 31.9677 73.9317C31.892 74.1693 31.815 74.4092 31.7315 74.6449C31.6427 74.7657 31.5552 74.8844 31.4678 75.003C31.4616 75.0082 31.4562 75.017 31.45 75.0223C31.4147 75.0702 31.3795 75.1181 31.3478 75.165C31.1966 75.3684 31.0431 75.5706 30.8919 75.7738L31.0192 75.7825L31.3385 75.8029L31.3372 75.805C31.23 75.8028 31.1206 75.7992 31.0126 75.7935C30.9733 75.7936 30.9305 75.7945 30.8904 75.7911C30.8547 75.7904 30.8168 75.7883 30.781 75.7876C26.1783 75.6627 21.468 75.4325 17.2796 73.5465C12.8957 71.5709 9.17691 67.2993 9.3659 62.4883C9.3925 61.8582 9.48791 61.2329 9.65044 60.6236C9.71828 60.3691 9.79845 60.1191 9.88434 59.8696C10.4071 58.3421 11.3265 56.9817 12.5479 55.9283C13.7693 54.8748 15.2487 54.1662 16.834 53.8755C18.4193 53.5848 20.0532 53.7224 21.5678 54.2741C23.0825 54.8258 24.4231 55.7718 25.452 57.0147C24.1956 52.0674 18.802 49.5428 13.9441 48.008C9.08262 46.474 3.61302 44.8695 1.12935 40.4118C-0.257336 37.9312 -0.290725 35.0411 0.614105 32.3722C0.641651 32.2925 0.670583 32.2105 0.701687 32.1298C1.84127 28.9897 4.12142 26.3961 7.08651 24.8672C12.6421 22.1111 19.3927 23.0835 25.085 25.5434C26.608 26.2025 28.079 26.9763 29.4852 27.8582Z" fill="#F2F2F2"/>
<path d="M13.562 59.89C17.9287 60.2923 22.0503 62.0916 25.3177 65.022C28.1004 67.5457 30.1538 70.7735 31.2622 74.3666C31.3267 74.5722 31.3854 74.7773 31.4406 74.9834C31.5509 74.7729 31.6581 74.5577 31.764 74.3446C31.8322 74.2082 31.9017 74.0695 31.9677 73.9317C31.8921 74.1693 31.8151 74.4092 31.7315 74.6449C31.6427 74.7657 31.5552 74.8844 31.4678 75.003C31.4616 75.0082 31.4562 75.017 31.45 75.0223C31.4147 75.0702 31.3795 75.1181 31.3478 75.165C31.1966 75.3684 31.0431 75.5706 30.8919 75.7739L31.0193 75.7826L31.3385 75.8029L31.3372 75.805C31.23 75.8028 31.1207 75.7992 31.0126 75.7935C30.9733 75.7936 30.9305 75.7946 30.8905 75.7911C30.8773 75.7288 30.8606 75.6672 30.8439 75.6055C29.7125 70.9649 26.9432 66.8913 23.0475 64.1374C19.1519 61.3835 14.3931 60.1354 9.65047 60.6236C9.71832 60.3691 9.79849 60.1191 9.88438 59.8696C11.1085 59.7693 12.3391 59.7761 13.562 59.89Z" fill="white"/>
<path d="M28.0705 41.5907C29.8226 42.906 31.3735 44.4707 32.6741 46.2353C33.3518 47.1759 33.9406 48.1777 34.4328 49.2278C34.6662 49.715 34.8786 50.2167 35.0698 50.7235C35.111 51.6097 35.1319 52.4945 35.1325 53.3779C34.9701 52.7101 34.7722 52.0514 34.5396 51.4047C34.4187 51.0496 34.2843 50.7015 34.1416 50.3574C32.5404 46.5038 29.6396 43.4612 26.2183 41.1479C22.5522 38.6727 18.4192 36.8145 14.2306 35.4329C9.93792 34.0103 5.48744 33.1203 0.978658 32.7828C0.876834 32.7745 0.78211 32.7272 0.714216 32.6508C0.646322 32.5743 0.610489 32.4745 0.614173 32.3722C0.61071 32.2831 0.642137 32.1961 0.701755 32.1298C0.733428 32.0987 0.771934 32.0755 0.814184 32.0621C0.856435 32.0486 0.901252 32.0453 0.945029 32.0523C1.50143 32.094 2.05639 32.1381 2.61132 32.197C7.22863 32.6736 11.7689 33.7236 16.1275 35.3231C20.3351 36.8614 24.4992 38.8563 28.0705 41.5907Z" fill="white"/>
<path d="M5.19241 20.2781C6.04475 20.2781 6.73571 19.5858 6.73571 18.7318C6.73571 17.8778 6.04475 17.1854 5.19241 17.1854C4.34006 17.1854 3.64911 17.8778 3.64911 18.7318C3.64911 19.5858 4.34006 20.2781 5.19241 20.2781Z" fill="#F2F2F2"/>
<path d="M100.003 33.0073H29.9464V92.7959H100.003V33.0073Z" fill="white"/>
<path d="M100.207 93H29.7428V32.8032H100.207V93ZM30.1501 92.5919H99.7994V33.2113H30.1501V92.5919Z" fill="#3F3D56"/>
<path d="M73.7318 44.6385H56.2177V92.796H73.7318V44.6385Z" fill="#D98C5F"/>
<path d="M73.7318 44.6385H56.2177V92.796H73.7318V44.6385Z" fill="#D98C5F"/>
<path opacity="0.2" d="M30.15 37.3944V47.0949L100.003 51.5764L99.7971 39.6068L30.15 37.3944Z" fill="black"/>
<path d="M104.076 27.4977H25.8733V44.6385H104.076V27.4977Z" fill="white"/>
<path d="M104.28 44.8426H25.6697V27.2937H104.28V44.8426ZM26.077 44.4345H103.872V27.7018H26.077V44.4345Z" fill="#3F3D56"/>
<path d="M73.7318 25.8653H56.2177V44.4345H73.7318V25.8653Z" fill="#D98C5F"/>
<path d="M63.0995 9.67465C67.7227 16.5415 63.3668 27.5858 63.3668 27.5858C63.3668 27.5858 51.5152 27.4968 46.8919 20.63C42.2687 13.7631 46.6247 2.71878 46.6247 2.71878C46.6247 2.71878 58.4763 2.8078 63.0995 9.67465Z" fill="#D98C5F"/>
<path d="M65.2207 9.67465C60.5975 16.5415 64.9534 27.5858 64.9534 27.5858C64.9534 27.5858 76.8051 27.4968 81.4283 20.63C86.0515 13.7631 81.6956 2.71878 81.6956 2.71878C81.6956 2.71878 69.8439 2.8078 65.2207 9.67465Z" fill="#D98C5F"/>
<path d="M52.7555 14.8462C53.7678 14.8462 54.5884 14.024 54.5884 13.0097C54.5884 11.9954 53.7678 11.1732 52.7555 11.1732C51.7433 11.1732 50.9227 11.9954 50.9227 13.0097C50.9227 14.024 51.7433 14.8462 52.7555 14.8462Z" fill="#3F3D56"/>
<path d="M63.7528 33.4154C64.7651 33.4154 65.5857 32.5932 65.5857 31.5789C65.5857 30.5646 64.7651 29.7424 63.7528 29.7424C62.7405 29.7424 61.9199 30.5646 61.9199 31.5789C61.9199 32.5932 62.7405 33.4154 63.7528 33.4154Z" fill="#3F3D56"/>
<path d="M63.7528 73.6146C64.7651 73.6146 65.5857 72.7924 65.5857 71.7781C65.5857 70.7638 64.7651 69.9416 63.7528 69.9416C62.7405 69.9416 61.9199 70.7638 61.9199 71.7781C61.9199 72.7924 62.7405 73.6146 63.7528 73.6146Z" fill="#3F3D56"/>
<path d="M57.6432 20.9679C58.3181 20.9679 58.8651 20.4198 58.8651 19.7436C58.8651 19.0674 58.3181 18.5192 57.6432 18.5192C56.9684 18.5192 56.4213 19.0674 56.4213 19.7436C56.4213 20.4198 56.9684 20.9679 57.6432 20.9679Z" fill="#3F3D56"/>
<path d="M75.972 10.561C76.6468 10.561 77.1939 10.0129 77.1939 9.33668C77.1939 8.66049 76.6468 8.11234 75.972 8.11234C75.2971 8.11234 74.7501 8.66049 74.7501 9.33668C74.7501 10.0129 75.2971 10.561 75.972 10.561Z" fill="#3F3D56"/>
<path d="M68.0295 39.3331C68.7044 39.3331 69.2514 38.7849 69.2514 38.1087C69.2514 37.4325 68.7044 36.8844 68.0295 36.8844C67.3547 36.8844 66.8076 37.4325 66.8076 38.1087C66.8076 38.7849 67.3547 39.3331 68.0295 39.3331Z" fill="#3F3D56"/>
<path d="M60.698 55.2495C61.3729 55.2495 61.9199 54.7013 61.9199 54.0251C61.9199 53.3489 61.3729 52.8008 60.698 52.8008C60.0232 52.8008 59.4761 53.3489 59.4761 54.0251C59.4761 54.7013 60.0232 55.2495 60.698 55.2495Z" fill="#3F3D56"/>
<path d="M67.0113 60.759C67.6861 60.759 68.2332 60.2109 68.2332 59.5347C68.2332 58.8585 67.6861 58.3103 67.0113 58.3103C66.3364 58.3103 65.7893 58.8585 65.7893 59.5347C65.7893 60.2109 66.3364 60.759 67.0113 60.759Z" fill="#3F3D56"/>
<path d="M65.5857 83.8175C66.2605 83.8175 66.8076 83.2693 66.8076 82.5931C66.8076 81.9169 66.2605 81.3688 65.5857 81.3688C64.9108 81.3688 64.3638 81.9169 64.3638 82.5931C64.3638 83.2693 64.9108 83.8175 65.5857 83.8175Z" fill="#3F3D56"/>
<path d="M126.724 61.0789H89.4485V92.8914H126.724V61.0789Z" fill="white"/>
<path d="M126.833 93H89.3401V60.9703H126.833V93ZM89.5568 92.7828H126.616V61.1875H89.5568V92.7828Z" fill="#3F3D56"/>
<path d="M112.746 67.2677H103.427V92.8914H112.746V67.2677Z" fill="#D98C5F"/>
<path d="M112.746 67.2677H103.427V92.8914H112.746V67.2677Z" fill="#D98C5F"/>
<path opacity="0.2" d="M89.5568 63.4133V68.5748L126.725 70.9592L126.615 64.5905L89.5568 63.4133Z" fill="black"/>
<path d="M128.892 58.1474H87.2813V67.2677H128.892V58.1474Z" fill="white"/>
<path d="M129 67.3763H87.1729V58.0388H129V67.3763ZM87.3896 67.1591H128.783V58.2559H87.3896V67.1591Z" fill="#3F3D56"/>
<path d="M112.746 57.2787H103.427V67.1591H112.746V57.2787Z" fill="#D98C5F"/>
<path d="M107.089 48.664C109.549 52.3177 107.231 58.1942 107.231 58.1942C107.231 58.1942 100.925 58.1469 98.4649 54.4931C96.005 50.8394 98.3227 44.9629 98.3227 44.9629C98.3227 44.9629 104.629 45.0103 107.089 48.664Z" fill="#D98C5F"/>
<path d="M108.217 48.664C105.757 52.3177 108.075 58.1942 108.075 58.1942C108.075 58.1942 114.381 58.1469 116.841 54.4931C119.301 50.8394 116.983 44.9629 116.983 44.9629C116.983 44.9629 110.677 45.0103 108.217 48.664Z" fill="#D98C5F"/>
<path d="M101.585 51.4157C102.123 51.4157 102.56 50.9782 102.56 50.4385C102.56 49.8988 102.123 49.4613 101.585 49.4613C101.046 49.4613 100.61 49.8988 100.61 50.4385C100.61 50.9782 101.046 51.4157 101.585 51.4157Z" fill="#3F3D56"/>
<path d="M107.436 61.296C107.975 61.296 108.412 60.8585 108.412 60.3189C108.412 59.7792 107.975 59.3417 107.436 59.3417C106.898 59.3417 106.461 59.7792 106.461 60.3189C106.461 60.8585 106.898 61.296 107.436 61.296Z" fill="#3F3D56"/>
<path d="M107.436 82.6854C107.975 82.6854 108.412 82.2479 108.412 81.7082C108.412 81.1685 107.975 80.731 107.436 80.731C106.898 80.731 106.461 81.1685 106.461 81.7082C106.461 82.2479 106.898 82.6854 107.436 82.6854Z" fill="#3F3D56"/>
<path d="M104.185 54.673C104.545 54.673 104.836 54.3813 104.836 54.0215C104.836 53.6617 104.545 53.3701 104.185 53.3701C103.826 53.3701 103.535 53.6617 103.535 54.0215C103.535 54.3813 103.826 54.673 104.185 54.673Z" fill="#3F3D56"/>
<path d="M113.938 49.1356C114.297 49.1356 114.588 48.8439 114.588 48.4842C114.588 48.1244 114.297 47.8327 113.938 47.8327C113.579 47.8327 113.288 48.1244 113.288 48.4842C113.288 48.8439 113.579 49.1356 113.938 49.1356Z" fill="#3F3D56"/>
<path d="M109.712 64.4447C110.071 64.4447 110.362 64.1531 110.362 63.7933C110.362 63.4335 110.071 63.1418 109.712 63.1418C109.353 63.1418 109.062 63.4335 109.062 63.7933C109.062 64.1531 109.353 64.4447 109.712 64.4447Z" fill="#3F3D56"/>
<path d="M105.811 72.9136C106.17 72.9136 106.461 72.622 106.461 72.2622C106.461 71.9024 106.17 71.6107 105.811 71.6107C105.452 71.6107 105.161 71.9024 105.161 72.2622C105.161 72.622 105.452 72.9136 105.811 72.9136Z" fill="#3F3D56"/>
<path d="M109.17 75.8451C109.529 75.8451 109.82 75.5535 109.82 75.1937C109.82 74.8339 109.529 74.5422 109.17 74.5422C108.811 74.5422 108.52 74.8339 108.52 75.1937C108.52 75.5535 108.811 75.8451 109.17 75.8451Z" fill="#3F3D56"/>
<path d="M108.412 88.1141C108.771 88.1141 109.062 87.8224 109.062 87.4627C109.062 87.1029 108.771 86.8112 108.412 86.8112C108.052 86.8112 107.761 87.1029 107.761 87.4627C107.761 87.8224 108.052 88.1141 108.412 88.1141Z" fill="#3F3D56"/>
<path d="M62.5847 78.2348C62.9106 77.5464 61.4007 76.1454 59.2124 75.1054C57.024 74.0655 54.9859 73.7804 54.6601 74.4688C54.3343 75.1571 55.8441 76.5582 58.0325 77.5981C60.2208 78.6381 62.2589 78.9231 62.5847 78.2348Z" fill="#2F2E41"/>
<path d="M80.6453 85.3246C81.2283 84.8355 80.4404 82.9306 78.8856 81.0699C77.3308 79.2092 75.5977 78.0973 75.0148 78.5864C74.4318 79.0754 75.2196 80.9803 76.7745 82.841C78.3293 84.7017 80.0623 85.8137 80.6453 85.3246Z" fill="#2F2E41"/>
<path d="M68.5013 89.2178C73.3452 89.2178 77.2721 85.2832 77.2721 80.4296C77.2721 75.576 73.3452 71.6414 68.5013 71.6414C63.6573 71.6414 59.7305 75.576 59.7305 80.4296C59.7305 85.2832 63.6573 89.2178 68.5013 89.2178Z" fill="#2F2E41"/>
<path d="M72.2136 87.3266H69.5491V92.11H72.2136V87.3266Z" fill="#2F2E41"/>
<path d="M66.8845 87.3266H64.22V92.11H66.8845V87.3266Z" fill="#2F2E41"/>
<path d="M69.9932 93C71.2195 93 72.2136 92.6265 72.2136 92.1657C72.2136 91.7049 71.2195 91.3314 69.9932 91.3314C68.7668 91.3314 67.7727 91.7049 67.7727 92.1657C67.7727 92.6265 68.7668 93 69.9932 93Z" fill="#2F2E41"/>
<path d="M64.6641 92.8887C65.8904 92.8887 66.8845 92.5152 66.8845 92.0544C66.8845 91.5936 65.8904 91.2201 64.6641 91.2201C63.4378 91.2201 62.4436 91.5936 62.4436 92.0544C62.4436 92.5152 63.4378 92.8887 64.6641 92.8887Z" fill="#2F2E41"/>
<path d="M65.7473 69.3826C66.5305 66.2223 69.9875 64.3626 73.4687 65.2288C76.95 66.0949 79.1373 69.3589 78.3541 72.5192C77.5709 75.6794 74.9727 75.6896 71.4914 74.8234C68.0101 73.9573 64.9641 72.5428 65.7473 69.3826Z" fill="#E6E6E6"/>
<path d="M67.19 81.5052C68.805 81.5052 70.1142 80.1934 70.1142 78.5752C70.1142 76.957 68.805 75.6452 67.19 75.6452C65.575 75.6452 64.2658 76.957 64.2658 78.5752C64.2658 80.1934 65.575 81.5052 67.19 81.5052Z" fill="white"/>
<path d="M65.9882 78.5017C66.5265 78.5017 66.9629 78.0644 66.9629 77.525C66.9629 76.9856 66.5265 76.5483 65.9882 76.5483C65.4499 76.5483 65.0135 76.9856 65.0135 77.525C65.0135 78.0644 65.4499 78.5017 65.9882 78.5017Z" fill="#3F3D56"/>
<path d="M69.0244 84.6797C69.0703 84.932 69.066 85.191 69.012 85.4417C68.958 85.6924 68.8552 85.9301 68.7095 86.141C68.5638 86.3519 68.3781 86.5321 68.163 86.6711C67.9478 86.8101 67.7075 86.9053 67.4556 86.9512C67.2037 86.9972 66.9453 86.993 66.6951 86.9388C66.4448 86.8847 66.2077 86.7817 65.9972 86.6357C65.7866 86.4898 65.6069 86.3037 65.4681 86.0881C65.3294 85.8725 65.2344 85.6317 65.1885 85.3793L65.1878 85.3756C64.996 84.314 65.8152 83.9384 66.8746 83.7462C67.934 83.5541 68.8326 83.6181 69.0244 84.6797Z" fill="white"/>
<path d="M86.2338 14.243C88.4724 13.3165 90.0518 11.9947 89.7616 11.2905C89.4713 10.5864 87.4213 10.7666 85.1827 11.693C82.9442 12.6195 81.3648 13.9413 81.655 14.6455C81.9453 15.3496 83.9953 15.1694 86.2338 14.243Z" fill="#2F2E41"/>
<path d="M107.731 20.3084C108.314 19.8193 107.526 17.9144 105.971 16.0537C104.417 14.193 102.684 13.0811 102.101 13.5701C101.518 14.0592 102.305 15.9641 103.86 17.8248C105.415 19.6855 107.148 20.7974 107.731 20.3084Z" fill="#2F2E41"/>
<path d="M95.5871 24.2015C100.431 24.2015 104.358 20.2669 104.358 15.4133C104.358 10.5598 100.431 6.62515 95.5871 6.62515C90.7431 6.62515 86.8163 10.5598 86.8163 15.4133C86.8163 20.2669 90.7431 24.2015 95.5871 24.2015Z" fill="#2F2E41"/>
<path d="M99.2995 22.3104H96.6349V27.0938H99.2995V22.3104Z" fill="#2F2E41"/>
<path d="M93.9704 22.3104H91.3058V27.0938H93.9704V22.3104Z" fill="#2F2E41"/>
<path d="M97.079 27.9838C98.3053 27.9838 99.2995 27.6102 99.2995 27.1494C99.2995 26.6887 98.3053 26.3151 97.079 26.3151C95.8527 26.3151 94.8586 26.6887 94.8586 27.1494C94.8586 27.6102 95.8527 27.9838 97.079 27.9838Z" fill="#2F2E41"/>
<path d="M91.7499 27.8725C92.9762 27.8725 93.9704 27.499 93.9704 27.0382C93.9704 26.5774 92.9762 26.2039 91.7499 26.2039C90.5236 26.2039 89.5295 26.5774 89.5295 27.0382C89.5295 27.499 90.5236 27.8725 91.7499 27.8725Z" fill="#2F2E41"/>
<path d="M92.8332 4.36633C93.6163 1.2061 97.0733 -0.653624 100.555 0.212516C104.036 1.07866 106.223 4.34268 105.44 7.50291C104.657 10.6631 102.059 10.6733 98.5773 9.8072C95.096 8.94105 92.05 7.52656 92.8332 4.36633Z" fill="#D98C5F"/>
<path d="M94.2759 16.4889C95.8908 16.4889 97.2 15.1771 97.2 13.5589C97.2 11.9408 95.8908 10.629 94.2759 10.629C92.6609 10.629 91.3517 11.9408 91.3517 13.5589C91.3517 15.1771 92.6609 16.4889 94.2759 16.4889Z" fill="white"/>
<path d="M93.074 14.9138C93.6124 14.9138 94.0488 14.4765 94.0488 13.9371C94.0488 13.3977 93.6124 12.9604 93.074 12.9604C92.5357 12.9604 92.0993 13.3977 92.0993 13.9371C92.0993 14.4765 92.5357 14.9138 93.074 14.9138Z" fill="#3F3D56"/>
<path d="M96.1102 19.6634C96.2028 20.1731 96.0896 20.6987 95.7954 21.1247C95.5012 21.5507 95.0501 21.8422 94.5415 21.935C94.0328 22.0278 93.5082 21.9143 93.083 21.6195C92.6578 21.3247 92.367 20.8727 92.2744 20.3631L92.2737 20.3593C92.0819 19.2978 92.901 18.9221 93.9605 18.73C95.0199 18.5378 95.9185 18.6019 96.1102 19.6634Z" fill="white"/>
<path d="M20.5455 89.2177C25.3894 89.2177 29.3162 85.2831 29.3162 80.4295C29.3162 75.576 25.3894 71.6414 20.5455 71.6414C15.7015 71.6414 11.7747 75.576 11.7747 80.4295C11.7747 85.2831 15.7015 89.2177 20.5455 89.2177Z" fill="#2F2E41"/>
<path d="M19.2132 87.3266H16.5486V92.11H19.2132V87.3266Z" fill="#2F2E41"/>
<path d="M24.5423 87.3266H21.8777V92.11H24.5423V87.3266Z" fill="#2F2E41"/>
<path d="M18.7691 93C19.9954 93 20.9895 92.6265 20.9895 92.1657C20.9895 91.7049 19.9954 91.3314 18.7691 91.3314C17.5428 91.3314 16.5486 91.7049 16.5486 92.1657C16.5486 92.6265 17.5428 93 18.7691 93Z" fill="#2F2E41"/>
<path d="M24.0982 92.8887C25.3245 92.8887 26.3186 92.5152 26.3186 92.0544C26.3186 91.5936 25.3245 91.2201 24.0982 91.2201C22.8719 91.2201 21.8777 91.5936 21.8777 92.0544C21.8777 92.5152 22.8719 92.8887 24.0982 92.8887Z" fill="#2F2E41"/>
<path d="M12.0375 72.2568C11.3293 69.0789 13.5931 65.8677 17.0939 65.0845C20.5947 64.3012 24.0068 66.2425 24.715 69.4204C25.4232 72.5984 23.1031 73.7705 19.6023 74.5537C16.1015 75.3369 12.7457 75.4348 12.0375 72.2568Z" fill="#D98C5F"/>
<path d="M29.9969 76.5893C31.8963 74.6846 32.9524 72.6562 32.3556 72.0587C31.7589 71.4612 29.7353 72.5209 27.8358 74.4256C25.9363 76.3303 24.8803 78.3587 25.4771 78.9562C26.0738 79.5537 28.0974 78.494 29.9969 76.5893Z" fill="#2F2E41"/>
<path d="M13.4759 79.5684C14.0727 78.9709 13.0166 76.9425 11.1171 75.0378C9.21767 73.1331 7.19407 72.0734 6.59731 72.6708C6.00055 73.2683 7.05661 75.2968 8.95608 77.2015C10.8555 79.1062 12.8791 80.1659 13.4759 79.5684Z" fill="#2F2E41"/>
<path d="M20.1764 82.1877C21.832 82.1877 23.174 80.843 23.174 79.1842C23.174 77.5253 21.832 76.1806 20.1764 76.1806C18.5209 76.1806 17.1788 77.5253 17.1788 79.1842C17.1788 80.843 18.5209 82.1877 20.1764 82.1877Z" fill="white"/>
<path d="M20.1764 80.1854C20.7283 80.1854 21.1756 79.7371 21.1756 79.1842C21.1756 78.6312 20.7283 78.183 20.1764 78.183C19.6246 78.183 19.1772 78.6312 19.1772 79.1842C19.1772 79.7371 19.6246 80.1854 20.1764 80.1854Z" fill="#3F3D56"/>
<path d="M22.556 84.7391C22.6019 84.9915 22.5977 85.2504 22.5436 85.5012C22.4896 85.7519 22.3868 85.9895 22.2412 86.2004C22.0955 86.4114 21.9098 86.5915 21.6946 86.7305C21.4795 86.8695 21.2391 86.9647 20.9872 87.0107C20.7354 87.0566 20.4769 87.0524 20.2267 86.9983C19.9765 86.9441 19.7393 86.8412 19.5288 86.6952C19.3183 86.5492 19.1385 86.3632 18.9998 86.1476C18.861 85.932 18.766 85.6911 18.7202 85.4388L18.7195 85.435C18.5277 84.3735 19.3468 83.9978 20.4062 83.8057C21.4657 83.6135 22.3642 83.6776 22.556 84.7391Z" fill="white"/>
</svg>
