<svg width="104" height="96" viewBox="0 0 104 96" fill="none" xmlns="http://www.w3.org/2000/svg">
<path d="M51.5121 96C79.9614 96 103.024 94.4604 103.024 92.5613C103.024 90.6622 79.9614 89.1226 51.5121 89.1226C23.0627 89.1226 0 90.6622 0 92.5613C0 94.4604 23.0627 96 51.5121 96Z" fill="#3F3D56"/>
<path d="M52.3754 55.0223H50.6487V56.0253H52.3754V55.0223Z" fill="#3F3D56"/>
<path d="M55.8287 55.0223H54.1021V56.0253H55.8287V55.0223Z" fill="#3F3D56"/>
<path d="M59.282 55.0223H57.5554V56.0253H59.282V55.0223Z" fill="#3F3D56"/>
<path d="M62.7354 55.0223H61.0087V56.0253H62.7354V55.0223Z" fill="#3F3D56"/>
<path d="M66.1887 55.0223H64.462V56.0253H66.1887V55.0223Z" fill="#3F3D56"/>
<path d="M69.642 55.0223H67.9153V56.0253H69.642V55.0223Z" fill="#3F3D56"/>
<path d="M73.0953 55.0223H71.3687V56.0253H73.0953V55.0223Z" fill="#3F3D56"/>
<path d="M76.5487 55.0223H74.822V56.0253H76.5487V55.0223Z" fill="#3F3D56"/>
<path d="M80.002 55.0223H78.2753V56.0253H80.002V55.0223Z" fill="#3F3D56"/>
<path d="M83.4553 55.0223H81.7286V56.0253H83.4553V55.0223Z" fill="#3F3D56"/>
<path d="M86.9086 55.0223H85.182V56.0253H86.9086V55.0223Z" fill="#3F3D56"/>
<path d="M90.8655 55.6671C90.8655 61.139 88.6826 66.3869 84.7968 70.2562C80.9111 74.1254 75.6409 76.2992 70.1456 76.2992C64.6503 76.2992 59.3802 74.1254 55.4944 70.2562C51.6087 66.3869 49.4257 61.139 49.4257 55.6671H90.8655Z" fill="#3F3D56"/>
<path d="M89.8641 55.7989L76.6839 16.6781C79.2634 15.8145 81.9887 15.4657 84.7037 15.6516C87.4187 15.8376 90.0703 16.5547 92.5068 17.7619C94.9433 18.9692 97.1169 20.6428 98.9033 22.6872C100.69 24.7316 102.054 27.1066 102.918 29.6764C103.057 30.0904 103.184 30.5074 103.296 30.9243C104.653 35.9939 104.019 41.3877 101.524 46.0086C99.0286 50.6295 94.8593 54.1303 89.8641 55.7989Z" fill="#3F3D56"/>
<path d="M90.3619 58.8908C91.7923 58.8908 92.9519 57.7362 92.9519 56.3118C92.9519 54.8875 91.7923 53.7328 90.3619 53.7328C88.9315 53.7328 87.7719 54.8875 87.7719 56.3118C87.7719 57.7362 88.9315 58.8908 90.3619 58.8908Z" fill="#3F3D56"/>
<path d="M64.0304 61.04C63.8396 61.04 63.6566 61.1155 63.5217 61.2499C63.3868 61.3842 63.311 61.5664 63.311 61.7564C63.311 61.9464 63.3868 62.1286 63.5217 62.263C63.6566 62.3973 63.8396 62.4728 64.0304 62.4728H76.4048C76.5956 62.4728 76.7786 62.3973 76.9136 62.263C77.0485 62.1286 77.1243 61.9464 77.1243 61.7564C77.1243 61.5664 77.0485 61.3842 76.9136 61.2499C76.7786 61.1155 76.5956 61.04 76.4048 61.04H64.0304Z" fill="#D98C5F"/>
<path d="M87.3403 92.9911L84.7638 93.086L75.4816 73.2082L77.8301 72.1208L87.3403 92.9911Z" fill="#3F3D56"/>
<path d="M52.9509 92.9911L55.5274 93.086L64.8096 73.2082L62.4611 72.1208L52.9509 92.9911Z" fill="#3F3D56"/>
<path d="M80.8653 81.5289H59.5698V82.9617H80.8653V81.5289Z" fill="#3F3D56"/>
<path d="M77.2107 15.9477C77.1095 15.9477 77.0097 15.9714 76.9194 16.0168C76.8291 16.0621 76.7506 16.1279 76.6904 16.2089C76.6303 16.2899 76.59 16.3838 76.5728 16.4831C76.5556 16.5824 76.5621 16.6843 76.5916 16.7807L77.1375 18.5623C77.1877 18.7257 77.3011 18.8625 77.4526 18.9428C77.6042 19.023 77.7815 19.0401 77.9457 18.9902C78.1098 18.9404 78.2474 18.8276 78.3281 18.6768C78.4089 18.526 78.4262 18.3495 78.3763 18.1859L77.8304 16.4044C77.7897 16.2723 77.7076 16.1567 77.596 16.0745C77.4845 15.9923 77.3495 15.9478 77.2107 15.9477Z" fill="#D98C5F"/>
<path d="M48.5623 56.0253C48.3906 56.0253 48.2259 56.0932 48.1045 56.2141C47.9831 56.335 47.9148 56.499 47.9148 56.67C47.9148 56.841 47.9831 57.005 48.1045 57.1259C48.2259 57.2469 48.3906 57.3148 48.5623 57.3148H50.4329C50.6046 57.3148 50.7693 57.2469 50.8908 57.1259C51.0122 57.005 51.0804 56.841 51.0804 56.67C51.0804 56.499 51.0122 56.335 50.8908 56.2141C50.7693 56.0932 50.6046 56.0253 50.4329 56.0253H48.5623Z" fill="#D98C5F"/>
<path d="M64.0304 51.2971H56.2604C56.2115 51.2971 56.164 51.2985 56.1165 51.3028C55.6089 51.3389 55.1338 51.565 54.7867 51.9357C54.4397 52.3064 54.2465 52.7942 54.2459 53.301C54.2454 53.8077 54.4376 54.2959 54.7838 54.6674C55.13 55.0388 55.6046 55.266 56.1122 55.3031C56.1611 55.3074 56.21 55.3089 56.2604 55.3089H64.0304C64.5646 55.3089 65.077 55.0975 65.4548 54.7213C65.8326 54.3452 66.0448 53.835 66.0448 53.303C66.0448 52.771 65.8326 52.2607 65.4548 51.8846C65.077 51.5084 64.5646 51.2971 64.0304 51.2971Z" fill="#FF6584"/>
<path opacity="0.2" d="M55.4776 55.1498C56.8014 54.9807 57.8432 53.3173 57.8432 51.2971H57.5554C57.5554 53.2729 56.5223 54.879 55.2532 54.879V55.0395L55.4776 55.1498Z" fill="black"/>
<path opacity="0.2" d="M58.2748 55.1656V54.879C59.5442 54.879 60.577 53.2722 60.577 51.2971H60.8648C60.8648 53.4301 59.703 55.1656 58.2748 55.1656Z" fill="black"/>
<path opacity="0.2" d="M61.2965 55.1656V54.879C62.5659 54.879 63.5987 53.2722 63.5987 51.2971H63.8865C63.8865 53.4301 62.7246 55.1656 61.2965 55.1656Z" fill="black"/>
<path d="M78.1314 51.2971H70.3615C70.3125 51.2971 70.265 51.2985 70.2176 51.3028C69.7099 51.3389 69.2348 51.565 68.8878 51.9357C68.5408 52.3064 68.3476 52.7942 68.347 53.301C68.3465 53.8077 68.5386 54.2959 68.8848 54.6674C69.2311 55.0388 69.7057 55.266 70.2132 55.3031C70.2622 55.3074 70.3111 55.3089 70.3615 55.3089H78.1314C78.6657 55.3089 79.1781 55.0975 79.5558 54.7213C79.9336 54.3452 80.1459 53.835 80.1459 53.303C80.1459 52.771 79.9336 52.2607 79.5558 51.8846C79.1781 51.5084 78.6657 51.2971 78.1314 51.2971Z" fill="#FF6584"/>
<path opacity="0.2" d="M69.5787 55.1498C70.9025 54.9807 71.9442 53.3173 71.9442 51.2971H71.6564C71.6564 53.2729 70.6233 54.879 69.3542 54.879V55.0395L69.5787 55.1498Z" fill="black"/>
<path opacity="0.2" d="M72.3759 55.1656V54.879C73.6453 54.879 74.6781 53.2722 74.6781 51.2971H74.9659C74.9659 53.4301 73.804 55.1656 72.3759 55.1656Z" fill="black"/>
<path opacity="0.2" d="M75.3975 55.1656V54.879C76.667 54.879 77.6998 53.2722 77.6998 51.2971H77.9875C77.9875 53.4301 76.8257 55.1656 75.3975 55.1656Z" fill="black"/>
<path d="M63.4617 32.0342C62.4434 31.4864 61.1845 32.0838 60.6771 33.0535C60.0598 34.2329 60.5714 35.6509 61.2912 36.659C62.0391 37.7066 63.0542 38.5713 63.5534 39.7819C64.0311 40.9211 64.0877 42.1921 63.7133 43.3691C63.3389 44.546 62.5577 45.5527 61.5084 46.2103C61.0401 46.5053 61.4728 47.2496 61.9441 46.9526C62.9732 46.3125 63.7874 45.3815 64.2827 44.2785C64.7779 43.1754 64.9319 41.9505 64.7248 40.76C64.6197 40.1426 64.4194 39.545 64.1308 38.9887C63.8179 38.4208 63.441 37.8904 63.0073 37.4076C62.2583 36.525 61.3155 35.5519 61.2685 34.3238C61.2599 34.1645 61.271 34.0048 61.3017 33.8482C61.3241 33.7388 61.3575 33.6319 61.4013 33.5291C61.506 33.3085 61.6614 33.1155 61.8549 32.9656C62.0342 32.8232 62.2465 32.7275 62.4723 32.6873C62.6617 32.6593 62.8551 32.6905 63.026 32.7765C63.5148 33.0395 63.9512 32.2975 63.4617 32.0342Z" fill="#E6E6E6"/>
<path d="M76.4525 37.2343C76.0189 37.0956 75.5556 37.0765 75.112 37.1792C74.6684 37.2818 74.261 37.5024 73.9333 37.8173C73.7639 37.9908 73.6385 38.2019 73.5673 38.4332C73.4961 38.6645 73.4813 38.9094 73.5241 39.1475C73.6064 39.6685 73.9367 40.1312 74.295 40.5041C74.9962 41.2337 75.9776 41.7054 76.5655 42.5431C76.8262 42.9 76.9898 43.3179 77.0404 43.7564C77.0706 44.1504 76.9981 44.5454 76.8298 44.9032C76.3912 45.7909 75.5205 46.3947 74.6022 46.7834C74.3876 46.8743 74.3403 47.1893 74.4474 47.3715C74.5072 47.4677 74.6019 47.5374 74.7118 47.5661C74.8217 47.5948 74.9385 47.5803 75.038 47.5257C76.7277 46.8104 78.2912 45.2083 77.8251 43.2399C77.5799 42.2045 76.8285 41.4738 76.0193 40.8385C75.6174 40.5451 75.2379 40.2226 74.8837 39.8735C74.6039 39.5776 74.3132 39.1735 74.3646 38.7724C74.3852 38.633 74.4537 38.5049 74.5585 38.4102C74.6856 38.2945 74.8299 38.199 74.9862 38.1272C75.1779 38.0357 75.3859 37.9829 75.5982 37.972C75.8104 37.961 76.0228 37.992 76.223 38.0633C76.3333 38.0925 76.4508 38.0774 76.5501 38.0213C76.6494 37.9651 76.7226 37.8724 76.754 37.7631C76.782 37.6532 76.7663 37.5368 76.7101 37.4382C76.6539 37.3397 76.5616 37.2666 76.4525 37.2343V37.2343Z" fill="#E6E6E6"/>
<path d="M69.8802 25.0056C69.6229 24.7868 69.2982 24.6623 68.96 24.6528C68.6392 24.6588 68.3274 24.7592 68.0638 24.9413C67.4685 25.3719 67.0474 26.0002 66.8764 26.7128C66.4401 28.3768 67.0092 30.1702 67.7998 31.6357C68.1995 32.3765 68.6651 33.0797 69.0674 33.8191C69.4553 34.5262 69.7532 35.2788 69.954 36.0593C70.3636 37.6598 70.4002 39.3324 70.0609 40.9491C69.7154 42.5583 68.9886 44.1517 67.7521 45.262C67.6712 45.3426 67.6257 45.4519 67.6257 45.5659C67.6257 45.6799 67.6712 45.7893 67.7521 45.8699C67.8331 45.9505 67.9429 45.9958 68.0573 45.9958C68.1718 45.9958 68.2816 45.9505 68.3626 45.8699C69.46 44.8844 70.194 43.5326 70.637 42.1426C71.1258 40.5726 71.2688 38.9162 71.0562 37.2862C70.96 36.4745 70.7744 35.6758 70.5027 34.9046C70.2083 34.1277 69.8406 33.3803 69.4046 32.6724C68.5931 31.3063 67.7293 29.9246 67.6119 28.2979C67.5541 27.498 67.6546 26.6642 68.1515 26.0209C68.1243 26.0561 68.1733 25.9953 68.1736 25.9951C68.2037 25.9591 68.2349 25.9242 68.2673 25.8902C68.3289 25.8243 68.3952 25.7628 68.4656 25.7063C68.4506 25.7181 68.4124 25.7435 68.482 25.6955C68.5166 25.6716 68.5519 25.6487 68.5882 25.6275C68.6177 25.6102 68.648 25.5949 68.6782 25.5789C68.6962 25.5698 68.7144 25.5612 68.7328 25.5531C68.6908 25.5712 68.6932 25.5713 68.7399 25.5537C68.7737 25.5431 68.9409 25.5071 68.8481 25.5188C68.879 25.5151 68.9102 25.5131 68.9413 25.5128C68.9546 25.5125 69.071 25.5185 69.0141 25.5123C68.9476 25.505 69.0667 25.5241 69.0676 25.5243C69.1048 25.5333 69.1414 25.5449 69.1772 25.5588C69.0873 25.5231 69.3245 25.6559 69.2697 25.6135C69.3524 25.6908 69.4615 25.7338 69.575 25.7338C69.6884 25.7338 69.7975 25.6908 69.8802 25.6135C70.0291 25.4652 70.0653 25.1489 69.8802 25.0056L69.8802 25.0056Z" fill="#E6E6E6"/>
<path d="M36.733 89.6066L33.4785 90.4663L27.501 62.9538L34.2092 62.3585L36.733 89.6066Z" fill="#FFB9B9"/>
<path d="M21.8428 90.0294L18.5135 90.5303L15.5876 62.5323L22.3208 62.6698L21.8428 90.0294Z" fill="#FFB9B9"/>
<path d="M20.1287 50.1895L20.4361 55.9037C20.4474 56.1138 20.4132 56.324 20.3357 56.5198C20.2582 56.7156 20.1394 56.8926 19.9871 57.0386C19.8349 57.1846 19.653 57.2964 19.4535 57.3662C19.2541 57.436 19.042 57.4623 18.8315 57.4432C18.4874 57.4121 18.1653 57.2615 17.9214 57.0179C17.6775 56.7742 17.5274 56.453 17.4972 56.1103L16.9406 49.7926L12.5571 34.9782L12.6899 25.4546L17.8705 25.7191L20.1287 50.1895Z" fill="#FFB9B9"/>
<path d="M22.9182 64.2103C20.3232 63.3132 17.3123 63.1368 13.8854 63.6812C14.3714 57.9487 14.6529 52.6253 14.4168 48.3376H32.0838L22.9182 64.2103Z" fill="#2F2E41"/>
<path d="M35.2719 64.078C32.5972 65.4869 28.7283 66.1613 24.2466 66.4589L18.6675 48.7345L32.3495 48.4699L35.2719 64.078Z" fill="#2F2E41"/>
<path d="M42.159 92.4828L32.5343 92.8376C31.3014 92.8831 31.2363 91.8288 31.4691 90.6224L32.6086 87.3825C35.174 89.8852 35.4156 90.0251 36.5154 86.4649L39.8718 89.1047L42.3562 89.5288C42.7041 89.5882 43.0197 89.7683 43.247 90.0372C43.4743 90.3061 43.5988 90.6464 43.5982 90.9979C43.5976 91.3827 43.4474 91.7522 43.179 92.0291C42.9107 92.3059 42.5451 92.4685 42.159 92.4828Z" fill="#2F2E41"/>
<path d="M27.5817 92.4828L17.957 92.8376C16.7241 92.8831 16.6591 91.8288 16.8919 90.6224L18.0313 87.3825C20.5968 89.8852 20.8384 90.0251 21.9382 86.4649L25.2946 89.1047L27.779 89.5288C28.1269 89.5882 28.4425 89.7683 28.6698 90.0372C28.8971 90.3061 29.0215 90.6464 29.021 90.9979C29.0203 91.3827 28.8701 91.7522 28.6018 92.0291C28.3334 92.3059 27.9679 92.4685 27.5817 92.4828Z" fill="#2F2E41"/>
<path d="M29.8256 11.4337C32.6868 11.4337 35.0062 9.12415 35.0062 6.27513C35.0062 3.4261 32.6868 1.11652 29.8256 1.11652C26.9645 1.11652 24.6451 3.4261 24.6451 6.27513C24.6451 9.12415 26.9645 11.4337 29.8256 11.4337Z" fill="#FFB9B9"/>
<path d="M27.1689 15.4019L21.0585 13.5501L25.1764 7.46552L29.8256 9.44964L27.1689 15.4019Z" fill="#FFB9B9"/>
<path d="M32.8808 49.9249C26.5994 51.3312 19.6265 50.7732 13.6198 49.1313C15.0582 41.1441 14.3637 32.565 12.9556 25.5868C11.8534 20.1249 14.7609 15.5416 19.5973 13.2855C20.6369 12.9143 21.7184 12.6718 22.8174 12.5635C26.21 12.2642 29.1952 14.7973 29.5491 18.1704L32.8808 49.9249Z" fill="#D98C5F"/>
<path d="M16.5421 28.2323L12.1586 27.7032L13.4869 20.8251H16.5421V28.2323Z" fill="#D98C5F"/>
<path d="M29.7532 7.09196L28.9595 6.74074C28.7797 6.6614 28.5847 6.62195 28.3881 6.62511C28.1914 6.62828 27.9978 6.67399 27.8206 6.75908C27.6435 6.84417 27.487 6.9666 27.3621 7.11789C27.2372 7.26918 27.1468 7.4457 27.0972 7.63523L25.9912 9.62516L23.2365 9.19097L23.3327 4.97847C23.4581 4.18243 23.7463 3.4205 24.1794 2.73982C24.6124 2.05915 25.1812 1.47423 25.8504 1.02126C26.5197 0.568284 27.2752 0.256905 28.0701 0.106389C28.8651 -0.0441258 29.6826 -0.0305734 30.4721 0.146208L30.5473 0.163146C31.8922 0.466085 33.6381 1.44929 34.5494 2.4814L36.2476 4.40442C36.3281 4.49566 36.3819 4.60712 36.4033 4.7267C36.4246 4.84628 36.4127 4.9694 36.3687 5.08268C36.3247 5.19595 36.2503 5.29506 36.1537 5.36922C36.0571 5.44337 35.942 5.48974 35.8208 5.50329L33.4983 5.75847L29.7532 7.09196Z" fill="#2F2E41"/>
<path d="M46.9366 42.2725L43.9618 44.8707C43.9188 44.9082 43.8625 44.9272 43.8054 44.9234C43.7484 44.9197 43.6951 44.8935 43.6574 44.8507C43.6197 44.8079 43.6006 44.7519 43.6043 44.695C43.608 44.6382 43.6342 44.5851 43.6772 44.5475L46.6519 41.9493L46.0826 41.3031L43.1079 43.9013C43.0648 43.9388 43.0086 43.9578 42.9515 43.954C42.8944 43.9503 42.8412 43.9241 42.8035 43.8813C42.7657 43.8384 42.7466 43.7825 42.7503 43.7256C42.754 43.6688 42.7803 43.6157 42.8232 43.5781L45.798 40.9799L45.2287 40.3336L42.2539 42.9318C42.2326 42.9505 42.2079 42.9648 42.181 42.9738C42.1542 42.9829 42.1258 42.9867 42.0975 42.9849C42.0692 42.983 42.0415 42.9757 42.0161 42.9632C41.9906 42.9507 41.9679 42.9333 41.9492 42.9121C41.9305 42.8909 41.9162 42.8662 41.9071 42.8394C41.898 42.8127 41.8942 42.7844 41.8961 42.7563C41.898 42.7281 41.9054 42.7005 41.9179 42.6752C41.9305 42.6499 41.948 42.6273 41.9693 42.6087L44.944 40.0105L44.2324 39.2026L40.0286 42.8743C39.6534 43.2022 39.4026 43.6485 39.3183 44.1384C39.234 44.6284 39.3212 45.1324 39.5654 45.5659L26.8735 56.6513L28.0121 57.9438L40.6957 46.8657C41.0826 47.1698 41.5643 47.3295 42.057 47.3168C42.5498 47.3042 43.0226 47.1202 43.3933 46.7967L47.6482 43.0803L46.9366 42.2725Z" fill="#E6E6E6"/>
<path d="M32.4823 50.1895L32.7897 55.9037C32.8011 56.1138 32.7668 56.324 32.6894 56.5198C32.6119 56.7156 32.493 56.8926 32.3408 57.0386C32.1886 57.1846 32.0066 57.2964 31.8072 57.3662C31.6078 57.436 31.3956 57.4623 31.1851 57.4432C30.8411 57.4121 30.519 57.2615 30.2751 57.0179C30.0312 56.7742 29.881 56.453 29.8508 56.1103L29.2943 49.7926L24.9107 34.9782L25.0436 25.4546L30.2241 25.7191L32.4823 50.1895Z" fill="#FFB9B9"/>
<path d="M30.6226 27.1741C29.0463 25.6685 26.9657 25.6132 24.6451 26.2482V19.1396C24.6451 18.2886 24.9846 17.4725 25.5889 16.8708C26.1931 16.269 27.0127 15.931 27.8674 15.931C28.2607 15.931 28.6501 16.0093 29.0126 16.1613C29.3751 16.3133 29.7034 16.5359 29.9782 16.8161C30.2531 17.0963 30.4689 17.4284 30.6129 17.7928C30.757 18.1573 30.8265 18.5467 30.8172 18.9383L30.6226 27.1741Z" fill="#D98C5F"/>
</svg>
