<svg width="119" height="110" viewBox="0 0 119 110" fill="none" xmlns="http://www.w3.org/2000/svg">
<g clip-path="url(#clip0_4_233)">
<path d="M108.415 88.1274L98.7547 73.775C98.7547 73.775 113.384 78.8835 111.724 88.1274H108.415Z" fill="#E5E5E5"/>
<path d="M8.28093 88.2226L7.91421 88.2155C8.05604 84.137 8.49109 80.074 9.21598 76.0579C10.8018 67.4597 13.4386 61.8127 17.0533 59.274L17.2639 59.5742C8.8199 65.5045 8.28522 87.9961 8.28093 88.2226Z" fill="#E5E5E5"/>
<path d="M12.8649 88.1349L12.4982 88.1277C12.5061 87.7215 12.7353 78.1478 16.5032 75.5016L16.7138 75.8018C13.0979 78.3412 12.8667 88.0373 12.8649 88.1349Z" fill="#E5E5E5"/>
<path d="M19.3502 59.6076C20.3628 59.6076 21.1837 58.7864 21.1837 57.7735C21.1837 56.7606 20.3628 55.9394 19.3502 55.9394C18.3375 55.9394 17.5166 56.7606 17.5166 57.7735C17.5166 58.7864 18.3375 59.6076 19.3502 59.6076Z" fill="#D98C5F"/>
<path d="M18.4421 75.3806C19.4548 75.3806 20.2757 74.5594 20.2757 73.5465C20.2757 72.5336 19.4548 71.7124 18.4421 71.7124C17.4295 71.7124 16.6085 72.5336 16.6085 73.5465C16.6085 74.5594 17.4295 75.3806 18.4421 75.3806Z" fill="#D98C5F"/>
<path d="M12.0102 60.707C12.3548 62.9086 11.4567 64.8778 11.4567 64.8778C11.4567 64.8778 9.99984 63.2774 9.65524 61.0758C9.31065 58.8742 10.2088 56.905 10.2088 56.905C10.2088 56.905 11.6656 58.5054 12.0102 60.707Z" fill="#E5E5E5"/>
<path d="M18.0037 66.054C15.8964 66.777 13.8013 66.2355 13.8013 66.2355C13.8013 66.2355 15.123 64.5217 17.2303 63.7987C19.3377 63.0757 21.4327 63.6172 21.4327 63.6172C21.4327 63.6172 20.111 65.331 18.0037 66.054Z" fill="#E5E5E5"/>
<path d="M18.0714 80.0225C17.1176 80.3222 16.1019 80.366 15.1259 80.1498C15.7456 79.3605 16.5803 78.7674 17.5293 78.4417C18.4784 78.1161 19.5013 78.0719 20.4748 78.3145C19.837 79.0845 19.0082 79.6735 18.0714 80.0225Z" fill="#E5E5E5"/>
<path d="M118.817 88.4942H0.183359C0.134729 88.4942 0.0880938 88.4749 0.0537073 88.4405C0.0193208 88.4061 0 88.3595 0 88.3108C0 88.2622 0.0193208 88.2155 0.0537073 88.1811C0.0880938 88.1467 0.134729 88.1274 0.183359 88.1274H118.817C118.865 88.1274 118.912 88.1467 118.946 88.1811C118.981 88.2155 119 88.2622 119 88.3108C119 88.3595 118.981 88.4061 118.946 88.4405C118.912 88.4749 118.865 88.4942 118.817 88.4942Z" fill="#CBCBCB"/>
<path d="M75.1391 96.9493L73.639 100.855L57.8657 96.9255L60.0796 91.1615L75.1391 96.9493Z" fill="#FFB7B7"/>
<path d="M79.3062 97.4076L74.4694 110L74.3101 109.939C73.0106 109.439 71.9627 108.444 71.3968 107.172C70.8309 105.899 70.7934 104.454 71.2926 103.155L71.2927 103.154L74.2469 95.4632L79.3062 97.4076Z" fill="#2F2E41"/>
<path d="M51.1709 48.0511L44.2971 48.6949L43.9561 69.1526C44.0472 70.1552 44.5272 71.0822 45.2933 71.7351C46.0594 72.388 47.0507 72.7149 48.0547 72.6457L52.4129 72.3454L51.1709 48.0511Z" fill="#E5E5E5"/>
<path d="M75.4041 47.0442L70.7008 46.9837L70.4222 71.2917C71.4615 71.3263 72.4968 71.1464 73.4635 70.7632C74.4303 70.3799 75.3077 69.8015 76.0411 69.064C76.7744 68.3266 77.348 67.4459 77.726 66.4768C78.104 65.5078 78.2784 64.4713 78.2382 63.4319L75.4041 47.0442Z" fill="#E5E5E5"/>
<path d="M48.1135 79.9272C48.0021 80.6322 47.8405 81.3284 47.6297 82.0104C47.3924 82.678 47.026 83.2953 46.809 83.9697C46.1173 86.1195 47.0762 88.5165 48.6077 90.1758C49.9358 91.609 51.6502 92.6273 53.544 93.1077C54.9256 93.4553 56.3622 93.5053 57.786 93.5536C61.7287 93.6874 65.7729 93.807 69.5089 92.5396C70.6892 92.1293 71.8293 91.6112 72.9147 90.9919C73.2574 90.8286 73.5593 90.5908 73.7984 90.2959C74.0834 89.8902 74.1198 89.3639 74.1173 88.868C74.109 87.1962 73.7701 85.5328 73.8505 83.8629C73.8951 82.9379 74.0682 82.0137 73.983 81.0915C73.8651 80.0443 73.4265 79.059 72.7272 78.2707C72.028 77.4823 71.1022 76.9294 70.0767 76.6876C69.0169 76.4599 67.9177 76.584 66.8387 76.6877C64.0379 76.9569 61.2252 77.0827 58.4116 77.0646C55.5368 77.0463 52.6797 76.6073 49.8192 76.5615C48.9733 76.5479 48.9904 76.8088 48.7211 77.6277C48.473 78.3814 48.2702 79.1493 48.1135 79.9272Z" fill="#2F2E41"/>
<path d="M36.872 78.5684C36.099 78.3741 35.3025 78.2894 34.5058 78.3168C33.6688 78.3631 32.8513 78.5871 32.1075 78.9739C31.3638 79.3607 30.7109 79.9014 30.1922 80.5601C29.6736 81.2189 29.3011 81.9805 29.0995 82.7944C28.8979 83.6083 28.8718 84.4558 29.023 85.2805C29.216 86.1739 29.5316 87.0363 29.9606 87.8433C30.5881 89.1171 31.3408 90.388 32.5025 91.2043C33.182 91.6818 33.9685 91.9795 34.7457 92.2724L40.8642 94.5779C41.7643 94.9171 42.6645 95.2563 43.5735 95.5708C48.1402 97.1497 52.9014 98.0965 57.7246 98.3848C59.1938 98.4723 60.6852 98.4966 62.1184 98.1621C62.4585 98.0827 62.8213 97.9643 63.0183 97.6758C63.1349 97.4726 63.2036 97.2454 63.2193 97.0116L63.5958 94.3752C63.6488 94.004 63.6998 93.6132 63.5638 93.2638C63.3913 92.8207 62.959 92.542 62.5468 92.3052C58.5244 89.9943 53.8277 88.7194 50.4419 85.5477C49.6448 84.801 48.9778 83.6175 48.0094 83.1103C46.9112 82.5351 45.6179 82.2069 44.4828 81.6769C42.0013 80.5183 39.5615 79.1868 36.872 78.5684Z" fill="#2F2E41"/>
<path opacity="0.1" d="M42.9804 82.1226C45.143 82.8005 54.2736 87.4965 55.8386 89.1361C55.6288 89.2117 48.5114 85.2219 48.2978 85.1578C46.3565 84.575 44.4044 83.9884 42.5608 83.1355C42.1899 82.9639 40.1514 82.1575 40.2437 81.6894C40.3479 81.1612 42.5965 82.0023 42.9804 82.1226Z" fill="black"/>
<path d="M56.0321 41.1752L50.2093 45.5974C50.2093 45.5974 44.0652 45.7897 44.2728 49.7183C44.4804 53.6469 46.9395 72.2476 46.9395 72.2476L47.473 78.6476L57.5931 81.532C63.0611 83.0904 68.8382 83.2143 74.3679 81.8916L73.1653 75.4709C73.1653 75.4709 78.0351 46.3106 75.1014 45.0268C72.1676 43.7429 70.334 44.1097 70.334 44.1097L66.6568 40.9001L56.0321 41.1752Z" fill="#E5E5E5"/>
<path d="M73.2678 34.0321C73.2678 39.773 67.9609 38.9047 61.4144 38.9047C54.868 38.9047 49.5611 39.773 49.5611 34.0321C49.5611 28.2913 52.1534 18.1152 61.4144 18.1152C70.9946 18.1152 73.2678 28.2913 73.2678 34.0321Z" fill="#2F2E41"/>
<path d="M67.5761 35.9777C70.691 32.862 70.691 27.8104 67.5761 24.6947C64.4612 21.579 59.411 21.579 56.2961 24.6947C53.1812 27.8104 53.1812 32.862 56.2961 35.9777C59.411 39.0934 64.4612 39.0934 67.5761 35.9777Z" fill="#FFB7B7"/>
<path d="M52.1591 30.1341H55.3138L56.7056 26.2361L56.9839 30.1341H58.4917L59.3036 27.8603L59.4659 30.1341H70.6698C70.6698 27.8942 69.7802 25.746 68.1968 24.1621C66.6133 22.5782 64.4657 21.6884 62.2263 21.6884H60.6026C58.3632 21.6884 56.2156 22.5782 54.6321 24.1621C53.0487 25.746 52.1591 27.8942 52.1591 30.1341Z" fill="#2F2E41"/>
<path d="M69.4173 42.0922H53.465V61.3499H69.4173V42.0922Z" fill="#D98C5F"/>
<path d="M54.3441 96.7659L55.8444 100.671L71.6177 96.742L69.4036 90.9781L54.3441 96.7659Z" fill="#FFB7B7"/>
<path d="M55.2363 95.2798L58.1905 102.971L58.1907 102.971C58.6898 104.271 58.6524 105.716 58.0865 106.988C57.5206 108.261 56.4726 109.256 55.1731 109.755L55.0139 109.817L50.177 97.2242L55.2363 95.2798Z" fill="#2F2E41"/>
<path d="M85.8734 77.0735C87.1405 76.7557 88.4541 76.6659 89.7527 76.8084C90.7898 76.9227 91.8583 77.2114 92.6155 77.9294C93.5371 78.8033 93.8332 80.1548 93.858 81.4249C93.8985 83.9544 93.0597 86.4196 91.485 88.3993C91.1004 88.9 90.6431 89.3403 90.1283 89.7057C89.5729 90.0532 88.9809 90.3385 88.3631 90.5565L74.6611 95.9624C71.0564 97.3846 67.439 98.8109 63.6791 99.7484C63.4747 99.8471 63.2394 99.8606 63.0251 99.7858C62.8108 99.711 62.6349 99.5541 62.5362 99.3496C62.5332 99.3434 62.5303 99.3371 62.5274 99.3308C61.3269 97.6155 60.3197 95.7727 59.5243 93.8359C59.4866 93.7899 59.4606 93.7354 59.4484 93.6772C59.4362 93.619 59.4383 93.5587 59.4543 93.5014C59.4704 93.4441 59.5 93.3916 59.5406 93.3482C59.5813 93.3048 59.6318 93.2718 59.6879 93.2521L69.3794 87.6821C70.0736 87.2832 70.7756 86.8785 71.352 86.3227C71.7709 85.9166 72.1138 85.439 72.3648 84.9124C72.5656 84.4926 72.5844 83.5022 72.841 83.192C73.0922 82.8882 73.9517 82.864 74.3486 82.7445C74.9084 82.573 75.4566 82.3657 75.9899 82.1239C78.1578 81.1538 80.0883 79.7443 82.1666 78.6084C83.3322 77.9418 84.5778 77.426 85.8734 77.0735Z" fill="#2F2E41"/>
<path opacity="0.1" d="M80.3791 81.2331C78.7141 82.484 76.5582 83.6339 74.9079 84.9177C74.3447 85.3559 64.9559 90.6357 64.8232 91.337C66.3628 91.5965 76.17 84.7338 77.5732 84.049C78.9763 83.3642 80.2202 82.3985 81.4527 81.4399C81.7669 81.1956 83.098 80.4613 82.1963 80.1884C81.6884 80.0346 80.7541 80.9831 80.3791 81.2331Z" fill="black"/>
<path d="M110.306 32.961C113.471 32.961 116.036 30.3951 116.036 27.23C116.036 24.0648 113.471 21.4989 110.306 21.4989C107.142 21.4989 104.577 24.0648 104.577 27.23C104.577 30.3951 107.142 32.961 110.306 32.961Z" fill="#F1F1F1"/>
<path d="M99.7024 33.9875C101.922 33.9875 103.722 32.1875 103.722 29.9672C103.722 27.7468 101.922 25.9469 99.7024 25.9469C97.4826 25.9469 95.6831 27.7468 95.6831 29.9672C95.6831 32.1875 97.4826 33.9875 99.7024 33.9875Z" fill="#F1F1F1"/>
<path d="M26.0761 31.3649C27.856 31.3649 29.2988 29.9217 29.2988 28.1414C29.2988 26.3611 27.856 24.9178 26.0761 24.9178C24.2962 24.9178 22.8534 26.3611 22.8534 28.1414C22.8534 29.9217 24.2962 31.3649 26.0761 31.3649Z" fill="#F1F1F1"/>
<path d="M31.382 33.5326C32.6305 33.5326 33.6427 32.5202 33.6427 31.2713C33.6427 30.0224 32.6305 29.01 31.382 29.01C30.1334 29.01 29.1213 30.0224 29.1213 31.2713C29.1213 32.5202 30.1334 33.5326 31.382 33.5326Z" fill="#F1F1F1"/>
<path d="M62.6453 4.92825C64.0058 4.92825 65.1087 3.82502 65.1087 2.46412C65.1087 1.10323 64.0058 0 62.6453 0C61.2847 0 60.1818 1.10323 60.1818 2.46412C60.1818 3.82502 61.2847 4.92825 62.6453 4.92825Z" fill="#F1F1F1"/>
<path opacity="0.17" d="M47.9643 54.3805L48.1845 52.6803C48.1845 52.6803 56.3988 53.2801 55.1153 55.2976C53.8317 57.315 50.7146 57.4984 50.7146 57.4984L47.9643 54.3805Z" fill="#2F2E41"/>
<path d="M54.1647 46.9879C54.6353 47.0397 55.0885 47.195 55.4919 47.4428C55.8953 47.6906 56.2389 48.0246 56.4979 48.4209C56.734 48.7825 56.8945 49.1881 56.97 49.6133C57.0454 50.0386 57.0341 50.4747 56.9367 50.8955C56.8394 51.3162 56.6581 51.713 56.4036 52.0619C56.1491 52.4108 55.8268 52.7047 55.4559 52.9259C55.3199 53.0062 55.178 53.076 55.0313 53.1346L49.9823 68.5825C49.836 68.8874 49.6309 69.1602 49.3788 69.3855C49.1268 69.6108 48.8326 69.784 48.5134 69.8952C48.1942 70.0064 47.8561 70.0533 47.5187 70.0334C47.1812 70.0135 46.851 69.927 46.5471 69.779C46.2432 69.631 45.9715 69.4244 45.7477 69.171C45.5238 68.9176 45.3523 68.6225 45.2429 68.3026C45.1335 67.9826 45.0884 67.6443 45.1101 67.3068C45.1319 66.9694 45.2201 66.6396 45.3698 66.3364L50.7393 51.06C50.593 50.5546 50.5735 50.0208 50.6826 49.5061C50.7917 48.9913 51.026 48.5114 51.3646 48.1088C51.7033 47.7061 52.136 47.3932 52.6244 47.1977C53.1128 47.0022 53.6419 46.9301 54.1647 46.9879Z" fill="#FFB7B7"/>
<path d="M48.0396 52.8252C48.0396 52.8252 50.9327 57.7693 55.1153 55.2975L51.0618 70.8135H47.6466L44.1137 70.1535L45.1029 63.7429L48.0396 52.8252Z" fill="#E5E5E5"/>
<path d="M68.6968 56.2045L66.3002 52.9133C66.3002 52.9133 67.4521 49.4995 71.9185 50.7479C71.9185 50.7479 74.7607 57.1114 68.6968 56.2045Z" fill="#E5E5E5"/>
<path opacity="0.17" d="M68.6968 56.2045L66.3002 52.9133C66.3002 52.9133 67.4521 49.4995 71.9185 50.7479C71.9185 50.7479 74.7607 57.1114 68.6968 56.2045Z" fill="#2F2E41"/>
<path d="M69.3314 44.7056C70.0228 45.0271 70.5759 45.5862 70.89 46.2811C71.2041 46.9761 71.2583 47.7607 71.0429 48.4923L76.4124 63.7688C76.562 64.072 76.6503 64.4018 76.6721 64.7392C76.6939 65.0766 76.6488 65.415 76.5394 65.735C76.43 66.0549 76.2584 66.3501 76.0346 66.6035C75.8107 66.8569 75.5391 67.0635 75.2351 67.2115C74.9312 67.3595 74.601 67.446 74.2635 67.4659C73.926 67.4858 73.588 67.4388 73.2687 67.3276C72.9495 67.2164 72.6554 67.0432 72.4033 66.8179C72.1512 66.5926 71.9461 66.3197 71.7998 66.0149L66.7508 50.5669C66.6042 50.5083 66.4622 50.4385 66.3262 50.3582C65.9554 50.137 65.633 49.8431 65.3786 49.4942C65.1241 49.1453 64.9427 48.7486 64.8454 48.3278C64.7481 47.907 64.7368 47.4709 64.8122 47.0457C64.8876 46.6204 65.0482 46.2148 65.2842 45.8532C65.5433 45.4569 65.8869 45.1229 66.2903 44.8751C66.6937 44.6274 67.1469 44.472 67.6174 44.4202C68.2042 44.3537 68.7978 44.4525 69.3314 44.7056Z" fill="#FFB7B7"/>
<path d="M66.3002 52.9133C66.3002 52.9133 70.2544 55.3132 71.9185 50.7479L77.4905 65.423L75.8348 68.3194L75.5954 68.3394C74.6077 68.4218 73.6147 68.2631 72.7018 67.877C71.7889 67.4909 70.9833 66.8889 70.3543 66.1227C69.0713 64.56 68.1978 62.702 67.813 60.7168L66.3002 52.9133Z" fill="#E5E5E5"/>
</g>
<defs>
<clipPath id="clip0_4_233">
<rect width="119" height="110" fill="white"/>
</clipPath>
</defs>
</svg>
