<svg width="131" height="95" viewBox="0 0 131 95" fill="none" xmlns="http://www.w3.org/2000/svg">
<path d="M83.4798 71.2186V94.1192H26.1323C19.5983 94.1192 14.2822 88.9824 14.2822 82.6689C14.2822 76.3553 19.5983 71.2186 26.1323 71.2186H83.4798Z" fill="#F2F2F2"/>
<path d="M84.8884 93.943C84.8883 94.1766 84.7955 94.4006 84.6304 94.5657C84.4653 94.7309 84.2415 94.8237 84.008 94.8238H25.1108C21.912 94.8238 18.8442 93.5525 16.5823 91.2895C14.3204 89.0265 13.0497 85.9573 13.0497 82.757C13.0497 79.5566 14.3204 76.4874 16.5823 74.2244C18.8442 71.9614 21.912 70.6901 25.1108 70.6901H84.008C84.2415 70.6901 84.4654 70.7829 84.6305 70.9481C84.7956 71.1132 84.8884 71.3373 84.8884 71.5709C84.8884 71.8045 84.7956 72.0285 84.6305 72.1937C84.4654 72.3589 84.2415 72.4517 84.008 72.4517H25.1108C22.379 72.4517 19.759 73.5374 17.8273 75.47C15.8956 77.4026 14.8104 80.0238 14.8104 82.757C14.8104 85.4901 15.8956 88.1113 17.8273 90.0439C19.759 91.9765 22.379 93.0622 25.1108 93.0622H84.008C84.2415 93.0623 84.4653 93.1552 84.6304 93.3203C84.7955 93.4855 84.8883 93.7095 84.8884 93.943Z" fill="#D98C5F"/>
<path d="M83.4798 76.5033H21.8534C21.8067 76.5033 21.762 76.4848 21.7289 76.4517C21.6959 76.4187 21.6774 76.3739 21.6774 76.3272C21.6774 76.2804 21.6959 76.2356 21.7289 76.2026C21.762 76.1696 21.8067 76.151 21.8534 76.151H83.4798C83.5265 76.151 83.5713 76.1696 83.6043 76.2026C83.6373 76.2356 83.6559 76.2804 83.6559 76.3272C83.6559 76.3739 83.6373 76.4187 83.6043 76.4517C83.5713 76.4848 83.5265 76.5033 83.4798 76.5033Z" fill="#CCCCCC"/>
<path d="M83.4798 80.7311H21.8534C21.8067 80.7311 21.762 80.7126 21.7289 80.6795C21.6959 80.6465 21.6774 80.6017 21.6774 80.555C21.6774 80.5083 21.6959 80.4635 21.7289 80.4304C21.762 80.3974 21.8067 80.3788 21.8534 80.3788H83.4798C83.5265 80.3788 83.5713 80.3974 83.6043 80.4304C83.6373 80.4635 83.6559 80.5083 83.6559 80.555C83.6559 80.6017 83.6373 80.6465 83.6043 80.6795C83.5713 80.7126 83.5265 80.7311 83.4798 80.7311Z" fill="#CCCCCC"/>
<path d="M83.4798 84.9589H21.8534C21.8067 84.9589 21.762 84.9404 21.7289 84.9073C21.6959 84.8743 21.6774 84.8295 21.6774 84.7828C21.6774 84.7361 21.6959 84.6913 21.7289 84.6582C21.762 84.6252 21.8067 84.6066 21.8534 84.6066H83.4798C83.5265 84.6066 83.5713 84.6252 83.6043 84.6582C83.6373 84.6913 83.6559 84.7361 83.6559 84.7828C83.6559 84.8295 83.6373 84.8743 83.6043 84.9073C83.5713 84.9404 83.5265 84.9589 83.4798 84.9589Z" fill="#CCCCCC"/>
<path d="M83.4798 89.1868H21.8534C21.8067 89.1868 21.762 89.1682 21.7289 89.1352C21.6959 89.1021 21.6774 89.0573 21.6774 89.0106C21.6774 88.9639 21.6959 88.9191 21.7289 88.886C21.762 88.853 21.8067 88.8344 21.8534 88.8344H83.4798C83.5265 88.8344 83.5713 88.853 83.6043 88.886C83.6373 88.9191 83.6559 88.9639 83.6559 89.0106C83.6559 89.0573 83.6373 89.1021 83.6043 89.1352C83.5713 89.1682 83.5265 89.1868 83.4798 89.1868Z" fill="#CCCCCC"/>
<path d="M127.801 75.5293L113.439 93.3616L68.7841 57.3635C63.6962 53.262 62.7781 45.9251 66.7374 41.0088C70.6968 36.0926 78.0577 35.4297 83.1456 39.5312L127.801 75.5293Z" fill="#F2F2F2"/>
<path d="M114.647 94.1086C114.5 94.2904 114.288 94.4066 114.055 94.4316C113.823 94.4566 113.591 94.3883 113.409 94.2418L67.5468 57.271C65.056 55.263 63.4644 52.3474 63.1223 49.1654C62.7801 45.9834 63.7154 42.7958 65.7225 40.3037C67.7295 37.8117 70.6437 36.2194 73.8242 35.8771C77.0047 35.5348 80.1908 36.4706 82.6817 38.4785L128.544 75.4494C128.634 75.5219 128.709 75.6115 128.764 75.713C128.82 75.8146 128.855 75.926 128.867 76.0411C128.879 76.1561 128.869 76.2725 128.837 76.3835C128.804 76.4946 128.75 76.5981 128.677 76.6882C128.605 76.7783 128.515 76.8532 128.414 76.9086C128.312 76.9641 128.201 76.999 128.086 77.0113C127.971 77.0237 127.854 77.0132 127.743 76.9806C127.632 76.9479 127.529 76.8937 127.439 76.8211L81.5769 39.8502C80.5237 39.0005 79.3135 38.3667 78.0153 37.985C76.7172 37.6034 75.3567 37.4813 74.0114 37.6258C72.6661 37.7703 71.3625 38.1786 70.175 38.8273C68.9874 39.476 67.9393 40.3524 67.0904 41.4065C66.2414 42.4605 65.6084 43.6716 65.2274 44.9705C64.8465 46.2693 64.725 47.6306 64.87 48.9764C65.015 50.3223 65.4235 51.6264 66.0724 52.8142C66.7212 54.0021 67.5976 55.0504 68.6515 55.8993L114.514 92.8701C114.695 93.0168 114.811 93.2296 114.836 93.4618C114.861 93.694 114.793 93.9267 114.647 94.1086Z" fill="#CCCCCC"/>
<path d="M124.487 79.6445L76.4996 40.9605C76.4816 40.9459 76.4666 40.928 76.4555 40.9077C76.4444 40.8874 76.4374 40.8651 76.435 40.8421C76.4325 40.8191 76.4346 40.7959 76.4411 40.7737C76.4476 40.7515 76.4584 40.7308 76.4729 40.7128C76.4874 40.6947 76.5054 40.6798 76.5256 40.6687C76.5459 40.6576 76.5682 40.6506 76.5912 40.6481C76.6142 40.6457 76.6375 40.6477 76.6596 40.6543C76.6818 40.6608 76.7025 40.6716 76.7205 40.6861L124.708 79.3701C124.726 79.3846 124.741 79.4025 124.752 79.4229C124.763 79.4432 124.77 79.4655 124.772 79.4885C124.775 79.5115 124.773 79.5348 124.766 79.557C124.76 79.5792 124.749 79.5999 124.735 79.618C124.72 79.636 124.702 79.651 124.682 79.6621C124.661 79.6732 124.639 79.6801 124.616 79.6826C124.593 79.6851 124.57 79.683 124.548 79.6764C124.525 79.6699 124.505 79.659 124.487 79.6445V79.6445Z" fill="#CCCCCC"/>
<path d="M121.835 82.9366L73.8482 44.2526C73.8119 44.2232 73.7887 44.1807 73.7838 44.1343C73.7788 44.0878 73.7925 44.0414 73.8218 44.005C73.851 43.9687 73.8935 43.9454 73.9399 43.9404C73.9863 43.9354 74.0328 43.949 74.0692 43.9782L122.056 82.6622C122.074 82.6767 122.089 82.6946 122.101 82.715C122.112 82.7353 122.119 82.7576 122.121 82.7806C122.124 82.8036 122.122 82.8269 122.115 82.8491C122.109 82.8713 122.098 82.892 122.083 82.9101C122.069 82.9281 122.051 82.9431 122.03 82.9542C122.01 82.9653 121.988 82.9722 121.965 82.9747C121.942 82.9772 121.919 82.9751 121.896 82.9685C121.874 82.962 121.853 82.9511 121.835 82.9366Z" fill="#CCCCCC"/>
<path d="M119.184 86.2287L71.1969 47.5447C71.1605 47.5154 71.1373 47.4728 71.1323 47.4264C71.1273 47.3799 71.1409 47.3334 71.1702 47.297C71.1995 47.2606 71.2421 47.2374 71.2885 47.2324C71.3349 47.2274 71.3814 47.241 71.4178 47.2703L119.405 85.9544C119.423 85.9689 119.438 85.9868 119.449 86.0071C119.46 86.0274 119.467 86.0497 119.47 86.0727C119.472 86.0957 119.47 86.1189 119.463 86.1411C119.457 86.1633 119.446 86.184 119.432 86.2021C119.417 86.2201 119.399 86.2351 119.379 86.2461C119.359 86.2572 119.336 86.2642 119.313 86.2667C119.29 86.2691 119.267 86.2671 119.245 86.2606C119.223 86.254 119.202 86.2432 119.184 86.2287V86.2287Z" fill="#CCCCCC"/>
<path d="M116.533 89.5208L68.5455 50.8368C68.5275 50.8223 68.5125 50.8044 68.5015 50.7841C68.4904 50.7638 68.4834 50.7415 68.4809 50.7185C68.4784 50.6955 68.4805 50.6722 68.487 50.65C68.4936 50.6278 68.5044 50.6071 68.5189 50.5891C68.5334 50.5711 68.5513 50.5561 68.5716 50.545C68.5919 50.5339 68.6142 50.527 68.6371 50.5245C68.6601 50.522 68.6834 50.5241 68.7056 50.5306C68.7278 50.5371 68.7484 50.5479 68.7665 50.5625L116.754 89.2465C116.772 89.261 116.787 89.2789 116.798 89.2992C116.809 89.3195 116.816 89.3418 116.818 89.3648C116.821 89.3878 116.819 89.4111 116.812 89.4333C116.806 89.4556 116.795 89.4763 116.78 89.4943C116.766 89.5123 116.748 89.5273 116.728 89.5384C116.707 89.5495 116.685 89.5565 116.662 89.5589C116.639 89.5614 116.616 89.5593 116.594 89.5528C116.571 89.5462 116.551 89.5354 116.533 89.5208Z" fill="#CCCCCC"/>
<path d="M130.824 95H0.176075C0.129377 95 0.0845916 94.9814 0.0515711 94.9484C0.0185506 94.9154 0 94.8706 0 94.8238C0 94.7771 0.0185506 94.7323 0.0515711 94.6993C0.0845916 94.6662 0.129377 94.6477 0.176075 94.6477H130.824C130.871 94.6477 130.915 94.6662 130.948 94.6993C130.981 94.7323 131 94.7771 131 94.8238C131 94.8706 130.981 94.9154 130.948 94.9484C130.915 94.9814 130.871 95 130.824 95Z" fill="#CCCCCC"/>
<path d="M59.5277 68.8115L57.5148 68.8113L56.5575 61.0435L59.5284 61.0438L59.5277 68.8115Z" fill="#FFB8B8"/>
<path d="M56.0769 68.2359H59.9589V70.6814H53.6326C53.6326 70.3602 53.6958 70.0422 53.8187 69.7455C53.9415 69.4488 54.1215 69.1793 54.3485 68.9522C54.5755 68.7251 54.8449 68.545 55.1415 68.4221C55.438 68.2992 55.7559 68.2359 56.0769 68.2359Z" fill="#2F2E41"/>
<path d="M38.963 68.8115L36.9501 68.8113L35.9928 61.0435L38.9637 61.0438L38.963 68.8115Z" fill="#FFB8B8"/>
<path d="M35.5122 68.2359H39.3943V70.6814H33.068C33.068 70.3602 33.1312 70.0422 33.254 69.7455C33.3769 69.4488 33.5569 69.1793 33.7839 68.9522C34.0109 68.7251 34.2803 68.545 34.5769 68.4221C34.8734 68.2992 35.1913 68.2359 35.5122 68.2359Z" fill="#2F2E41"/>
<path d="M45.6864 11.1919V10.3111C45.6864 8.80437 46.2847 7.35936 47.3496 6.29394C48.4145 5.22852 49.8588 4.62997 51.3648 4.62997H51.3648C52.8708 4.62997 54.3152 5.22852 55.3801 6.29394C56.445 7.35936 57.0433 8.80437 57.0433 10.3111V11.1919C57.0433 12.2781 56.612 13.3199 55.8442 14.088C55.0765 14.8561 54.0352 15.2876 52.9495 15.2876H49.7802C49.2426 15.2876 48.7102 15.1817 48.2136 14.9758C47.7169 14.77 47.2656 14.4683 46.8854 14.088C46.5053 13.7077 46.2038 13.2562 45.998 12.7593C45.7923 12.2623 45.6864 11.7298 45.6864 11.1919Z" fill="#2F2E41"/>
<path d="M51.3648 15.5907C53.7532 15.5907 55.6894 13.6536 55.6894 11.264C55.6894 8.87448 53.7532 6.93738 51.3648 6.93738C48.9764 6.93738 47.0402 8.87448 47.0402 11.264C47.0402 13.6536 48.9764 15.5907 51.3648 15.5907Z" fill="#FFB8B8"/>
<path d="M27.8418 26.1341C28.0173 25.9683 28.227 25.8431 28.4561 25.7671C28.6853 25.6912 28.9283 25.6664 29.168 25.6946C29.4077 25.7228 29.6383 25.8032 29.8436 25.9302C30.0489 26.0572 30.2239 26.2277 30.3562 26.4296L34.0634 25.728L35.039 27.878L29.7899 28.7952C29.436 28.9951 29.0211 29.0582 28.6239 28.9725C28.2266 28.8868 27.8746 28.6583 27.6344 28.3303C27.3943 28.0023 27.2828 27.5976 27.321 27.1928C27.3593 26.788 27.5446 26.4114 27.8418 26.1341V26.1341Z" fill="#FFB8B8"/>
<path d="M47.9933 18.3155L48.0418 18.389L41.9626 22.3956L31.7048 25.6727C31.5688 25.7164 31.4522 25.8059 31.3747 25.926C31.2973 26.0461 31.2639 26.1893 31.2801 26.3312L31.5039 28.2596C31.5138 28.3449 31.5414 28.4273 31.585 28.5013C31.6286 28.5753 31.6872 28.6394 31.757 28.6895C31.8268 28.7396 31.9062 28.7745 31.9903 28.792C32.0744 28.8095 32.1612 28.8093 32.2452 28.7913L41.8993 26.721C42.3666 26.6213 42.8083 26.4267 43.1973 26.1492L50.0269 21.2878C50.2745 21.1106 50.472 20.8723 50.6003 20.5961C50.7286 20.3199 50.7833 20.0152 50.759 19.7116C50.734 19.4076 50.6303 19.1154 50.4581 18.8636C50.2859 18.6119 50.0512 18.4093 49.777 18.2759C49.5028 18.1424 49.1987 18.0826 48.8944 18.1025C48.5902 18.1223 48.2963 18.221 48.0418 18.389L47.9933 18.3155Z" fill="#CCCCCC"/>
<path d="M57.5508 66.6072C57.3963 66.6072 57.2451 66.5622 57.1157 66.4777C56.9863 66.3932 56.8844 66.2729 56.8222 66.1314L47.5941 43.3186C47.5726 43.2691 47.5364 43.2274 47.4905 43.1991C47.4445 43.1708 47.391 43.1573 47.3372 43.1603C47.2833 43.1634 47.2317 43.1828 47.1892 43.2161C47.1467 43.2494 47.1155 43.2949 47.0996 43.3465L39.5709 65.5555C39.5391 65.6589 39.4866 65.7546 39.4164 65.8369C39.3463 65.9192 39.2601 65.9862 39.1631 66.0339C39.0661 66.0816 38.9603 66.109 38.8524 66.1143C38.7444 66.1196 38.6365 66.1027 38.5353 66.0648L36.0107 65.1176C35.8737 65.0666 35.7534 64.9787 35.6634 64.8635C35.5733 64.7483 35.517 64.6103 35.5006 64.465C34.3648 54.5662 44.2692 29.5803 44.3694 29.3291L44.3971 29.2595L53.4257 31.2577L53.4445 31.2781C57.0466 35.2096 60.0074 60.0065 60.5644 64.9375C60.5852 65.1156 60.5447 65.2955 60.4496 65.4474C60.3545 65.5994 60.2105 65.7145 60.0413 65.7736L57.8128 66.5621C57.7287 66.592 57.64 66.6072 57.5508 66.6072Z" fill="#2F2E41"/>
<path d="M49.7716 32.0619C47.5842 32.0619 45.1454 31.6256 44.3947 29.8246L44.3774 29.7832L44.4007 29.7448C44.9933 28.7722 45.7764 27.113 45.3555 26.8015C44.5263 26.1881 44.1239 25.1791 44.1597 23.8023C44.2372 20.8136 46.2727 18.1602 49.2246 17.1995H49.2247C50.0486 16.9356 50.8872 16.7196 51.736 16.5525C52.3549 16.4276 52.9937 16.4413 53.6066 16.5928C54.2195 16.7442 54.7913 17.0296 55.2809 17.4283C55.7766 17.8297 56.1773 18.336 56.4542 18.9108C56.7311 19.4855 56.8774 20.1145 56.8824 20.7526C56.9134 23.9465 56.4219 28.3949 53.9046 31.449C53.7866 31.5907 53.6225 31.6862 53.441 31.7187C52.23 31.9379 51.0023 32.0527 49.7716 32.0619Z" fill="#CCCCCC"/>
<path d="M48.9579 31.9423C49.077 31.5151 49.3597 31.1521 49.7448 30.9323C50.1298 30.7125 50.586 30.6536 51.0142 30.7684C51.1016 30.7928 51.1869 30.8244 51.2691 30.8628L54.084 28.2999L56.0416 29.6194L52.0162 33.1833C51.8344 33.5111 51.5483 33.7688 51.2033 33.9152C50.8583 34.0616 50.4742 34.0884 50.1123 33.9912C49.9014 33.9335 49.7041 33.8345 49.5317 33.7C49.3593 33.5655 49.2153 33.3982 49.108 33.2076C49.0006 33.0171 48.9321 32.8072 48.9063 32.59C48.8806 32.3728 48.8981 32.1527 48.9579 31.9423Z" fill="#FFB8B8"/>
<path d="M53.6381 31.9749C53.4555 31.975 53.2784 31.9118 53.1371 31.796L52.0271 30.8885C51.9345 30.8128 51.8603 30.7172 51.8099 30.6088C51.7596 30.5004 51.7344 30.382 51.7362 30.2624C51.738 30.1429 51.7669 30.0253 51.8206 29.9185C51.8743 29.8117 51.9514 29.7184 52.0463 29.6457L56.702 26.0732C56.7572 26.0306 56.7934 25.968 56.8027 25.8989C56.812 25.8299 56.7938 25.7599 56.7519 25.7042L53.8783 21.9034C53.5444 21.4632 53.377 20.9191 53.4056 20.3674C53.4342 19.8156 53.657 19.2917 54.0345 18.8885C54.4322 18.4589 54.9768 18.1944 55.5602 18.1478C56.1436 18.1011 56.7233 18.2755 57.1841 18.6365L57.2023 18.6557L60.203 22.9544C60.5275 23.2089 60.7887 23.535 60.9664 23.9073C61.1441 24.2796 61.2333 24.6879 61.2272 25.1003C61.221 25.5128 61.1197 25.9183 60.931 26.2851C60.7423 26.6519 60.4715 26.9701 60.1396 27.2149L54.1098 31.8194C53.9732 31.9204 53.8079 31.9749 53.6381 31.9749Z" fill="#CCCCCC"/>
<path d="M47.5342 10.0469V7.90016L51.3648 6.22665L55.0174 7.90016V10.0469C55.0174 10.1403 54.9803 10.2299 54.9143 10.296C54.8482 10.3621 54.7586 10.3992 54.6652 10.3992H47.8864C47.793 10.3992 47.7034 10.3621 47.6374 10.296C47.5713 10.2299 47.5342 10.1403 47.5342 10.0469Z" fill="#2F2E41"/>
<path d="M51.189 4.91476C50.6257 3.11116 51.8086 1.04414 53.5573 0.330229C55.306 -0.383684 57.3981 0.115363 58.8737 1.29486C60.3492 2.47435 61.2647 4.24101 61.7498 6.06721C62.2349 7.8934 62.327 9.79769 62.4165 11.6852C64.565 12.08 66.0266 14.6295 65.2823 16.6842C64.538 18.739 61.7832 19.7598 59.8807 18.6858C57.9782 17.6119 57.4271 14.725 58.8002 13.0252C59.4499 12.2209 59.8128 11.2227 59.8315 10.1888C59.8502 9.15481 59.5235 8.14418 58.9033 7.31694C58.283 6.48969 57.4046 5.89313 56.4073 5.62172C55.4099 5.35032 54.3505 5.41959 53.3969 5.81857C52.338 6.2616 51.0094 5.11052 51.189 4.91476Z" fill="#2F2E41"/>
<path d="M27.0477 17.8066C24.4753 17.7897 21.9351 17.2331 19.5912 16.1728C19.4517 16.1106 19.3332 16.0091 19.2503 15.8807C19.1674 15.7524 19.1236 15.6026 19.1243 15.4498V9.03448C19.1245 8.82431 19.2081 8.62281 19.3566 8.4742C19.5051 8.32558 19.7065 8.24199 19.9166 8.24176H34.1787C34.3888 8.242 34.5902 8.32559 34.7387 8.4742C34.8873 8.62281 34.9708 8.82431 34.971 9.03448V15.4498C34.9717 15.6027 34.9279 15.7524 34.845 15.8807C34.7621 16.0091 34.6436 16.1106 34.5041 16.1728C32.1602 17.2331 29.62 17.7897 27.0477 17.8066Z" fill="#D98C5F"/>
<path d="M27.0457 12.6094C26.94 12.6095 26.8353 12.5885 26.7378 12.5475L15.4281 7.77366C15.2823 7.7121 15.1582 7.60825 15.0719 7.47549C14.9856 7.34273 14.941 7.18715 14.9439 7.0288C14.9468 6.87046 14.9971 6.71662 15.0882 6.58711C15.1793 6.4576 15.3071 6.35837 15.4551 6.3022L26.7649 2.00961C26.9471 1.94015 27.1485 1.94058 27.3303 2.01081L38.4886 6.30339C38.6358 6.36002 38.7627 6.45928 38.8532 6.58847C38.9436 6.71767 38.9935 6.87094 38.9964 7.02865C38.9993 7.18637 38.9551 7.34137 38.8695 7.47383C38.7839 7.60628 38.6607 7.71017 38.5157 7.77219L27.3573 12.5459C27.2588 12.5879 27.1528 12.6095 27.0457 12.6094Z" fill="#D98C5F"/>
<path d="M20.4448 16.6093C21.0283 16.6093 21.5013 16.1361 21.5013 15.5523C21.5013 14.9686 21.0283 14.4954 20.4448 14.4954C19.8614 14.4954 19.3884 14.9686 19.3884 15.5523C19.3884 16.1361 19.8614 16.6093 20.4448 16.6093Z" fill="#3F3D56"/>
<path opacity="0.2" d="M38.5543 7.09459L27.3958 11.8683C27.3089 11.9056 27.2153 11.9249 27.1207 11.9251C27.026 11.9253 26.9324 11.9065 26.8452 11.8697L15.5355 7.09599C15.3935 7.03746 15.275 6.93326 15.1988 6.79985C15.1489 6.88636 15.118 6.9825 15.1081 7.08188C15.0982 7.18126 15.1096 7.28161 15.1414 7.37626C15.1733 7.47091 15.2249 7.5577 15.2928 7.63086C15.3608 7.70403 15.4435 7.76189 15.5355 7.80062L26.8452 12.5743C26.9324 12.6111 27.026 12.63 27.1207 12.6297C27.2153 12.6295 27.3089 12.6102 27.3958 12.573L38.5543 7.79922C38.6458 7.76016 38.728 7.70211 38.7955 7.62891C38.863 7.55571 38.9142 7.46903 38.9457 7.37458C38.9772 7.28014 38.9884 7.18007 38.9784 7.081C38.9684 6.98193 38.9376 6.8861 38.8879 6.79984C38.8122 6.93218 38.6949 7.0358 38.5543 7.09459Z" fill="black"/>
<path d="M20.5336 15.5482C20.5803 15.5482 20.6251 15.5297 20.6581 15.4966C20.6911 15.4636 20.7097 15.4188 20.7097 15.3721V9.47753L26.5169 7.36095C26.5636 7.36165 26.6086 7.34376 26.6421 7.31121C26.6756 7.27867 26.6949 7.23414 26.6956 7.18742C26.6962 7.1407 26.6784 7.09562 26.6458 7.06209C26.6133 7.02856 26.5688 7.00933 26.5221 7.00864L20.7149 9.12521C20.6682 9.12413 20.6217 9.13256 20.5783 9.14998C20.535 9.16739 20.4956 9.19344 20.4625 9.22654C20.4292 9.25923 20.4027 9.29829 20.3846 9.3414C20.3666 9.38451 20.3574 9.43079 20.3575 9.47753V15.3721C20.3575 15.4188 20.3761 15.4636 20.4091 15.4966C20.4421 15.5296 20.4869 15.5482 20.5336 15.5482Z" fill="#3F3D56"/>
</svg>
