<svg width="145" height="110" viewBox="0 0 145 110" fill="none" xmlns="http://www.w3.org/2000/svg">
<path d="M68.14 92.3426C68.14 92.3426 69.9854 89.3031 72.3548 91.1002C74.7241 92.8973 79.112 95.9295 79.112 95.9295C79.112 95.9295 80.0107 97.869 77.6846 97.1405C75.3586 96.412 67.7651 95.2397 67.7651 95.2397L68.14 92.3426Z" fill="#FEB8B8"/>
<path d="M16.5656 73.0398C17.1537 68.2925 20.0845 63.6151 24.5946 62.0702C22.8159 66.9565 22.8163 72.3168 24.5957 77.2028C25.2887 79.0846 26.2547 81.1052 25.6028 83.0018C25.1972 84.182 24.205 85.0849 23.0959 85.6494C21.9867 86.214 20.7558 86.483 19.5402 86.7467L19.301 86.9454C17.3713 82.5713 15.9775 77.787 16.5656 73.0398Z" fill="#F0F0F0"/>
<path d="M24.6393 62.16C22.0129 65.1142 20.3805 68.824 19.974 72.7626C19.8715 73.6089 19.9025 74.4662 20.0659 75.3028C20.2513 76.1126 20.6494 76.8578 21.2187 77.461C21.7383 78.0341 22.3359 78.5599 22.7077 79.2498C22.8928 79.6058 23.0008 79.997 23.0247 80.3978C23.0486 80.7987 22.9878 81.2 22.8463 81.5756C22.5181 82.5207 21.8712 83.2911 21.2124 84.0223C20.481 84.8342 19.7085 85.6659 19.3976 86.7423C19.3599 86.8727 19.1606 86.8064 19.1982 86.6762C19.7391 84.8035 21.55 83.7397 22.4136 82.053C22.8166 81.266 22.9857 80.3522 22.608 79.5214C22.2776 78.7949 21.6618 78.2521 21.1307 77.6764C20.5667 77.0962 20.1528 76.3862 19.9252 75.6084C19.7199 74.7828 19.656 73.9282 19.7363 73.0811C19.8868 71.1711 20.3355 69.2968 21.066 67.5268C21.8886 65.502 23.0501 63.6334 24.5003 62.0019C24.5902 61.9009 24.7285 62.0597 24.6393 62.16Z" fill="white"/>
<path d="M20.0305 71.4866C19.3815 71.3285 18.8096 70.9439 18.417 70.4015C18.0244 69.8591 17.8367 69.1943 17.8873 68.5258C17.898 68.3906 18.1078 68.4009 18.0971 68.5363C18.0488 69.1588 18.2238 69.778 18.5904 70.2823C18.957 70.7866 19.4911 71.1427 20.0964 71.2864C20.2278 71.3178 20.1612 71.5178 20.0305 71.4866Z" fill="white"/>
<path d="M20.9171 77.2052C22.0893 76.5026 22.9546 75.3823 23.3405 74.0677C23.3787 73.9374 23.5781 74.0037 23.54 74.1338C23.1358 75.5011 22.233 76.6651 21.0116 77.3936C20.8951 77.4629 20.8013 77.2742 20.9171 77.2052Z" fill="white"/>
<path d="M22.0834 65.7017C22.3219 65.8154 22.5847 65.8679 22.8483 65.8545C23.1119 65.8411 23.3681 65.7621 23.5938 65.6248C23.7093 65.554 23.803 65.7427 23.6882 65.8131C23.4382 65.9637 23.1551 66.0505 22.8639 66.066C22.5727 66.0815 22.2821 66.0252 22.0176 65.9019C21.9917 65.8924 21.9704 65.8733 21.958 65.8486C21.9455 65.8239 21.943 65.7953 21.9508 65.7688C21.9596 65.7423 21.9785 65.7204 22.0034 65.7079C22.0282 65.6953 22.057 65.6931 22.0834 65.7017Z" fill="white"/>
<path d="M38.3418 70.5494C38.2709 70.5956 38.2 70.6419 38.1291 70.69C37.1792 71.317 36.2817 72.0204 35.4454 72.7933C35.3798 72.852 35.3142 72.9125 35.2504 72.973C33.2552 74.8566 31.6258 77.0958 30.4448 79.5766C29.9758 80.5642 29.5824 81.5862 29.2678 82.6337C28.8335 84.0804 28.4772 85.6837 27.6175 86.867C27.5292 86.9915 27.4333 87.1104 27.3303 87.2229H19.5609C19.5433 87.214 19.5255 87.2069 19.5078 87.198L19.1976 87.2122C19.21 87.1571 19.2241 87.1001 19.2366 87.045C19.2437 87.0129 19.2525 86.9809 19.2596 86.9489C19.2649 86.9275 19.2703 86.9062 19.2738 86.8866C19.2755 86.8795 19.2774 86.8724 19.2791 86.867C19.2826 86.8475 19.288 86.8297 19.2916 86.8119C19.3695 86.4933 19.4499 86.1748 19.5326 85.8563C19.5326 85.8545 19.5326 85.8545 19.5343 85.8527C20.1708 83.4273 21.0145 81.034 22.1933 78.8452C22.2288 78.7794 22.2642 78.7118 22.3032 78.6459C22.84 77.6623 23.456 76.7244 24.145 75.8415C24.5238 75.3593 24.9267 74.8966 25.3521 74.4553C26.4536 73.3171 27.7265 72.3599 29.1242 71.6188C31.9108 70.1419 35.1369 69.576 38.115 70.4782C38.1911 70.5013 38.2656 70.5245 38.3418 70.5494Z" fill="#F0F0F0"/>
<path d="M38.3244 70.6484C34.4555 71.4198 30.9271 73.3952 28.2404 76.2943C27.6509 76.9081 27.1615 77.6113 26.7903 78.3781C26.4526 79.1367 26.3235 79.9723 26.4163 80.798C26.4875 81.5696 26.6493 82.3506 26.5324 83.1262C26.4666 83.5223 26.3183 83.8999 26.0969 84.2344C25.8756 84.5689 25.5864 84.8527 25.2481 85.067C24.4192 85.6233 23.4407 85.8473 22.4761 86.033C21.4052 86.2392 20.2896 86.4364 19.3958 87.1079C19.2875 87.1893 19.1681 87.0158 19.2762 86.9346C20.8313 85.7663 22.9152 86.0114 24.6163 85.1866C25.4101 84.8018 26.0932 84.1745 26.2898 83.2828C26.4618 82.503 26.2956 81.6975 26.2169 80.9168C26.1145 80.1127 26.2099 79.2956 26.4946 78.537C26.8258 77.7537 27.2874 77.0327 27.8596 76.4049C29.1253 74.9709 30.6077 73.7455 32.2525 72.7738C34.1236 71.6543 36.1717 70.8643 38.3082 70.4381C38.4405 70.4118 38.4557 70.6222 38.3244 70.6484H38.3244Z" fill="white"/>
<path d="M29.0507 75.3096C28.6274 74.7911 28.4015 74.1384 28.4133 73.468C28.4251 72.7977 28.6739 72.1534 29.1153 71.6502C29.2049 71.5487 29.3663 71.6838 29.2765 71.7855C28.8646 72.2533 28.6329 72.8534 28.6232 73.4777C28.6135 74.1019 28.8263 74.7091 29.2234 75.1896C29.3096 75.2941 29.1364 75.4136 29.0507 75.3096H29.0507Z" fill="white"/>
<path d="M26.3289 80.4115C27.6862 80.559 29.0491 80.1875 30.1456 79.3711C30.2542 79.2901 30.3737 79.4635 30.2652 79.5444C29.1225 80.3918 27.7035 80.7755 26.2914 80.6189C26.1568 80.6039 26.1951 80.3966 26.3289 80.4115Z" fill="white"/>
<path d="M34.1594 71.9315C34.2816 72.1664 34.4599 72.3672 34.6785 72.5158C34.897 72.6644 35.1489 72.7562 35.4115 72.7829C35.5462 72.7962 35.5078 73.0036 35.374 72.9904C35.084 72.9595 34.8059 72.8578 34.5641 72.6941C34.3223 72.5305 34.1241 72.3099 33.9868 72.0516C33.9718 72.0283 33.9662 72.0002 33.9711 71.973C33.9761 71.9457 33.9911 71.9214 34.0133 71.9049C34.0362 71.8891 34.0645 71.8831 34.0918 71.8881C34.1192 71.893 34.1435 71.9087 34.1594 71.9315Z" fill="white"/>
<path d="M79.2263 104.503C79.4542 102.663 80.59 100.851 82.3379 100.252C81.6486 102.146 81.6487 104.223 82.3383 106.117C82.6069 106.846 82.9813 107.629 82.7286 108.364C82.5477 108.818 82.1999 109.186 81.7571 109.39C81.3177 109.59 80.8546 109.733 80.3791 109.815L80.2863 109.892C79.5385 108.197 78.9983 106.343 79.2263 104.503Z" fill="#F0F0F0"/>
<path d="M82.3553 100.287C81.3374 101.432 80.7047 102.869 80.5472 104.396C80.5074 104.724 80.5195 105.056 80.5828 105.38C80.6547 105.694 80.8089 105.983 81.0296 106.217C81.2492 106.423 81.443 106.656 81.6066 106.91C81.6784 107.048 81.7202 107.2 81.7295 107.355C81.7388 107.51 81.7152 107.666 81.6604 107.811C81.5147 108.167 81.2994 108.489 81.0271 108.76C80.7437 109.074 80.4443 109.397 80.3238 109.814C80.3092 109.864 80.2319 109.839 80.2465 109.788C80.4562 109.062 81.158 108.65 81.4927 107.996C81.5789 107.849 81.6306 107.685 81.6436 107.515C81.6567 107.344 81.6308 107.174 81.568 107.015C81.4162 106.748 81.2229 106.506 80.9955 106.3C80.7769 106.075 80.6165 105.8 80.5283 105.499C80.4487 105.179 80.4239 104.848 80.4551 104.519C80.5134 103.779 80.6873 103.053 80.9704 102.367C81.2892 101.582 81.7394 100.858 82.3014 100.225C82.3362 100.186 82.3898 100.248 82.3553 100.287H82.3553Z" fill="white"/>
<path d="M80.5691 103.901C80.3175 103.84 80.0959 103.691 79.9438 103.481C79.7916 103.271 79.7188 103.013 79.7384 102.754C79.7426 102.701 79.8239 102.706 79.8198 102.758C79.8011 102.999 79.8689 103.239 80.011 103.435C80.153 103.63 80.36 103.768 80.5946 103.824C80.6455 103.836 80.6197 103.913 80.5691 103.901H80.5691Z" fill="white"/>
<path d="M80.9127 106.118C81.367 105.845 81.7023 105.411 81.8519 104.902C81.8667 104.851 81.9439 104.877 81.9292 104.927C81.7726 105.457 81.4227 105.908 80.9493 106.191C80.9042 106.217 80.8678 106.144 80.9127 106.118Z" fill="white"/>
<path d="M81.3647 101.659C81.4571 101.703 81.5589 101.724 81.6611 101.719C81.7633 101.713 81.8626 101.683 81.95 101.63C81.9948 101.602 82.0311 101.675 81.9866 101.703C81.8897 101.761 81.78 101.795 81.6672 101.801C81.5543 101.807 81.4417 101.785 81.3392 101.737C81.3291 101.733 81.3209 101.726 81.3161 101.716C81.3113 101.707 81.3103 101.696 81.3133 101.685C81.3167 101.675 81.324 101.667 81.3337 101.662C81.3433 101.657 81.3544 101.656 81.3647 101.659L81.3647 101.659Z" fill="white"/>
<path d="M87.6657 103.538C87.6382 103.556 87.6107 103.574 87.5832 103.593C87.2151 103.836 86.8673 104.108 86.5432 104.408C86.5177 104.43 86.4923 104.454 86.4676 104.477C85.6944 105.207 85.0628 106.075 84.6052 107.037C84.4234 107.419 84.2709 107.815 84.149 108.221C83.9807 108.782 83.8426 109.403 83.5094 109.862C83.4752 109.91 83.438 109.956 83.3981 110H80.3871C80.3802 109.997 80.3734 109.994 80.3665 109.99L80.2463 109.996C80.2511 109.974 80.2566 109.952 80.2614 109.931C80.2641 109.919 80.2676 109.906 80.2703 109.894C80.2724 109.885 80.2744 109.877 80.2758 109.87C80.2765 109.867 80.2772 109.864 80.2779 109.862C80.2792 109.854 80.2813 109.848 80.2827 109.841C80.3129 109.717 80.344 109.594 80.3761 109.47L80.3768 109.469C80.6121 108.526 80.958 107.614 81.4072 106.753C81.421 106.728 81.4347 106.701 81.4498 106.676C81.6579 106.295 81.8966 105.931 82.1636 105.589C82.3104 105.402 82.4666 105.223 82.6315 105.052C83.0583 104.611 83.5517 104.24 84.0933 103.953C85.1733 103.38 86.4236 103.161 87.5777 103.511C87.6073 103.519 87.6362 103.528 87.6657 103.538Z" fill="#F0F0F0"/>
<path d="M87.6589 103.577C86.1595 103.875 84.7921 104.641 83.7508 105.765C83.5224 106.002 83.3327 106.275 83.1888 106.572C83.058 106.866 83.0079 107.19 83.0439 107.51C83.0952 107.808 83.1103 108.111 83.0889 108.412C83.0634 108.566 83.0059 108.712 82.9201 108.842C82.8344 108.971 82.7223 109.081 82.5912 109.165C82.2617 109.36 81.8963 109.488 81.5169 109.539C81.1018 109.619 80.6695 109.695 80.3231 109.955C80.2811 109.987 80.2348 109.92 80.2767 109.888C80.8794 109.435 81.687 109.53 82.3463 109.211C82.5033 109.146 82.6434 109.045 82.7558 108.917C82.8682 108.79 82.95 108.637 82.9949 108.473C83.0341 108.168 83.0245 107.858 82.9666 107.556C82.9269 107.244 82.9639 106.928 83.0743 106.634C83.2026 106.33 83.3815 106.051 83.6032 105.807C84.0938 105.252 84.6683 104.777 85.3057 104.4C86.0309 103.966 86.8246 103.66 87.6526 103.495C87.7039 103.485 87.7098 103.566 87.6589 103.577H87.6589Z" fill="white"/>
<path d="M84.0649 105.383C83.9008 105.182 83.8133 104.929 83.8179 104.669C83.8224 104.409 83.9189 104.16 84.0899 103.965C84.1246 103.925 84.1872 103.978 84.1524 104.017C83.9928 104.198 83.903 104.431 83.8992 104.673C83.8954 104.915 83.9779 105.15 84.1318 105.336C84.1652 105.377 84.0981 105.423 84.0649 105.383Z" fill="white"/>
<path d="M83.0101 107.36C83.5361 107.417 84.0642 107.273 84.4892 106.957C84.5313 106.926 84.5776 106.993 84.5356 107.024C84.0927 107.353 83.5428 107.501 82.9955 107.441C82.9434 107.435 82.9582 107.354 83.01 107.36H83.0101Z" fill="white"/>
<path d="M86.0448 104.074C86.0921 104.165 86.1612 104.243 86.2459 104.3C86.3306 104.358 86.4283 104.393 86.53 104.404C86.5822 104.409 86.5673 104.489 86.5155 104.484C86.4031 104.472 86.2953 104.433 86.2016 104.369C86.1079 104.306 86.0311 104.22 85.9779 104.12C85.9721 104.111 85.9699 104.1 85.9718 104.09C85.9737 104.079 85.9796 104.07 85.9882 104.063C85.9971 104.057 86.008 104.055 86.0186 104.057C86.0292 104.059 86.0386 104.065 86.0448 104.074Z" fill="white"/>
<path d="M130.959 65.4228C130.055 58.126 125.55 50.9366 118.618 48.562C121.352 56.0724 121.351 64.3115 118.616 71.8215C117.551 74.714 116.066 77.8198 117.068 80.7349C117.692 82.5488 119.217 83.9366 120.922 84.8044C122.626 85.6721 124.518 86.0857 126.387 86.491L126.754 86.7963C129.72 80.0731 131.863 72.7195 130.959 65.4228Z" fill="#F0F0F0"/>
<path d="M118.549 48.7C122.586 53.2408 125.095 58.943 125.72 64.9967C125.846 66.2945 125.861 67.622 125.579 68.9012C125.294 70.1459 124.682 71.2913 123.807 72.2184C123.008 73.0992 122.09 73.9074 121.518 74.9678C120.916 76.0856 120.893 77.3555 121.305 78.5428C121.81 79.9954 122.804 81.1795 123.816 82.3034C124.941 83.5513 126.128 84.8297 126.606 86.4841C126.664 86.6846 126.97 86.5827 126.912 86.3825C126.081 83.5041 123.298 81.8691 121.97 79.2765C121.351 78.0668 121.091 76.6623 121.671 75.3853C122.179 74.2686 123.126 73.4344 123.942 72.5495C124.799 71.6204 125.456 70.601 125.795 69.3708C126.141 68.1124 126.178 66.7816 126.085 65.4862C125.854 62.5506 125.164 59.6696 124.042 56.949C122.777 53.8369 120.992 50.9648 118.763 48.457C118.625 48.3018 118.412 48.5459 118.549 48.7L118.549 48.7Z" fill="white"/>
<path d="M125.633 63.0356C126.631 62.7924 127.51 62.2013 128.113 61.3676C128.717 60.534 129.005 59.5122 128.927 58.4846C128.911 58.2768 128.588 58.2927 128.605 58.5008C128.679 59.4575 128.41 60.4093 127.847 61.1844C127.283 61.9596 126.462 62.507 125.532 62.7278C125.33 62.7761 125.432 63.0835 125.633 63.0356H125.633Z" fill="white"/>
<path d="M124.27 71.8252C122.469 70.7453 121.139 69.0233 120.545 67.0027C120.487 66.8025 120.18 66.9043 120.239 67.1043C120.86 69.2059 122.248 70.995 124.125 72.1147C124.304 72.2213 124.448 71.9312 124.27 71.8252Z" fill="white"/>
<path d="M122.478 54.1438C122.111 54.3186 121.707 54.3993 121.302 54.3787C120.897 54.358 120.503 54.2367 120.156 54.0255C119.979 53.9167 119.835 54.2069 120.011 54.315C120.395 54.5465 120.83 54.68 121.278 54.7038C121.726 54.7276 122.172 54.641 122.579 54.4516C122.619 54.4369 122.651 54.4076 122.671 54.3696C122.69 54.3316 122.694 54.2877 122.682 54.2469C122.668 54.2062 122.639 54.1726 122.601 54.1533C122.563 54.134 122.518 54.1306 122.478 54.1438Z" fill="white"/>
<path d="M97.4878 61.5949C97.5968 61.666 97.7057 61.7372 97.8148 61.811C99.2747 62.7747 100.654 63.8559 101.94 65.0439C102.041 65.1342 102.141 65.2272 102.239 65.3201C105.306 68.2154 107.811 71.6571 109.626 75.4702C110.347 76.9881 110.952 78.559 111.435 80.1691C112.103 82.3927 112.65 84.857 113.972 86.6759C114.107 86.8672 114.255 87.0499 114.413 87.2229H126.355C126.382 87.2092 126.409 87.1983 126.437 87.1846L126.913 87.2065C126.894 87.1217 126.873 87.0342 126.853 86.9494C126.843 86.9002 126.829 86.851 126.818 86.8017C126.81 86.7689 126.802 86.7361 126.796 86.706C126.794 86.695 126.791 86.6841 126.788 86.6759C126.783 86.6458 126.774 86.6185 126.769 86.5911C126.649 86.1015 126.526 85.612 126.398 85.1224C126.398 85.1196 126.398 85.1196 126.396 85.1169C125.418 81.3889 124.121 77.7102 122.309 74.346C122.254 74.2448 122.2 74.1409 122.14 74.0397C121.315 72.5278 120.368 71.0862 119.309 69.7291C118.727 68.988 118.107 68.2768 117.454 67.5985C115.761 65.8491 113.804 64.3778 111.656 63.2387C107.373 60.9686 102.414 60.0988 97.8365 61.4855C97.7194 61.5211 97.6049 61.5566 97.4878 61.5949Z" fill="#F0F0F0"/>
<path d="M97.5146 61.7471C103.461 62.9327 108.885 65.9691 113.014 70.4251C113.893 71.3851 114.702 72.4358 115.243 73.6279C115.762 74.794 115.961 76.0784 115.818 77.3475C115.708 78.5335 115.46 79.734 115.639 80.926C115.829 82.1825 116.572 83.2105 117.613 83.9092C118.887 84.7642 120.392 85.1085 121.874 85.394C123.52 85.711 125.235 86.014 126.609 87.0461C126.775 87.1712 126.959 86.9046 126.793 86.7797C124.402 84.984 121.199 85.3608 118.585 84.0931C117.364 83.5015 116.315 82.5373 116.012 81.1667C115.748 79.9682 116.003 78.73 116.124 77.5301C116.252 76.2702 116.165 75.059 115.697 73.8722C115.219 72.6581 114.45 71.5735 113.599 70.5951C111.654 68.391 109.376 66.5076 106.847 65.0139C103.971 63.2932 100.823 62.079 97.5394 61.4239C97.3362 61.3834 97.3127 61.7069 97.5146 61.7471V61.7471Z" fill="white"/>
<path d="M111.769 68.9117C112.419 68.1147 112.767 67.1114 112.748 66.0811C112.73 65.0508 112.348 64.0605 111.669 63.2871C111.532 63.131 111.284 63.3387 111.422 63.4949C112.055 64.2139 112.411 65.1364 112.426 66.0959C112.441 67.0554 112.114 67.9886 111.503 68.7272C111.371 68.8879 111.637 69.0715 111.769 68.9117L111.769 68.9117Z" fill="white"/>
<path d="M115.952 76.7535C113.866 76.9802 111.771 76.4091 110.086 75.1543C109.919 75.0298 109.735 75.2964 109.902 75.4207C111.658 76.7232 113.839 77.313 116.01 77.0723C116.217 77.0493 116.158 76.7305 115.952 76.7535Z" fill="white"/>
<path d="M103.916 63.7193C103.729 64.0804 103.454 64.3889 103.119 64.6173C102.783 64.8458 102.395 64.9868 101.992 65.0279C101.785 65.0484 101.844 65.3671 102.049 65.3468C102.495 65.2993 102.923 65.143 103.294 64.8914C103.666 64.6399 103.971 64.3008 104.182 63.9038C104.205 63.8681 104.213 63.8249 104.206 63.783C104.198 63.7411 104.175 63.7037 104.141 63.6784C104.106 63.6541 104.062 63.6448 104.02 63.6525C103.978 63.6601 103.941 63.6841 103.916 63.7193V63.7193Z" fill="white"/>
<path d="M144.881 87.4009H0.177262C0.130249 87.4009 0.0851616 87.3821 0.0519186 87.3488C0.0186756 87.3154 0 87.2701 0 87.2229C0 87.1757 0.0186756 87.1305 0.0519186 87.0971C0.0851616 87.0637 0.130249 87.045 0.177262 87.045H144.823C144.87 87.045 144.915 87.0637 144.948 87.0971C144.981 87.1305 145 87.1757 145 87.2229C145 87.3212 144.979 87.4009 144.881 87.4009Z" fill="#CACACA"/>
<path d="M50.7547 103.06H18.7897C18.7427 103.06 18.6976 103.041 18.6644 103.008C18.6312 102.975 18.6125 102.929 18.6125 102.882C18.6125 102.835 18.6312 102.79 18.6644 102.756C18.6976 102.723 18.7427 102.704 18.7897 102.704H50.6968C50.7438 102.704 50.7889 102.723 50.8222 102.756C50.8554 102.79 50.8741 102.835 50.8741 102.882C50.8741 102.98 50.8526 103.06 50.7547 103.06Z" fill="#CACACA"/>
<path d="M100.92 110H68.9548C68.9078 110 68.8627 109.981 68.8294 109.948C68.7962 109.915 68.7775 109.869 68.7775 109.822C68.7775 109.775 68.7962 109.73 68.8294 109.696C68.8627 109.663 68.9078 109.644 68.9548 109.644H100.862C100.909 109.644 100.954 109.663 100.987 109.696C101.02 109.73 101.039 109.775 101.039 109.822C101.039 109.92 101.018 110 100.92 110Z" fill="#CACACA"/>
<path d="M131.054 102.882H99.0892C99.0422 102.882 98.9972 102.863 98.9639 102.83C98.9307 102.797 98.912 102.751 98.912 102.704C98.912 102.657 98.9307 102.612 98.9639 102.578C98.9972 102.545 99.0422 102.526 99.0892 102.526H130.996C131.043 102.526 131.088 102.545 131.122 102.578C131.155 102.612 131.174 102.657 131.174 102.704C131.174 102.802 131.152 102.882 131.054 102.882Z" fill="#CACACA"/>
<path d="M59.0739 96.1202C57.0883 96.1202 55.2704 95.9292 53.8261 95.4777C52.1093 94.9411 51.0313 94.0733 50.6218 92.8965C50.4293 92.3968 50.3719 91.855 50.4552 91.3259C50.5385 90.7967 50.7597 90.2991 51.0963 89.8834C53.6361 86.5614 62.4493 85.6244 63.6318 85.5136L66.0309 80.9533C66.1844 79.8653 65.4581 79.0416 66.7129 79.021L81.5559 78.8186C82.7882 78.7926 82.4384 79.5587 82.6494 80.6196L84.9108 84.6721L75.1781 88.7957L76.6496 92.3952L76.5535 92.4512C73.705 94.1099 65.5132 96.12 59.0739 96.1202Z" fill="#2F2E41"/>
<path d="M83.5634 84.8451C83.5634 84.8451 97.1559 83.2836 96.2694 89.5296C95.383 95.7757 85.0409 100.2 69.38 89.5296L71.1529 86.4066C71.1529 86.4066 76.9888 86.1152 80.5347 84.5537L83.5634 84.8451Z" fill="#2F2E41"/>
<path d="M64.32 56.5482C64.32 56.5482 61.7366 56.0767 61.032 60.0847C60.3275 64.0926 59.1988 73.5865 59.1988 73.5865L55.6946 85.7818C55.2812 86.0021 54.9389 86.3359 54.7075 86.7441C54.4761 87.1524 54.3651 87.6184 54.3877 88.0876C54.4102 88.5568 54.5653 89.0099 54.8347 89.3939C55.1042 89.7779 55.4769 90.0771 55.9094 90.2564C56.342 90.4357 56.8164 90.4878 57.2772 90.4066C57.7381 90.3254 58.1665 90.1142 58.5123 89.7977C58.8581 89.4812 59.107 89.0724 59.23 88.6192C59.3531 88.166 59.3451 87.687 59.2071 87.2382L63.896 74.2948L64.7897 63.1505V57.3112C64.7897 57.1528 64.7458 56.9975 64.6628 56.8627C64.5799 56.728 64.4612 56.6191 64.32 56.5482Z" fill="#FEB8B8"/>
<path d="M82.5043 56.5482C82.5043 56.5482 85.0877 56.0767 85.7922 60.0847C86.4968 64.0926 87.6254 73.5865 87.6254 73.5865L91.1297 85.7818C91.543 86.0021 91.8854 86.3359 92.1168 86.7441C92.3482 87.1524 92.4591 87.6184 92.4366 88.0876C92.4141 88.5568 92.259 89.0099 91.9896 89.3939C91.7201 89.7779 91.3473 90.0771 90.9148 90.2564C90.4823 90.4357 90.0079 90.4878 89.547 90.4066C89.0862 90.3254 88.6578 90.1142 88.312 89.7977C87.9662 89.4812 87.7173 89.0724 87.5943 88.6192C87.4712 88.166 87.4792 87.687 87.6172 87.2382L82.9283 74.2948L82.0346 63.1505V57.3112C82.0346 57.1528 82.0785 56.9975 82.1615 56.8627C82.2444 56.728 82.3631 56.6191 82.5043 56.5482Z" fill="#FEB8B8"/>
<path d="M82.3073 53.2352L77.4207 51.4005L67.9491 51.2778L63.8721 53.2352L65.0172 59.8417C65.0172 59.8417 62.7052 63.7716 65.2508 67.7019L65.822 81.7066C65.822 81.7066 74.9538 87.0224 82.6618 80.6389L80.9197 67.6179C80.9197 67.6179 83.8337 61.5766 81.575 59.3323L82.3073 53.2352Z" fill="#D98C5F"/>
<path d="M80.317 55.2883L82.3073 53.2353C82.3073 53.2353 86.6511 55.5289 86.5616 63.2003L81.0822 61.5051L80.317 55.2883Z" fill="#D98C5F"/>
<path d="M66.0832 55.2882L63.9686 53.1655C63.9686 53.1655 60.2374 56.0627 60.3269 63.7341L65.318 61.505L66.0832 55.2882Z" fill="#D98C5F"/>
<path d="M79.8677 90.825C79.8677 90.825 78.3456 87.61 75.8036 89.1512C73.2617 90.6924 68.5846 93.2522 68.5846 93.2522C68.5846 93.2522 67.4907 95.0878 69.8794 94.605C72.2681 94.1222 79.9417 93.7455 79.9417 93.7455L79.8677 90.825Z" fill="#FEB8B8"/>
<path d="M75.639 33.3557C75.6605 33.335 75.683 33.3164 75.7042 33.2951C77.0644 31.9297 77.3401 29.9926 76.3199 28.9685C75.3559 28.0007 73.5802 28.196 72.2398 29.3727C71.0906 28.2744 69.5497 27.9682 68.5522 28.7264C67.4021 29.6007 67.411 31.5574 68.5723 33.0969C68.6519 33.2023 68.7353 33.302 68.821 33.3979C67.2756 33.9657 65.9413 34.9964 64.9986 36.3505C64.0559 37.7047 63.5504 39.3168 63.5504 40.9688V48.6419C63.5504 48.8669 63.5946 49.0897 63.6803 49.2975C63.7661 49.5054 63.8918 49.6943 64.0503 49.8534C64.2088 50.0125 64.397 50.1387 64.604 50.2248C64.8111 50.3109 65.0331 50.3552 65.2572 50.3552H79.3842C79.8216 50.3552 80.2412 50.1807 80.5505 49.8702C80.8599 49.5597 81.0337 49.1385 81.0337 48.6993V40.9688C81.0334 39.2946 80.5138 37.662 79.5471 36.2977C78.5804 34.9334 77.2144 33.9052 75.639 33.3557Z" fill="#2F2E41"/>
<path d="M77.2554 47.6187C79.8733 44.9906 79.8733 40.7297 77.2554 38.1017C74.6374 35.4736 70.3929 35.4736 67.775 38.1017C65.157 40.7297 65.157 44.9906 67.775 47.6187C70.3929 50.2467 74.6374 50.2467 77.2554 47.6187Z" fill="#FFB6B6"/>
<path d="M65.4712 38.6273C67.0031 39.6872 68.8213 40.2513 70.6818 40.2438C70.0181 40.7058 69.2626 41.0178 68.4673 41.1584C70.9409 41.6911 73.4974 41.7055 75.9769 41.2008C76.528 41.1121 77.0598 40.9287 77.5489 40.6588C77.7927 40.5221 78.0051 40.3355 78.1722 40.111C78.3394 39.8866 78.4577 39.6293 78.5193 39.356C78.6841 38.4111 77.9506 37.5527 77.1885 36.9742C76.0215 36.1019 74.676 35.5009 73.2493 35.2147C71.8225 34.9285 70.3503 34.9643 68.939 35.3193C68.0175 35.5585 67.0944 35.9625 66.4958 36.7054C65.8973 37.4483 65.72 38.5936 66.2902 39.3586L65.4712 38.6273Z" fill="#2F2E41"/>
<path d="M29.615 25.1983L29.8263 24.9124L35.4542 29.103C35.1483 28.1673 34.0658 25.2009 32.2911 24.0173C30.171 22.6033 28.6794 23.0431 27.8668 24.271C27.0542 25.4989 27.2282 27.0496 29.3483 28.4637C31.1454 29.6623 34.3468 29.4957 35.2809 29.4171L29.615 25.1983Z" fill="#F2F2F2"/>
<path d="M114.292 2.25495L114.554 2.49561L109.817 7.67871C110.775 7.47067 113.827 6.69837 115.184 5.04966C116.806 3.08001 116.525 1.54502 115.393 0.605951C114.261 -0.333116 112.706 -0.320679 111.085 1.64898C109.711 3.31858 109.543 6.53229 109.523 7.473L114.292 2.25495Z" fill="#F2F2F2"/>
<path d="M37.8927 57.5961L38.154 57.8368L33.4168 63.0199C34.3757 62.8119 37.4272 62.0396 38.7845 60.3909C40.4059 58.4212 40.1253 56.8862 38.9933 55.9471C37.8613 55.0081 36.3067 55.0205 34.6852 56.9902C33.3108 58.6598 33.1429 61.8735 33.1236 62.8142L37.8927 57.5961Z" fill="#F2F2F2"/>
<path d="M77.9498 8.19443L78.2567 8.37272L74.7473 14.4611C75.6387 14.0499 78.4519 12.6338 79.4221 10.7296C80.5812 8.45474 79.9767 7.01692 78.6693 6.34563C77.3619 5.67435 75.8467 6.02377 74.6876 8.29868C73.7051 10.227 74.2331 13.4012 74.4168 14.3239L77.9498 8.19443Z" fill="#F2F2F2"/>
<path d="M110.743 46.2748L111.05 46.4531L107.541 52.5415C108.432 52.1303 111.245 50.7142 112.216 48.81C113.375 46.5351 112.77 45.0973 111.463 44.426C110.155 43.7547 108.64 44.1042 107.481 46.3791C106.498 48.3074 107.026 51.4816 107.21 52.4043L110.743 46.2748Z" fill="#F2F2F2"/>
</svg>
