<svg width="146" height="110" viewBox="0 0 146 110" fill="none" xmlns="http://www.w3.org/2000/svg">
<g clip-path="url(#clip0_6_1062)">
<path d="M95.1844 45.1386C94.8654 45.1844 94.5402 45.1601 94.2317 45.0672C93.9232 44.9743 93.6389 44.8152 93.3987 44.601C93.1586 44.3868 92.9684 44.1228 92.8417 43.8275C92.715 43.5322 92.6547 43.2128 92.6652 42.8918L85.3517 40.0909L88.6631 37.7303L95.1004 40.752C95.6405 40.8054 96.1422 41.0544 96.5103 41.4518C96.8785 41.8492 97.0876 42.3674 97.0979 42.9082C97.1082 43.449 96.9191 43.9748 96.5664 44.3859C96.2137 44.797 95.7219 45.0648 95.1842 45.1386L95.1844 45.1386Z" fill="#FFB7B7"/>
<path d="M91.0052 43.1293L92.1472 39.1152L92.091 39.077L81.3947 31.836L72.1484 22.5903L66.7623 24.7349L67.116 26.4338L67.1391 26.4546L79.4325 37.4278L79.4439 37.4333L91.0052 43.1293Z" fill="#E6E7E8"/>
<path d="M80.0476 52.2981L63.4937 49.9856L64.9508 39.863H77.1379L80.0476 52.2981Z" fill="#FFB6B6"/>
<path d="M51.92 101.866L55.3158 102.652L59.9753 89.9735L54.9638 88.813L51.92 101.866Z" fill="#FFB6B6"/>
<path d="M48.7605 107.314L51.1957 107.878L52.1646 105.687L52.7436 108.236L59.2023 109.732C59.5119 109.804 59.8364 109.775 60.1284 109.65C60.4204 109.525 60.6646 109.31 60.8254 109.037C60.9863 108.764 61.0552 108.446 61.0223 108.131C60.9893 107.816 60.8562 107.52 60.6423 107.286L56.3124 102.541L56.8525 100.225L51.3522 99.2913L48.7605 107.314Z" fill="#2F2E41"/>
<path d="M72.8726 103.751H76.3587L78.0178 90.3508H72.8726V103.751Z" fill="#FFB6B6"/>
<path d="M71.0325 109.771H73.5326L73.9789 107.419L75.1218 109.771H81.7526C82.0704 109.771 82.38 109.67 82.636 109.482C82.892 109.294 83.0811 109.03 83.1757 108.728C83.2703 108.425 83.2654 108.101 83.1618 107.801C83.0581 107.502 82.8611 107.243 82.5996 107.063L77.3044 103.419V101.041L71.7348 101.372L71.0325 109.771Z" fill="#2F2E41"/>
<path d="M63.2845 48.2681L79.4734 46.9847C84.2506 58.1057 81.213 75.8591 77.5418 95.8443L72.3347 96.5153L71.9308 64.4013L58.8776 94.2769L53.4506 94.0004L63.2845 48.2681Z" fill="#2F2E41"/>
<path d="M72.7078 18.9833V13.5252C72.7083 12.5644 72.5188 11.613 72.1502 10.7252C71.7816 9.83745 71.2411 9.03075 70.5596 8.35121C69.878 7.67168 69.0688 7.13262 68.1782 6.76484C67.2875 6.39706 66.3329 6.20776 65.3688 6.20776C64.4047 6.20776 63.4501 6.39706 62.5594 6.76484C61.6688 7.13262 60.8596 7.67168 60.178 8.35121C59.4965 9.03075 58.956 9.83745 58.5874 10.7252C58.2188 11.613 58.0293 12.5644 58.0298 13.5252C56.7363 16.2114 57.5455 17.4885 58.0298 18.9833C58.0302 19.2436 58.1342 19.4932 58.3189 19.6772C58.5036 19.8613 58.754 19.9649 59.0152 19.9653H71.7219C71.9832 19.965 72.2337 19.8615 72.4185 19.6774C72.6033 19.4933 72.7074 19.2437 72.7078 18.9833Z" fill="#2F2E41"/>
<path d="M67.1799 19.883C70.1516 19.883 72.5607 17.4822 72.5607 14.5207C72.5607 11.5592 70.1516 9.15845 67.1799 9.15845C64.2082 9.15845 61.7992 11.5592 61.7992 14.5207C61.7992 17.4822 64.2082 19.883 67.1799 19.883Z" fill="#FFB7B7"/>
<path d="M74.444 13.9617C74.4422 12.4279 73.83 10.9573 72.7417 9.8727C71.6533 8.78809 70.1777 8.178 68.6385 8.17627H67.5431C66.0039 8.178 64.5283 8.78809 63.44 9.8727C62.3516 10.9573 61.7394 12.4279 61.7377 13.9617V14.0709C62.5581 14.6299 63.3369 14.7116 64.0527 14.0709L64.8422 11.8677L65.0001 14.0709H66.1966L66.5955 12.9594L66.6753 14.0709C68.2914 15.4426 71.3475 14.7853 74.444 14.0709L74.444 13.9617Z" fill="#2F2E41"/>
<path d="M64.0423 42.8216L77.7422 42.3021L78.508 33.3704C79.0986 31.7356 79.1082 30.3309 78.5364 29.1983C78.0446 28.2673 77.2184 27.5556 76.2228 27.2055L73.2251 23.5973C72.8395 23.1336 72.3553 22.761 71.8075 22.5065C71.2597 22.252 70.6621 22.1219 70.0577 22.1257L62.2684 22.1788C62.0807 22.0663 60.9418 21.4895 58.6958 22.4593C56.2598 23.5115 56.8255 27.1669 56.8316 27.2036L56.8372 27.238L56.8639 27.2614L62.0448 31.6103L64.0423 42.8216Z" fill="#E6E7E8"/>
<path d="M0.229851 110H137.787C137.848 110 137.906 109.976 137.949 109.933C137.993 109.89 138.017 109.832 138.017 109.771C138.017 109.71 137.993 109.652 137.949 109.609C137.906 109.566 137.848 109.542 137.787 109.542H0.229851C0.168891 109.542 0.110428 109.566 0.0673221 109.609C0.0242167 109.652 -1.90735e-06 109.71 -1.90735e-06 109.771C-1.90735e-06 109.832 0.0242167 109.89 0.0673221 109.933C0.110428 109.976 0.168891 110 0.229851 110Z" fill="#CCCCCC"/>
<path d="M100.387 55.7856C100.377 60.9888 98.414 66 94.8842 69.834C91.3544 73.668 86.5131 76.0475 81.3121 76.5046C76.1111 76.9617 70.9266 75.4634 66.7779 72.3042C62.6292 69.1451 59.8164 64.5536 58.8925 59.4325C57.9685 54.3114 59.0003 49.0311 61.785 44.6296C64.5696 40.2282 68.9057 37.024 73.9408 35.6471C78.9758 34.2701 84.3456 34.82 88.9945 37.1885C93.6433 39.5571 97.235 43.5731 99.0633 48.4469C99.1089 48.5693 99.1534 48.6916 99.1966 48.8152V48.8164C99.3896 49.3595 99.5596 49.9128 99.7066 50.4762C100.16 52.2098 100.389 53.9941 100.387 55.7856Z" fill="#3F3D56"/>
<path d="M77.0305 41.63C76.0844 41.1201 75.0339 40.8323 73.9592 40.7885C72.8845 40.7447 71.8139 40.946 70.8292 41.3772C69.9621 41.7532 69.0491 42.4278 68.7599 43.646C69.9297 42.958 71.444 44.045 71.7451 45.7889L71.6748 45.8082C71.5158 47.0161 71.8707 48.3312 72.5579 49.0802C72.609 48.7422 72.735 48.4199 72.9267 48.1365C73.1184 47.8531 73.3711 47.6159 73.6663 47.442C74.1712 47.1112 74.7297 46.871 75.1151 46.3024C75.5719 45.6284 75.688 44.6434 75.8695 43.7448C76.0509 42.8462 76.3952 41.8804 77.0305 41.63Z" fill="#D98C5F"/>
<path d="M70.4821 51.9087C70.1581 52.3936 69.7254 52.6978 69.3371 53.0767C68.8888 53.483 68.5947 54.0309 68.5043 54.6281C68.4552 55.05 68.5312 55.479 68.5207 55.9056C68.5102 56.3322 68.3674 56.8124 68.0762 56.9185C67.6165 57.084 67.2656 56.2331 66.7931 56.1737C66.4177 56.127 66.0797 56.7157 66.1884 57.2262C66.2972 57.7368 66.8083 57.9629 67.1019 57.6295C67.3674 58.0736 67.1803 58.8791 66.7814 59.0154C66.7393 59.2952 66.6972 59.5738 66.6563 59.8535C65.648 59.1506 64.6293 58.4361 63.772 57.4069C62.8185 56.2719 62.2271 54.8788 62.0737 53.4065C61.9625 52.2234 62.1275 50.8701 61.5824 49.9598C61.1461 49.2313 60.3976 49.0704 59.7239 49.1159C59.6011 49.1241 59.4771 49.1381 59.3543 49.1532C59.7516 47.964 60.2562 46.8131 60.8619 45.7146C60.999 45.656 61.1264 45.577 61.2397 45.4803C61.8666 44.95 62.145 43.8765 62.6538 43.134C62.6865 43.0862 62.7205 43.0396 62.7555 42.9941C63.276 42.3169 63.9731 41.9684 64.6468 41.6443C66.1381 40.9228 67.6727 40.192 69.247 40.2922L68.799 40.3353C68.2762 41.7947 67.753 43.254 67.2294 44.7134C67.1498 44.9372 67.0695 45.1614 66.9884 45.3859C66.6913 46.2159 66.3849 47.0994 66.4305 48.0284C66.4574 48.5785 66.6492 49.166 67.0142 49.3548C67.3545 49.5297 67.7265 49.3152 68.0551 49.1031C68.1943 49.0145 68.3323 48.9259 68.4715 48.8361C68.9709 48.5156 69.5242 48.1869 70.0517 48.4014C70.5348 48.5972 70.8915 49.2511 70.9593 49.9563C71.0215 50.6418 70.8537 51.3285 70.4821 51.9087Z" fill="#D98C5F"/>
<path d="M73.4525 61.872C71.9938 60.977 70.5352 60.082 69.0765 59.187L69.1013 59.1234C68.1944 59.4676 67.8179 61.0742 67.9677 62.388C68.1176 63.7018 68.6258 64.8763 68.8826 66.1565C69.2288 67.9083 69.0981 69.7206 68.5042 71.4051C70.4222 69.2604 72.1196 66.9294 73.571 64.4472C73.7738 64.1343 73.9283 63.7929 74.0293 63.4344C74.1364 63.0523 74.0982 62.6443 73.9222 62.2885C73.8028 62.1129 73.6414 61.9698 73.4525 61.872Z" fill="#D98C5F"/>
<path d="M67.6957 45.589C67.5245 45.9555 67.4981 46.3729 67.6218 46.7579C67.7657 47.0681 68.0268 47.3091 68.3482 47.4284L69.1542 47.8265C69.4223 47.959 69.7113 48.0927 69.9847 47.9838C70.3143 47.8523 70.5429 47.3372 70.4838 46.8591C70.4209 46.3502 70.099 46.0002 69.8013 45.7021C69.3848 45.285 68.9682 44.8679 68.5517 44.4508L68.3169 44.7374C68.063 44.9842 67.853 45.2721 67.6957 45.589Z" fill="#D98C5F"/>
<path d="M96.0667 51.0287C96.4292 51.1138 96.7918 51.1989 97.1544 51.2839C97.0913 52.5044 96.4842 53.6338 95.6702 54.0429C95.331 54.2131 94.9532 54.2761 94.6725 54.5943C94.4187 54.8834 94.29 55.3333 94.1718 55.7634C93.9648 56.514 93.7578 57.2647 93.5508 58.0153C93.3286 58.8243 93.0432 59.723 92.4654 60.0144C91.9694 60.265 91.4022 59.9584 91.0209 59.4444C90.6396 58.9304 90.4068 58.2391 90.1811 57.5654C90.1951 58.2998 89.8524 59.0201 89.367 59.2754C88.8804 59.5306 88.2886 59.2998 87.9635 58.7299C87.7295 58.3207 87.6325 57.7811 87.4032 57.3661C87.174 56.9511 86.6932 56.7134 86.4429 57.1027C86.278 57.3615 86.2991 57.7577 86.2172 58.0865C86.176 58.3047 86.0675 58.5047 85.907 58.6586C85.7464 58.8126 85.5417 58.9129 85.3213 58.9455C85.1186 58.9409 84.919 58.8952 84.7346 58.8112C84.5502 58.7273 84.3849 58.6068 84.2487 58.4571C83.5325 57.727 83.0662 56.7898 82.9165 55.7797C82.815 55.2954 82.8278 54.7942 82.9539 54.3157C83.0978 53.8623 83.4452 53.5126 83.7902 53.5989C84.0171 53.1209 83.5692 52.4869 83.1656 52.5428C82.7609 52.5988 82.444 53.0312 82.1118 53.3634C81.7808 53.6956 81.3176 53.9369 80.9843 53.607C80.9917 53.7277 80.9508 53.8463 80.8704 53.9369C80.7901 54.0275 80.6769 54.0825 80.5559 54.0899C80.5439 54.0907 80.5319 54.091 80.5199 54.0907C80.2983 54.0273 80.0923 53.9186 79.9152 53.7714C79.1515 53.297 78.1818 53.6117 77.6391 54.5092C77.9783 53.0708 78.4754 51.4203 79.5175 51.0823C79.9433 50.9436 80.4076 51.0578 80.81 50.8177C81.5223 50.3923 81.6662 48.7849 81.0509 48.1217C81.1293 48.7487 81.1141 49.4807 80.7819 49.9097C80.4497 50.3387 79.7526 50.0589 79.7948 49.4248C79.7853 49.514 79.7478 49.5979 79.6875 49.6645C79.6273 49.7311 79.5474 49.7771 79.4594 49.7957C79.3714 49.8143 79.2797 49.8047 79.1975 49.7682C79.1153 49.7318 79.0468 49.6703 79.0018 49.5926C78.7807 49.257 78.7994 48.708 78.9561 48.307C79.1177 47.9438 79.3494 47.6159 79.638 47.3419C80.1936 46.7486 80.7574 46.1483 81.4007 45.7753C82.0452 45.4023 82.789 45.2764 83.4347 45.6471C83.7751 45.8429 84.0745 46.1693 84.4218 46.3418C84.5035 46.3922 84.5943 46.4262 84.6891 46.4417C84.7839 46.4572 84.8808 46.454 84.9744 46.4321C85.0679 46.4103 85.1562 46.3703 85.2342 46.3145C85.3123 46.2586 85.3785 46.188 85.4291 46.1067C85.4331 46.1004 85.4369 46.0941 85.4406 46.0877C85.6991 45.6354 85.5774 44.964 85.6734 44.3987C85.8453 43.3998 86.8477 42.9324 87.4032 43.5921C86.988 43.486 86.5588 43.9756 86.5073 44.5689C86.4547 45.1622 86.7553 45.7613 87.1576 45.9408C87.8337 46.2392 88.4957 45.4885 89.0068 44.7938C89.5401 44.0665 90.0743 43.3395 90.6092 42.613C90.6946 42.4893 90.7905 42.3731 90.8957 42.2656C91.0633 42.1029 91.2866 42.0097 91.5205 42.005C91.7544 42.0002 91.9814 42.0842 92.1554 42.24C92.6958 42.6794 92.9496 43.5805 93.3929 44.2005C94.0362 45.1016 94.9988 45.3207 95.8947 45.4955C96.5626 45.6249 97.2308 45.7551 97.8995 45.886C98.3452 46.7124 98.734 47.568 99.0633 48.4469C97.8371 49.0041 96.7971 49.9001 96.0667 51.0287Z" fill="#D98C5F"/>
<path d="M99.7066 50.4762C99.5695 50.8788 99.4946 51.2997 99.4843 51.7246C98.9112 51.0276 98.82 49.7209 99.1966 48.8164C99.3896 49.3596 99.5596 49.9129 99.7066 50.4762Z" fill="#D98C5F"/>
<path d="M98.2258 65.0534C97.7247 66.0674 97.1419 67.0392 96.483 67.9592C96.062 67.7797 95.6093 68.1003 95.2152 68.401C94.8035 68.7157 94.3087 69.0223 93.8865 68.7355C93.4549 68.4418 93.3157 67.62 93.4525 66.9684C93.6098 66.3674 93.8849 65.8033 94.2619 65.3086C94.6128 64.7864 94.9882 64.2444 95.476 64.0416C95.9649 63.8388 96.593 64.1255 96.7357 64.8179L97.0819 64.8062C96.8877 64.5405 96.9895 63.9903 97.2503 63.8936C97.5509 63.7805 97.8118 64.192 97.9895 64.5557C98.0691 64.72 98.1498 64.8855 98.2258 65.0534Z" fill="#D98C5F"/>
<path d="M84.9662 60.1299C84.222 60.1765 83.6326 59.2636 83.2409 58.3654C82.8492 57.4673 82.4918 56.4402 81.8203 55.9831C81.4367 55.7218 80.9993 55.686 80.5831 55.5594C80.3471 55.5 80.1286 55.3854 79.9459 55.2251C79.7632 55.0648 79.6215 54.8633 79.5324 54.6375L79.0604 54.4475C78.4001 54.7764 77.7954 55.2061 77.2681 55.721C76.6656 56.3588 76.2904 57.1764 76.2002 58.0477C76.11 58.9894 76.443 60.0393 77.0652 60.393C77.5568 60.6725 78.1292 60.4964 78.6272 60.7522C79.2494 61.0719 79.6187 62.0006 79.7586 62.9175C79.8984 63.8344 79.863 64.7873 79.963 65.7147C80.063 66.642 80.3387 67.6069 80.9093 68.0821C81.6233 68.6768 82.6711 68.1827 82.9914 67.1001C83.1486 66.5691 83.1431 65.9699 83.2607 65.4188C83.4676 64.4481 84.0262 63.7279 84.4691 62.9316C84.9121 62.1354 85.2608 61.054 84.9662 60.1299Z" fill="#D98C5F"/>
<path d="M77.6128 50.5916C77.6822 50.6552 77.747 50.7237 77.8066 50.7966C77.8683 50.9026 77.8998 51.0234 77.8977 51.146C77.8956 51.2686 77.86 51.3882 77.7947 51.4921C77.8843 51.487 77.9719 51.4635 78.052 51.4229C78.132 51.3824 78.2027 51.3258 78.2597 51.2566C78.3955 51.1024 78.515 50.9347 78.6162 50.7561C78.6638 50.6949 78.6978 50.6243 78.7159 50.5491C78.7341 50.4738 78.7359 50.3955 78.7213 50.3195C78.6862 50.2195 78.6031 50.1769 78.5448 50.1017C78.464 49.9547 78.4088 49.795 78.3817 49.6296C78.3494 49.4746 78.2743 49.3316 78.165 49.2167C78.0556 49.1018 77.9162 49.0197 77.7626 48.9794L77.7999 48.9865C77.7364 49.024 77.6863 49.0804 77.6565 49.1477C77.6268 49.2151 77.619 49.29 77.6342 49.362C77.6567 49.5074 77.7505 49.6282 77.7412 49.7766C77.7278 49.9899 77.5139 50.09 77.5006 50.3033C77.4986 50.4104 77.5389 50.5139 77.6128 50.5916Z" fill="#D98C5F"/>
<path d="M76.3378 46.9678L76.3412 46.9672C76.3645 46.946 76.3862 46.923 76.406 46.8984L76.3378 46.9678Z" fill="#D98C5F"/>
<path d="M76.561 47.9677C76.6504 47.8896 76.7165 47.7884 76.7521 47.6754C76.7877 47.5623 76.7915 47.4417 76.763 47.3266C76.7089 47.0841 76.5176 46.921 76.3411 46.9658C76.2899 47.0175 76.2264 47.0554 76.1564 47.0759C76.0865 47.0965 76.0125 47.0989 75.9413 47.0831C75.8322 47.0551 75.7124 46.983 75.6178 47.0649C75.5637 47.1261 75.5258 47.1998 75.5076 47.2794C75.4726 47.3865 75.4375 47.4937 75.4025 47.6008C75.3859 47.6392 75.3815 47.6817 75.3901 47.7226C75.3968 47.739 75.4076 47.7534 75.4215 47.7644C75.4354 47.7754 75.452 47.7827 75.4695 47.7855C75.6797 47.8473 75.8898 47.909 76.0999 47.9707C76.1723 48.004 76.2511 48.0209 76.3308 48.0204C76.4105 48.0199 76.4891 48.0019 76.561 47.9677Z" fill="#D98C5F"/>
<path d="M92.4261 61.7918C92.3289 61.6333 92.2318 61.4748 92.1346 61.3163C92.0392 61.1327 91.9088 60.9695 91.7506 60.8358C91.7164 60.8072 91.6768 60.7856 91.6342 60.7722C91.5915 60.7588 91.5467 60.754 91.5022 60.7579C91.4577 60.7618 91.4144 60.7744 91.3747 60.795C91.3351 60.8156 91.3 60.8438 91.2713 60.8779L91.2662 60.8841L91.278 60.9746C91.5381 61.2525 91.7154 61.5972 91.7899 61.9699C91.812 62.1319 91.8043 62.2995 91.8237 62.4622C91.8258 62.5377 91.8427 62.612 91.8736 62.6809C91.9045 62.7498 91.9487 62.8119 92.0037 62.8638C92.1567 62.9656 92.3363 62.8155 92.4452 62.6322C92.5425 62.4818 92.5861 62.303 92.5691 62.1248C92.5448 62.0052 92.4962 61.8918 92.4261 61.7918Z" fill="#D98C5F"/>
<path d="M93.95 61.998C93.9685 61.8496 93.9564 61.699 93.9144 61.5555C93.9075 61.3613 93.9591 61.1694 94.0628 61.0048C94.1657 60.8494 94.2437 60.6791 94.2939 60.4998C94.3151 60.4181 94.3112 60.332 94.2828 60.2525C94.2507 60.1805 94.1728 60.1477 94.1281 60.2047L94.2237 60.266C94.0946 60.2431 93.962 60.2495 93.8357 60.2848C93.7637 60.3122 93.6994 60.3566 93.6482 60.4141C93.597 60.4716 93.5605 60.5405 93.5417 60.6151C93.5259 60.7313 93.5001 60.846 93.4646 60.9578C93.4075 61.0746 93.2971 61.1135 93.2278 61.216C93.1805 61.3069 93.1566 61.4081 93.1583 61.5105C93.16 61.6129 93.1872 61.7132 93.2375 61.8025C93.3246 61.9486 93.4631 62.0571 93.6261 62.107C93.7428 62.1488 93.8966 62.151 93.95 61.998Z" fill="#D98C5F"/>
<path d="M96.6638 62.8141C96.706 62.9235 96.7625 63.027 96.832 63.1217C96.9619 63.2521 97.1385 63.1719 97.2961 63.1402C97.4391 63.1177 97.5856 63.1342 97.72 63.1879C97.8543 63.2416 97.9716 63.3306 98.0594 63.4454C97.9983 63.1416 97.8649 62.8568 97.6704 62.615C97.476 62.3733 97.2262 62.1815 96.9419 62.0559C96.5726 61.9285 96.1834 61.8679 95.7926 61.8768L95.7259 61.8939C95.896 62.3872 96.43 62.3762 96.6638 62.8141Z" fill="#D98C5F"/>
<path d="M85.1698 63.8236L85.1708 63.8257L85.1904 63.7881L85.1698 63.8236Z" fill="#D98C5F"/>
<path d="M84.7581 64.6173C84.6683 64.7797 84.5911 64.9488 84.5271 65.1229C84.4424 65.405 84.3863 65.6949 84.3597 65.9881C84.3388 66.1549 84.3323 66.3678 84.4372 66.449C84.4673 66.469 84.5036 66.4773 84.5394 66.4724C84.5752 66.4676 84.608 66.4499 84.6317 66.4227C84.6899 66.3613 84.7376 66.2907 84.7727 66.2138C84.9787 65.8602 85.1387 65.4819 85.2487 65.088C85.3635 64.6701 85.3361 64.226 85.1707 63.8253C85.0332 64.0893 84.8956 64.3533 84.7581 64.6173Z" fill="#D98C5F"/>
<path d="M80.7864 43.4596C80.8518 43.5233 80.9345 43.5665 81.0242 43.584C81.114 43.6014 81.2069 43.5923 81.2915 43.5578C81.4668 43.4815 81.6276 43.3756 81.7668 43.245C81.8821 43.1599 81.9799 43.0536 82.0549 42.9317C82.0963 42.8589 82.1227 42.7787 82.1328 42.6956C82.143 42.6126 82.1365 42.5284 82.1139 42.4478C82.0817 42.3706 82.0302 42.3029 81.9645 42.2511C81.8987 42.1992 81.8207 42.1649 81.7379 42.1514C81.5047 42.0825 81.2714 42.0136 81.0381 41.9446L81.2069 41.7931C81.0333 41.7002 80.8412 41.8726 80.7327 42.0859C80.6631 42.2252 80.6146 42.374 80.5888 42.5275C80.5519 42.6878 80.5504 42.8543 80.5845 43.0152C80.6187 43.1762 80.6875 43.3278 80.7864 43.4596Z" fill="#D98C5F"/>
<path d="M84.9046 42.0819C84.9704 42.1541 85.0612 42.1987 85.1588 42.2066C85.2563 42.2145 85.3532 42.1851 85.4298 42.1244C85.4957 42.0751 85.5505 42.0125 85.5905 41.9406C85.6305 41.8688 85.6549 41.7893 85.6621 41.7075C85.6786 41.5246 85.5879 41.3214 85.4583 41.3056L85.488 41.1344C85.2384 41.0895 84.9312 41.0805 84.7975 41.3826C84.7524 41.4983 84.7385 41.6237 84.7573 41.7465C84.7761 41.8692 84.8269 41.9848 84.9046 42.0819Z" fill="#D98C5F"/>
<path d="M60.3192 60.4039C60.0795 60.1893 59.8898 59.9249 59.7637 59.6294C59.6375 59.3339 59.5779 59.0144 59.5889 58.6934C59.6 58.3725 59.6815 58.0578 59.8278 57.7717C59.974 57.4855 60.1814 57.2347 60.4353 57.037L57.9054 49.6473L61.847 50.6677L63.6433 57.5282C63.9485 57.9756 64.0784 58.519 64.0083 59.0555C63.9383 59.5919 63.6731 60.0841 63.2632 60.4387C62.8532 60.7932 62.3269 60.9856 61.7841 60.9792C61.2413 60.9729 60.7197 60.7682 60.3183 60.4041L60.3192 60.4039Z" fill="#FFB7B7"/>
<path d="M59.189 55.9194L63.0133 54.2209L61.7285 41.3302L62.9251 28.3316L57.8191 25.5854L56.7372 26.9448V26.9757L56.1641 43.4127L56.1671 43.4251L59.189 55.9194Z" fill="#E6E7E8"/>
<path d="M117.774 94.333C115.612 93.342 113.279 92.1745 110.777 90.8303C97.8337 83.8766 81.9176 73.0289 65.9604 60.2857C50.0033 47.5425 35.9115 34.4258 26.281 23.3525C21.5898 17.9582 18.2105 13.3386 16.2375 9.62181C14.1484 5.6869 13.7271 2.89844 14.985 1.33404C17.4357 -1.71362 25.4168 1.03145 31.6806 3.87098L31.4517 4.37262C22.8499 0.47317 17.1551 -0.483503 15.4165 1.6787C13.202 4.43254 17.3144 12.2007 26.6989 22.9915C36.3082 34.0406 50.3743 47.1326 66.3062 59.8558C82.2381 72.5787 98.1247 83.4068 111.039 90.3453C123.652 97.1214 132.156 99.4285 134.37 96.6745C136.209 94.388 133.701 88.6292 127.309 80.4587L127.745 80.1199C132.389 86.0567 137.384 93.8077 134.802 97.0192C133.544 98.5835 130.721 98.7813 126.412 97.6069C123.956 96.9374 121.066 95.8414 117.774 94.333Z" fill="#D98C5F"/>
<path d="M34.9708 57.1761C29.0091 54.4442 23.5609 51.7004 18.7891 49.0153C12.5519 45.5054 7.8117 42.2856 4.70019 39.4458C1.40593 36.4389 0.0689528 33.9536 0.726388 32.059C2.00695 28.368 10.4497 28.2812 17.3067 28.8582L17.2601 29.4075C7.84367 28.6149 2.1575 29.6205 1.24889 32.2392C0.0916672 35.5744 6.58392 41.514 19.061 48.5353C31.8369 55.7247 49.499 63.3459 68.7944 69.9945C88.0895 76.6436 106.703 81.5229 121.206 83.7337C135.37 85.8928 144.158 85.2183 145.315 81.8831C146.276 79.1139 141.972 74.5297 133.197 68.9745L133.493 68.5093C139.869 72.5458 147.187 78.1738 145.838 82.0631C145.18 83.9578 142.588 85.0892 138.134 85.4259C133.927 85.7439 128.203 85.3578 121.123 84.2784C106.588 82.0628 87.9395 77.1749 68.6136 70.5155C56.4902 66.3378 45.0057 61.7748 34.9708 57.1761Z" fill="#D98C5F"/>
<path d="M44.0156 29.1304C45.7954 29.1304 47.2381 27.6926 47.2381 25.919C47.2381 24.1453 45.7954 22.7075 44.0156 22.7075C42.2358 22.7075 40.7931 24.1453 40.7931 25.919C40.7931 27.6926 42.2358 29.1304 44.0156 29.1304Z" fill="#E6E6E6"/>
<path d="M107.534 68.3279C108.624 68.3279 109.507 67.4478 109.507 66.362C109.507 65.2763 108.624 64.3961 107.534 64.3961C106.445 64.3961 105.562 65.2763 105.562 66.362C105.562 67.4478 106.445 68.3279 107.534 68.3279Z" fill="#FF6584"/>
<path d="M11.0551 85.5847C12.8349 85.5847 14.2776 84.1468 14.2776 82.3732C14.2776 80.5996 12.8349 79.1617 11.0551 79.1617C9.27535 79.1617 7.83257 80.5996 7.83257 82.3732C7.83257 84.1468 9.27535 85.5847 11.0551 85.5847Z" fill="#E6E6E6"/>
</g>
<defs>
<clipPath id="clip0_6_1062">
<rect width="146" height="110" fill="white"/>
</clipPath>
</defs>
</svg>
