<svg width="135" height="94" viewBox="0 0 135 94" fill="none" xmlns="http://www.w3.org/2000/svg">
<g clip-path="url(#clip0_3_99)">
<path d="M70.7491 52.5796H61.4833V52.8775H62.9283V55.7074H63.2273V52.8775H68.8557V55.7074H69.1546V52.8775H70.7491V52.5796Z" fill="#3F3D56"/>
<path d="M74.1865 45.2812H71.7952V47.6642H72.9038V55.6943H73.2027V47.6642H74.1865V45.2812Z" fill="#3F3D56"/>
<path d="M70.7674 51.6883H61.5015V51.9862H70.7674V51.6883Z" fill="#3F3D56"/>
<path d="M70.7674 50.9436H61.5015V51.2415H70.7674V50.9436Z" fill="#3F3D56"/>
<path d="M70.7674 50.1988H61.5015V50.4967H70.7674V50.1988Z" fill="#3F3D56"/>
<path d="M94.5116 56.566H94.2127C94.2127 42.4397 82.6813 30.9471 68.5074 30.9471C54.3334 30.9471 42.8021 42.4397 42.8021 56.566H42.5032C42.5032 42.2755 54.1687 30.6492 68.5074 30.6492C82.8462 30.6492 94.5116 42.2755 94.5116 56.566Z" fill="#3F3D56"/>
<path d="M25.2796 48.7057C38.7747 48.7057 49.7146 37.8026 49.7146 24.3529C49.7146 10.9031 38.7747 0 25.2796 0C11.7846 0 0.844666 10.9031 0.844666 24.3529C0.844666 37.8026 11.7846 48.7057 25.2796 48.7057Z" fill="#D98C5F"/>
<path opacity="0.2" d="M43.4559 8.08706C45.7351 13.4007 46.0443 19.3489 44.3282 24.8688C42.6121 30.3887 38.9825 35.1206 34.0881 38.2189C29.1936 41.3173 23.3532 42.5801 17.6105 41.7819C11.8678 40.9836 6.59703 38.1762 2.74001 33.8614C4.13233 37.1078 6.2162 40.0137 8.84723 42.3778C11.4783 44.7418 14.5936 46.5075 17.9773 47.5525C21.361 48.5975 24.9322 48.8969 28.4435 48.4298C31.9548 47.9627 35.3222 46.7403 38.3124 44.8474C41.3027 42.9545 43.8442 40.4363 45.761 37.4672C47.6778 34.4982 48.924 31.1493 49.4133 27.6526C49.9025 24.1559 49.6231 20.595 48.5945 17.2166C47.5658 13.8382 45.8124 10.7231 43.4559 8.08706Z" fill="black"/>
<path d="M25.3468 24.3529H25.4138L26.6222 93.3973H24.0713L25.3468 24.3529Z" fill="#3F3D56"/>
<path d="M29.7959 61.9609L29.233 60.8953L25.1938 63.0147L25.7567 64.0803L29.7959 61.9609Z" fill="#3F3D56"/>
<path d="M115.223 54.3952C126.146 54.3952 135 45.5705 135 34.6847C135 23.7989 126.146 14.9742 115.223 14.9742C104.301 14.9742 95.4461 23.7989 95.4461 34.6847C95.4461 45.5705 104.301 54.3952 115.223 54.3952Z" fill="#D98C5F"/>
<path opacity="0.2" d="M129.934 21.5197C131.779 25.8203 132.029 30.6347 130.64 35.1023C129.251 39.57 126.314 43.3998 122.352 45.9075C118.391 48.4152 113.664 49.4374 109.016 48.7913C104.368 48.1452 100.102 45.873 96.9801 42.3807C98.107 45.0082 99.7937 47.3602 101.923 49.2736C104.053 51.187 106.574 52.6161 109.313 53.4619C112.051 54.3077 114.942 54.5499 117.784 54.1719C120.626 53.7938 123.351 52.8045 125.771 51.2724C128.192 49.7403 130.249 47.7022 131.8 45.2991C133.352 42.8961 134.36 40.1856 134.756 37.3554C135.152 34.5253 134.926 31.6432 134.093 28.9088C133.261 26.1745 131.842 23.6532 129.934 21.5197Z" fill="black"/>
<path d="M115.277 34.6847H115.332L116.31 90.5672H114.245L115.277 34.6847Z" fill="#3F3D56"/>
<path d="M118.878 65.1236L118.423 64.2611L115.154 65.9765L115.609 66.839L118.878 65.1236Z" fill="#3F3D56"/>
<path d="M56.8631 51.6577C58.5825 51.6577 59.9764 50.2685 59.9764 48.5548C59.9764 46.8411 58.5825 45.4519 56.8631 45.4519C55.1436 45.4519 53.7497 46.8411 53.7497 48.5548C53.7497 50.2685 55.1436 51.6577 56.8631 51.6577Z" fill="#D98C5F"/>
<path opacity="0.2" d="M59.179 46.4823C59.4694 47.1593 59.5088 47.9172 59.2902 48.6205C59.0715 49.3239 58.609 49.9268 57.9854 50.3215C57.3618 50.7163 56.6176 50.8772 55.8859 50.7755C55.1542 50.6738 54.4827 50.3161 53.9912 49.7663C54.1686 50.18 54.4342 50.5502 54.7694 50.8514C55.1046 51.1526 55.5015 51.3776 55.9327 51.5108C56.3638 51.6439 56.8188 51.682 57.2662 51.6225C57.7136 51.563 58.1427 51.4073 58.5237 51.1661C58.9047 50.9249 59.2285 50.6041 59.4727 50.2258C59.7169 49.8475 59.8757 49.4208 59.9381 48.9752C60.0004 48.5297 59.9648 48.076 59.8337 47.6455C59.7027 47.2151 59.4793 46.8182 59.179 46.4823Z" fill="black"/>
<path d="M56.8717 48.5549H56.8802L57.0342 57.352H56.7092L56.8717 48.5549Z" fill="#3F3D56"/>
<path d="M57.4385 53.3466L57.3668 53.2108L56.8522 53.4809L56.9239 53.6166L57.4385 53.3466Z" fill="#3F3D56"/>
<path d="M85.6321 46.4977C90.034 46.4977 93.6025 42.9412 93.6025 38.5541C93.6025 34.1669 90.034 30.6104 85.6321 30.6104C81.2301 30.6104 77.6616 34.1669 77.6616 38.5541C77.6616 42.9412 81.2301 46.4977 85.6321 46.4977Z" fill="#D98C5F"/>
<path opacity="0.2" d="M91.561 33.2483C92.3045 34.9816 92.4053 36.9218 91.8456 38.7224C91.2858 40.5229 90.1018 42.0664 88.5053 43.0771C86.9088 44.0877 85.0037 44.4997 83.1305 44.2393C81.2573 43.9789 79.538 43.0631 78.2799 41.6557C78.734 42.7146 79.4138 43.6625 80.272 44.4336C81.1302 45.2048 82.1464 45.7807 83.2501 46.1216C84.3538 46.4625 85.5187 46.5601 86.6641 46.4078C87.8095 46.2554 88.9079 45.8567 89.8833 45.2392C90.8587 44.6218 91.6877 43.8004 92.3129 42.8319C92.9382 41.8634 93.3447 40.771 93.5043 39.6304C93.6638 38.4898 93.5727 37.3283 93.2372 36.2263C92.9016 35.1243 92.3297 34.1082 91.561 33.2483Z" fill="black"/>
<path d="M85.654 38.5541H85.6758L86.07 61.0757H85.2379L85.654 38.5541Z" fill="#3F3D56"/>
<path d="M87.1052 50.8215L86.9216 50.4739L85.6041 51.1652L85.7877 51.5128L87.1052 50.8215Z" fill="#3F3D56"/>
<path d="M30.7574 89.9601C30.7574 89.9601 30.8606 87.8049 32.9763 88.0554L30.7574 89.9601Z" fill="#3F3D56"/>
<path d="M30.1596 87.9091C30.7444 87.9091 31.2185 87.4367 31.2185 86.8538C31.2185 86.271 30.7444 85.7985 30.1596 85.7985C29.5748 85.7985 29.1007 86.271 29.1007 86.8538C29.1007 87.4367 29.5748 87.9091 30.1596 87.9091Z" fill="#D98C5F"/>
<path d="M30.2862 88.6309H29.9873V90.7162H30.2862V88.6309Z" fill="#3F3D56"/>
<path d="M38.2298 85.0449C38.2298 85.0449 38.333 82.8896 40.4487 83.1401L38.2298 85.0449Z" fill="#3F3D56"/>
<path d="M37.632 82.9939C38.2169 82.9939 38.6909 82.5214 38.6909 81.9386C38.6909 81.3557 38.2169 80.8832 37.632 80.8832C37.0472 80.8832 36.5732 81.3557 36.5732 81.9386C36.5732 82.5214 37.0472 82.9939 37.632 82.9939Z" fill="#D98C5F"/>
<path d="M37.7586 83.7157H37.4597V85.8009H37.7586V83.7157Z" fill="#3F3D56"/>
<path d="M60.7547 68.3694C60.7547 68.3694 60.8367 66.6576 62.5171 66.8566L60.7547 68.3694Z" fill="#3F3D56"/>
<path d="M60.2799 66.7404C60.7444 66.7404 61.121 66.3651 61.121 65.9022C61.121 65.4393 60.7444 65.064 60.2799 65.064C59.8154 65.064 59.4389 65.4393 59.4389 65.9022C59.4389 66.3651 59.8154 66.7404 60.2799 66.7404Z" fill="#D98C5F"/>
<path d="M60.3805 67.3137H60.1431V68.9699H60.3805V67.3137Z" fill="#3F3D56"/>
<path d="M93.6336 63.0073C93.6336 63.0073 93.7156 61.2955 95.3959 61.4945L93.6336 63.0073Z" fill="#3F3D56"/>
<path d="M93.1588 61.3783C93.6233 61.3783 93.9998 61.0031 93.9998 60.5401C93.9998 60.0772 93.6233 59.7019 93.1588 59.7019C92.6943 59.7019 92.3178 60.0772 92.3178 60.5401C92.3178 61.0031 92.6943 61.3783 93.1588 61.3783Z" fill="#D98C5F"/>
<path d="M93.2593 61.9516H93.0219V63.6078H93.2593V61.9516Z" fill="#3F3D56"/>
<path d="M62.2492 72.8378C62.2492 72.8378 62.3312 71.126 64.0116 71.325L62.2492 72.8378Z" fill="#3F3D56"/>
<path d="M61.7744 71.2088C62.2389 71.2088 62.6154 70.8336 62.6154 70.3706C62.6154 69.9077 62.2389 69.5325 61.7744 69.5325C61.3099 69.5325 60.9334 69.9077 60.9334 70.3706C60.9334 70.8336 61.3099 71.2088 61.7744 71.2088Z" fill="#D98C5F"/>
<path d="M61.875 71.7821H61.6376V73.4383H61.875V71.7821Z" fill="#3F3D56"/>
<path d="M58.6624 76.1146C58.6624 76.1146 58.7444 74.4029 60.4248 74.6018L58.6624 76.1146Z" fill="#3F3D56"/>
<path d="M58.1876 74.4857C58.6521 74.4857 59.0287 74.1104 59.0287 73.6475C59.0287 73.1845 58.6521 72.8093 58.1876 72.8093C57.7232 72.8093 57.3466 73.1845 57.3466 73.6475C57.3466 74.1104 57.7232 74.4857 58.1876 74.4857Z" fill="#D98C5F"/>
<path d="M58.2882 75.0589H58.0508V76.7152H58.2882V75.0589Z" fill="#3F3D56"/>
<path d="M98.7148 65.8373C98.7148 65.8373 98.7968 64.1255 100.477 64.3245L98.7148 65.8373Z" fill="#3F3D56"/>
<path d="M98.24 64.2083C98.7045 64.2083 99.0811 63.833 99.0811 63.3701C99.0811 62.9072 98.7045 62.5319 98.24 62.5319C97.7756 62.5319 97.399 62.9072 97.399 63.3701C97.399 63.833 97.7756 64.2083 98.24 64.2083Z" fill="#D98C5F"/>
<path d="M98.3406 64.7816H98.1032V66.4378H98.3406V64.7816Z" fill="#3F3D56"/>
<path d="M50.2933 69.561C50.2933 69.561 50.3752 67.8492 52.0556 68.0482L50.2933 69.561Z" fill="#3F3D56"/>
<path d="M49.8185 67.932C50.283 67.932 50.6595 67.5567 50.6595 67.0938C50.6595 66.6309 50.283 66.2556 49.8185 66.2556C49.354 66.2556 48.9774 66.6309 48.9774 67.0938C48.9774 67.5567 49.354 67.932 49.8185 67.932Z" fill="#D98C5F"/>
<path d="M49.919 68.5053H49.6816V70.1615H49.919V68.5053Z" fill="#3F3D56"/>
<path d="M89.1501 61.071C89.1501 61.071 89.2321 59.3592 90.9125 59.5582L89.1501 61.071Z" fill="#3F3D56"/>
<path d="M88.6753 59.442C89.1398 59.442 89.5163 59.0667 89.5163 58.6038C89.5163 58.1409 89.1398 57.7656 88.6753 57.7656C88.2108 57.7656 87.8343 58.1409 87.8343 58.6038C87.8343 59.0667 88.2108 59.442 88.6753 59.442Z" fill="#D98C5F"/>
<path d="M88.7758 60.0153H88.5385V61.6715H88.7758V60.0153Z" fill="#3F3D56"/>
<path d="M17.7553 90.4069C17.7553 90.4069 17.8585 88.2517 19.9742 88.5022L17.7553 90.4069Z" fill="#3F3D56"/>
<path d="M17.1575 88.356C17.7423 88.356 18.2164 87.8835 18.2164 87.3007C18.2164 86.7178 17.7423 86.2453 17.1575 86.2453C16.5727 86.2453 16.0986 86.7178 16.0986 87.3007C16.0986 87.8835 16.5727 88.356 17.1575 88.356Z" fill="#D98C5F"/>
<path d="M17.2841 89.0778H16.9852V91.163H17.2841V89.0778Z" fill="#3F3D56"/>
<path d="M120.726 89.8112C120.726 89.8112 120.829 87.6559 122.945 87.9065L120.726 89.8112Z" fill="#3F3D56"/>
<path d="M120.128 87.7602C120.713 87.7602 121.187 87.2877 121.187 86.7049C121.187 86.122 120.713 85.6495 120.128 85.6495C119.543 85.6495 119.069 86.122 119.069 86.7049C119.069 87.2877 119.543 87.7602 120.128 87.7602Z" fill="#D98C5F"/>
<path d="M120.255 88.482H119.956V90.5672H120.255V88.482Z" fill="#3F3D56"/>
<path d="M112.058 84.747C112.058 84.747 112.161 82.5917 114.277 82.8423L112.058 84.747Z" fill="#3F3D56"/>
<path d="M111.46 82.696C112.045 82.696 112.519 82.2235 112.519 81.6407C112.519 81.0578 112.045 80.5853 111.46 80.5853C110.875 80.5853 110.401 81.0578 110.401 81.6407C110.401 82.2235 110.875 82.696 111.46 82.696Z" fill="#D98C5F"/>
<path d="M111.587 83.4178H111.288V85.503H111.587V83.4178Z" fill="#3F3D56"/>
<path d="M110.862 92.3433C110.862 92.3433 110.965 90.188 113.081 90.4386L110.862 92.3433Z" fill="#3F3D56"/>
<path d="M110.264 90.2923C110.849 90.2923 111.323 89.8198 111.323 89.237C111.323 88.6541 110.849 88.1816 110.264 88.1816C109.68 88.1816 109.206 88.6541 109.206 89.237C109.206 89.8198 109.68 90.2923 110.264 90.2923Z" fill="#D98C5F"/>
<path d="M110.391 91.0141H110.092V93.0993H110.391V91.0141Z" fill="#3F3D56"/>
<path d="M19.4757 93.9518C19.4757 93.9518 66.5522 81.5891 66.1039 68.9286C65.2819 65.4284 59.6028 64.5347 59.6028 64.5347C59.6028 64.5347 46.1524 62.7473 53.4754 58.4279C60.7984 54.1084 80.8246 55.151 80.8246 55.151C80.8246 55.151 60.2006 58.4279 69.317 60.2152C76.64 60.6621 86.0553 62.5984 86.0553 62.5984C86.0553 62.5984 105.185 66.62 107.875 76.4505C110.565 86.281 108.323 93.8773 108.323 93.8773L19.4757 93.9518Z" fill="#E6E6E6"/>
<path d="M70.7501 94L70.5739 93.7544C70.8229 93.577 71.0682 93.4005 71.3098 93.225L71.4881 93.4691C71.2456 93.6449 70.9996 93.8219 70.7501 94Z" fill="white"/>
<path d="M72.9475 92.389L72.7647 92.1484C73.2541 91.7791 73.736 91.4075 74.1973 91.044L74.3851 91.2807C73.9222 91.6455 73.4385 92.0184 72.9475 92.389ZM75.7981 90.1402L75.6046 89.9079C76.0783 89.5157 76.5415 89.1216 76.9813 88.7366L77.1813 88.9633C76.7394 89.3502 76.274 89.7462 75.7981 90.1402ZM78.5289 87.7451L78.3215 87.5249C78.7736 87.1023 79.2094 86.6793 79.617 86.2673L79.8326 86.4793C79.4224 86.8939 78.9836 87.3199 78.5289 87.7451ZM81.0819 85.158L80.8565 84.9564C81.2718 84.4954 81.6646 84.0336 82.0239 83.584L82.2608 83.7721C81.8978 84.2262 81.5011 84.6926 81.0819 85.158ZM83.3464 82.3104L83.0961 82.1403C83.4483 81.6261 83.7659 81.1127 84.0403 80.6145L84.3059 80.7598C84.0268 81.2664 83.704 81.7882 83.3464 82.3104ZM85.0879 79.1086L84.806 78.9984C85.0256 78.4459 85.1977 77.8759 85.3202 77.2944L85.6169 77.3551C85.4909 77.9535 85.314 78.5402 85.0879 79.1086V79.1086ZM85.4922 75.5321C85.4833 74.9454 85.4015 74.3621 85.2487 73.7954L85.5412 73.7167C85.7004 74.3074 85.7856 74.9155 85.7951 75.5271L85.4922 75.5321ZM84.5861 72.166C84.2985 71.6483 83.9609 71.1598 83.5781 70.7074L83.8103 70.5137C84.2058 70.9812 84.5546 71.486 84.8517 72.0209L84.5861 72.166ZM82.3267 69.4335C81.8766 69.0383 81.4051 68.6681 80.9143 68.3245L81.0891 68.078C81.589 68.428 82.0692 68.8051 82.5275 69.2076L82.3267 69.4335ZM79.3965 67.353C78.9011 67.0628 78.3666 66.7732 77.8083 66.4922L77.9447 66.2228C78.5089 66.5065 79.049 66.7992 79.55 67.0927L79.3965 67.353ZM76.1713 65.7208C75.6441 65.4873 75.0826 65.2524 74.5023 65.0223L74.6144 64.7419C75.1982 64.9733 75.7635 65.2099 76.2944 65.4449L76.1713 65.7208ZM72.804 64.3807C72.2644 64.1857 71.6875 63.9855 71.0896 63.7858L71.1857 63.4995C71.786 63.7001 72.3652 63.901 72.9073 64.0968L72.804 64.3807ZM69.3616 63.2266C68.8338 63.0606 68.2656 62.886 67.6244 62.6924L67.7123 62.4035C68.3545 62.5974 68.9239 62.7725 69.4527 62.9386L69.3616 63.2266ZM65.8817 62.1711C65.269 61.9885 64.6848 61.814 64.1379 61.6461L64.2271 61.3575C64.7732 61.5254 65.3565 61.6996 65.9685 61.8819L65.8817 62.1711ZM62.401 61.0863C61.8184 60.8946 61.2486 60.6661 60.6952 60.4019L60.8314 60.1322C61.3727 60.3904 61.9301 60.6138 62.5001 60.8009L62.401 61.0863ZM60.1138 59.1075L59.8979 58.8959C60.174 58.6163 60.7202 58.3427 61.5676 58.0594L61.6639 58.3457C60.8738 58.6096 60.3523 58.8661 60.1138 59.1075L60.1138 59.1075ZM63.3965 57.854L63.3233 57.5609C63.8472 57.4309 64.4439 57.2949 65.097 57.1566L65.1598 57.452C64.5102 57.5894 63.917 57.7247 63.3965 57.854V57.854ZM66.9356 57.0965L66.8788 56.8C67.4369 56.6937 68.0379 56.5836 68.6653 56.4727L68.7183 56.7699C68.0921 56.8806 67.4924 56.9904 66.9356 57.0965V57.0965ZM70.5049 56.4633L70.455 56.1656C71.0257 56.0702 71.6229 55.9727 72.2466 55.873L72.2946 56.171C71.6713 56.2707 71.0748 56.3681 70.5049 56.4633Z" fill="white"/>
<path d="M74.1208 55.8845L74.0744 55.5862C74.3689 55.5408 74.6685 55.4949 74.9733 55.4487L75.0188 55.747C74.7142 55.7933 74.4149 55.8391 74.1208 55.8845Z" fill="white"/>
<path d="M80.824 25.2233L82.1998 24.1266C81.131 24.0091 80.6919 24.59 80.5122 25.0498C79.6772 24.7043 78.7682 25.1571 78.7682 25.1571L81.5209 26.1531C81.382 25.7834 81.1403 25.4609 80.824 25.2233Z" fill="#3F3D56"/>
<path d="M55.2682 33.7133L56.644 32.6166C55.5752 32.4991 55.1361 33.08 54.9563 33.5398C54.1214 33.1943 53.2124 33.6471 53.2124 33.6471L55.9651 34.6431C55.8262 34.2734 55.5845 33.9509 55.2682 33.7133Z" fill="#3F3D56"/>
<path d="M61.9934 16.1375L63.3692 15.0408C62.3004 14.9233 61.8613 15.5042 61.6816 15.9641C60.8466 15.6185 59.9376 16.0714 59.9376 16.0714L62.6903 17.0673C62.5514 16.6977 62.3097 16.3751 61.9934 16.1375Z" fill="#3F3D56"/>
<path d="M76.9495 64.9667C76.9495 64.9667 75.7578 64.9667 75.6254 65.6925C75.493 66.4182 75.2944 74.3358 75.4268 75.3255C75.5592 76.3152 75.5592 76.1172 75.5592 76.1172C75.5592 76.1172 75.2953 77.998 75.8907 78.0803C76.4861 78.1626 76.486 75.9193 76.486 75.9193L76.9495 67.8698V64.9667Z" fill="#9E616A"/>
<path d="M82.1132 64.9667C82.1132 64.9667 83.3049 64.9667 83.4373 65.6925C83.5697 66.4182 83.7683 74.3358 83.6359 75.3255C83.5035 76.3152 83.5035 76.1172 83.5035 76.1172C83.5035 76.1172 83.7674 77.998 83.172 78.0803C82.5766 78.1626 82.5766 75.9193 82.5766 75.9193L82.1132 67.8698V64.9667Z" fill="#9E616A"/>
<path d="M76.7508 92.5461H76.2212C76.0647 92.5461 75.9098 92.5769 75.7652 92.6365C75.6206 92.6962 75.4893 92.7837 75.3786 92.894C75.268 93.0043 75.1802 93.1352 75.1203 93.2793C75.0604 93.4234 75.0296 93.5778 75.0296 93.7337V93.7338H78.2735V92.2162H76.7508V92.5461Z" fill="#2F2E41"/>
<path d="M81.8484 92.5461H82.378C82.6941 92.5461 82.9972 92.6713 83.2206 92.894C83.4441 93.1167 83.5697 93.4188 83.5697 93.7337V93.7338H80.3258V92.2162H81.8484V92.5461Z" fill="#2F2E41"/>
<path d="M79.0017 63.4492C79.9523 63.4492 80.723 62.6811 80.723 61.7337C80.723 60.7863 79.9523 60.0182 79.0017 60.0182C78.0511 60.0182 77.2805 60.7863 77.2805 61.7337C77.2805 62.6811 78.0511 63.4492 79.0017 63.4492Z" fill="#9E616A"/>
<path d="M78.6045 62.6574C78.6045 62.6574 78.4059 64.8347 78.1411 65.0327C77.8763 65.2306 80.9216 64.9007 80.9216 64.9007C80.9216 64.9007 79.8624 63.3172 80.061 62.7893C80.2596 62.2615 78.6045 62.6574 78.6045 62.6574Z" fill="#9E616A"/>
<path d="M82.5104 64.9667C82.5104 64.9667 78.8693 63.4492 76.486 64.9667C76.486 64.9667 75.8902 66.4842 76.3536 67.342C76.8171 68.1997 77.5453 70.2451 76.8171 71.6306C76.0888 73.0162 76.8833 72.4224 76.8833 72.4224C76.8833 72.4224 75.9564 76.1172 75.824 79.0203C75.6916 81.9234 76.2212 92.3482 76.6185 92.4142C77.0157 92.4802 78.2735 92.6121 78.4059 92.4142C78.5383 92.2162 79.4651 78.4265 79.4651 78.4265C79.4651 78.4265 79.8624 92.5462 80.2596 92.5462C80.6568 92.5462 81.716 92.5462 81.9146 92.2163C82.1132 91.8864 83.7683 79.1523 83.1725 76.5131C82.5767 73.8739 82.1794 72.5543 82.1794 72.5543C82.1794 72.5543 82.9077 72.0925 82.7091 71.8286C82.5104 71.5646 81.5174 68.7275 81.9808 68.2657C82.4442 67.8038 82.5104 64.9667 82.5104 64.9667Z" fill="#2F2E41"/>
<path d="M80.0941 63.4709C81.6297 63.4709 82.8745 62.2302 82.8745 60.6998C82.8745 59.1693 81.6297 57.9286 80.0941 57.9286C78.5584 57.9286 77.3136 59.1693 77.3136 60.6998C77.3136 62.2302 78.5584 63.4709 80.0941 63.4709Z" fill="#2F2E41"/>
<path d="M81.8303 59.3125C81.3618 59.2028 80.9536 58.9175 80.6905 58.5158C80.4273 58.1141 80.3295 57.6269 80.4171 57.1553C80.409 57.1836 80.4014 57.2123 80.3945 57.2413C80.2813 57.7231 80.3646 58.2301 80.6262 58.6507C80.8878 59.0714 81.3064 59.3713 81.7898 59.4845C82.2732 59.5977 82.7819 59.5149 83.2041 59.2544C83.6263 58.9939 83.9275 58.577 84.0413 58.0953C84.0482 58.0663 84.0541 58.0373 84.0595 58.0083C83.9273 58.4695 83.6219 58.8623 83.2069 59.1051C82.7918 59.3479 82.2989 59.4222 81.8303 59.3125Z" fill="#2F2E41"/>
<path d="M81.9435 59.6736C82.695 59.6736 83.3042 59.0664 83.3042 58.3175C83.3042 57.5685 82.695 56.9614 81.9435 56.9614C81.192 56.9614 80.5828 57.5685 80.5828 58.3175C80.5828 59.0664 81.192 59.6736 81.9435 59.6736Z" fill="#2F2E41"/>
</g>
<defs>
<clipPath id="clip0_3_99">
<rect width="134.155" height="94" fill="white" transform="translate(0.844666)"/>
</clipPath>
</defs>
</svg>
