<svg width="110" height="110" viewBox="0 0 110 110" fill="none" xmlns="http://www.w3.org/2000/svg">
<g clip-path="url(#clip0_3_180)">
<path d="M110 54.9478C110.007 61.205 108.942 67.4173 106.851 73.3155C106.842 73.3429 106.833 73.3677 106.823 73.3951V73.3964C105.257 77.7845 103.136 81.9548 100.513 85.806C100.058 86.4769 99.5873 87.1369 99.1005 87.786C98.5648 88.5038 98.0122 89.2073 97.4426 89.8964C96.9175 90.5321 96.3784 91.1555 95.8253 91.7667C95.1682 92.495 94.4915 93.2046 93.7951 93.8955C92.1563 95.5261 90.4162 97.0518 88.5852 98.4636C88.2638 98.7129 87.9389 98.9578 87.6106 99.1984C86.8463 99.7622 86.0668 100.306 85.2721 100.83C83.524 101.984 81.7107 103.037 79.8413 103.983C79.5187 104.148 79.1934 104.309 78.8668 104.466C77.6035 105.076 76.3145 105.636 74.9998 106.148C74.6248 106.296 74.2486 106.438 73.8684 106.575C73.8044 106.6 73.7404 106.624 73.6751 106.646C69.167 108.271 64.4645 109.297 59.6886 109.697C59.3568 109.727 59.0245 109.752 58.6918 109.773C58.3391 109.798 57.9859 109.818 57.6323 109.833C57.3527 109.847 57.0745 109.858 56.7936 109.866C56.7361 109.868 56.6773 109.871 56.6198 109.871C56.2423 109.883 55.8634 109.89 55.4833 109.893C55.3226 109.894 55.1619 109.896 54.9999 109.896C54.9241 109.896 54.8483 109.896 54.7726 109.894C53.6765 109.89 52.5887 109.855 51.5092 109.787C51.4869 109.786 51.4647 109.783 51.4425 109.783C51.0558 109.757 50.6704 109.73 50.2863 109.696C48.9185 109.581 47.5655 109.416 46.2273 109.2C45.919 109.152 45.6116 109.099 45.305 109.043C43.9738 108.808 42.6599 108.525 41.3635 108.194C40.9782 108.096 40.5949 107.994 40.2139 107.887C34.9164 106.412 29.8718 104.148 25.2502 101.171C24.456 100.66 23.6765 100.129 22.9118 99.5782C22.8177 99.5129 22.725 99.4451 22.6322 99.3772C20.7747 98.0242 19.0036 96.5565 17.3295 94.9827C16.5365 94.2387 15.7666 93.4713 15.0197 92.6804C5.35585 82.492 -0.021124 68.984 -0.000102626 54.9478C-0.000102626 24.6012 24.6245 0 54.9999 0C85.3753 0 110 24.6012 110 54.9478Z" fill="#F2F2F2"/>
<path d="M61.7098 14.0081C62.811 12.1885 64.1159 10.2457 66.1595 9.65157C68.5261 8.96351 70.9572 10.3304 73.0194 11.6792C79.1864 15.7131 85.1253 20.0846 90.8089 24.7739L90.8027 24.8445C86.3778 24.5397 81.9528 24.2348 77.5279 23.9299C74.3309 23.7097 71.024 23.459 68.1987 21.9481C67.1266 21.3747 66.0816 20.6088 64.8667 20.5555C63.3573 20.4892 62.0413 21.5423 61.007 22.6426C54.8891 29.1511 53.1187 39.1042 46.2551 44.8225C50.5831 34.159 55.7509 23.8552 61.7098 14.0081Z" fill="white"/>
<path d="M24.104 69.2123C24.7806 68.3589 25.057 68.159 25.7243 67.2976C31.1581 60.2765 36.2654 53.0182 41.0463 45.5228C44.2936 40.4321 47.3799 35.2438 50.3052 29.9576C51.6979 27.4446 53.0524 24.9117 54.3687 22.3592C55.3901 20.38 56.3888 18.389 57.3646 16.3862C57.6437 15.8141 57.9149 15.2394 58.1847 14.6634C58.8205 13.3089 59.4444 11.9478 60.1144 10.6117C60.8778 9.08889 61.8072 7.49239 63.2091 6.46927C63.8471 5.98454 64.61 5.69125 65.4087 5.62368C66.5499 5.55004 67.6029 6.02084 68.5928 6.53502C75.8352 10.3079 82.6155 15.0382 88.7482 20.4208C94.8966 25.8154 100.392 31.9101 105.123 38.5805C105.268 38.787 105.61 38.5897 105.464 38.382C104.889 37.5692 104.302 36.7653 103.704 35.9701C98.7411 29.3713 93.0174 23.3793 86.6513 18.1181C83.4995 15.5128 80.1992 13.0921 76.7671 10.8682C75.0203 9.73721 73.2407 8.65929 71.4282 7.63442C70.5146 7.1176 69.5971 6.60735 68.6639 6.12867C67.749 5.65919 66.7776 5.23705 65.7325 5.22127C62.1758 5.16604 60.3342 9.19014 59.0693 11.8979C58.6717 12.75 58.2694 13.5996 57.8622 14.4465C56.3234 17.6618 54.7254 20.8477 53.0682 24.0044C52.0454 25.9533 51.0003 27.8908 49.9327 29.8169C46.6104 35.815 43.0791 41.6915 39.339 47.4467C34.3844 55.0701 29.4693 61.8046 23.8249 68.9335C23.6696 69.1308 23.9473 69.4122 24.104 69.2123Z" fill="white"/>
<path d="M43.7891 37.2125L38.49 35.2762L35.859 34.3148C35.0021 34.0017 34.1473 33.6453 33.2615 33.4211C32.4784 33.2229 31.6826 33.1904 30.9105 33.451C30.2292 33.7029 29.6056 34.0891 29.0767 34.5867C28.5364 35.0837 28.0337 35.6201 27.5727 36.1914C26.9998 36.8791 26.4355 37.5741 25.8686 38.2667C23.5289 41.1253 21.2046 43.9963 18.8955 46.8797C16.5865 49.7631 14.293 52.6587 12.0148 55.5665C9.73114 58.4815 7.46315 61.4087 5.21087 64.348C4.93496 64.7081 4.65928 65.0684 4.38385 65.4288C4.23167 65.6279 3.88854 65.4316 4.04287 65.2297C6.31177 62.2608 8.59649 59.304 10.897 56.3594C13.2032 53.4078 15.5253 50.4687 17.8634 47.5421C20.2014 44.6155 22.5552 41.7017 24.9248 38.8005C25.5152 38.0777 26.1065 37.3558 26.6988 36.6346C27.1984 36.0262 27.6924 35.4114 28.2404 34.8451C29.2463 33.8058 30.503 32.8873 32.0073 32.8624C32.8918 32.8477 33.7477 33.1281 34.5695 33.4251C35.4554 33.7453 36.3391 34.0715 37.2239 34.3948L42.56 36.3446L43.894 36.8321C44.1308 36.9186 44.0285 37.3 43.7891 37.2125V37.2125Z" fill="white"/>
<path d="M29.2763 37.2319C29.7979 36.5975 30.3618 35.9333 31.1421 35.6757L31.8705 35.7044C26.3254 45.4933 18.8364 54.0469 9.86319 60.84C16.3342 52.9706 22.8052 45.1013 29.2763 37.2319Z" fill="white"/>
<path d="M64.6991 27.097C64.6995 28.0973 64.4541 29.0823 63.9844 29.9657C63.5148 30.8491 62.8353 31.6038 62.0055 32.1636C61.1758 32.7233 60.2211 33.071 59.2255 33.1762C58.2298 33.2813 57.2236 33.1407 56.295 32.7666C55.3664 32.3925 54.544 31.7964 53.8999 31.0306C53.2558 30.2648 52.8096 29.3528 52.6007 28.3746C52.3917 27.3963 52.4263 26.3818 52.7015 25.4201C52.9766 24.4583 53.4838 23.5787 54.1786 22.8585C54.1884 22.8488 54.1982 22.839 54.208 22.8292C54.2569 22.7779 54.3059 22.7266 54.3572 22.6777C54.3576 22.6777 54.3579 22.6776 54.3582 22.6775C54.3585 22.6774 54.3588 22.6772 54.359 22.677C54.3592 22.6767 54.3594 22.6765 54.3595 22.6762C54.3596 22.6759 54.3597 22.6755 54.3597 22.6752C54.4233 22.6166 54.4869 22.5579 54.553 22.5017C55.4368 21.7275 56.5253 21.2243 57.688 21.0522C58.8507 20.8801 60.0384 21.0464 61.109 21.5313C62.1795 22.0162 63.0875 22.799 63.7242 23.7861C64.361 24.7732 64.6994 25.9227 64.6991 27.097V27.097Z" fill="#2F2E41"/>
<path d="M60.7024 32.1342C62.7054 30.1331 62.7054 26.8886 60.7024 24.8875C58.6994 22.8864 55.4519 22.8864 53.4489 24.8875C51.4459 26.8886 51.4459 30.1331 53.4489 32.1342C55.4519 34.1353 58.6994 34.1353 60.7024 32.1342Z" fill="#9E616A"/>
<path d="M60.7404 23.5832C59.9458 22.8403 58.9575 22.3366 57.8891 22.1297C56.8208 21.9228 55.7157 22.0213 54.7008 22.4137C54.6708 22.4255 54.6407 22.4385 54.6107 22.4529C54.6094 22.4529 54.6094 22.4542 54.6081 22.4542C54.5101 22.4947 54.4108 22.5364 54.3154 22.5821L54.2566 22.6108V22.6187C54.2462 22.6265 54.2344 22.6356 54.2227 22.6434C54.1987 22.6658 54.1695 22.682 54.1378 22.6904C53.1514 22.7035 52.348 23.0376 51.7523 23.6837C50.9567 24.5451 50.583 25.9377 50.698 27.6057L50.7006 27.6566L50.745 27.6853C51.1657 27.9477 51.5641 28.1787 51.9482 28.381C52.1755 28.5024 52.3963 28.6133 52.6158 28.7151C52.6419 28.7269 52.668 28.7399 52.6942 28.7517C54.9151 29.7762 56.9466 29.9616 58.8983 29.3129L58.9349 29.3011L59.7645 27.9124C59.85 28.3869 60.0784 28.824 60.4193 29.1652C60.7601 29.5064 61.1971 29.7355 61.6718 29.8219L62.0167 29.8832L62.5223 29.972L62.5432 29.8767C63.0449 27.6188 62.3198 25.0906 60.7404 23.5832Z" fill="#2F2E41"/>
<path d="M73.3403 34.338C71.595 33.4379 73.8397 30.1714 73.3886 28.2615C72.9376 26.3517 69.6893 25.7374 69.4824 23.786C69.2755 21.8346 68.7887 19.822 67.4998 18.3413C66.6762 17.3951 65.4626 16.6966 64.2131 16.8151C63.7903 16.8552 63.3812 16.9858 63.0135 17.1982C62.6459 17.4105 62.3283 17.6995 62.0825 18.0454C61.8367 18.3914 61.6685 18.7862 61.5892 19.203C61.5099 19.6198 61.5215 20.0488 61.6231 20.4607C61.2673 19.9571 60.3467 20.0663 60.1188 20.6391C59.9162 21.1483 60.3638 21.7652 60.8905 21.8102C61.5797 22.6606 62.3689 23.563 63.4487 23.7346C63.7965 23.7898 64.1875 23.7493 64.4415 23.5056C64.6956 23.2619 64.7153 22.7746 64.414 22.5925C65.7709 23.131 66.5665 24.5968 66.7678 26.0415C66.9692 27.4863 66.6906 28.9481 66.507 30.3953C66.3235 31.8424 66.2444 33.3647 66.8124 34.7085C67.4834 36.2963 69.0283 37.4343 70.7144 37.7992C72.4004 38.1642 74.196 37.8075 75.7221 37.0039C77.2483 36.2003 78.5209 34.9734 79.5606 33.598C77.7697 34.8685 75.2921 35.3444 73.3403 34.338Z" fill="#2F2E41"/>
<path d="M53.5098 55.8618L49.967 80.0307L69.3057 78.5746L63.5174 54.7981L53.5098 55.8618Z" fill="#FFB8B8"/>
<path d="M73.7405 106.399C73.7233 106.482 73.7015 106.565 73.6752 106.646C71.4433 107.452 69.1609 108.111 66.8426 108.618C66.354 107.012 65.4173 103.973 64.5969 101.486C63.9267 99.4568 63.3349 97.7966 63.1285 97.5891C62.555 97.0187 63.1285 96.2578 63.1285 96.2578L60.679 88.65L59.5659 85.1939L59.1844 92.4545L58.6305 102.972L58.6148 103.267C58.6148 103.267 57.8519 105.549 58.2334 105.93C58.6148 106.312 57.8519 107.835 57.8519 107.835L57.6324 109.833C57.3529 109.847 57.0746 109.858 56.7937 109.866L56.6983 109.896L56.62 109.871C56.2424 109.883 55.8635 109.89 55.4834 109.893C55.3227 109.894 55.162 109.896 55 109.896C54.9242 109.896 54.8485 109.896 54.7727 109.894C53.6766 109.89 52.5888 109.855 51.5093 109.787L50.8391 104.338L50.1467 98.7076C50.1467 98.7076 50.9083 97.1871 50.1467 96.4262C49.6881 95.9681 49.9181 95.3024 50.1754 94.8456C50.016 94.1395 49.7979 93.0536 49.5039 91.4457C49.4935 91.3921 49.4843 91.3373 49.4739 91.2825C49.3811 90.7722 49.2979 90.2719 49.2243 89.7816C49.0937 88.9188 48.9918 88.0901 48.9134 87.2965C48.6476 84.7263 48.6109 82.1375 48.8037 79.5607C48.8768 78.6445 48.9683 77.9737 49.0284 77.586C49.0336 77.5495 49.0898 77.3446 49.1812 77.0209C49.3249 76.5027 49.5614 75.6805 49.8266 74.7603C49.9677 74.2722 50.1166 73.7566 50.2643 73.2437C50.5216 72.3549 50.7777 71.4739 50.9841 70.7613V70.7574C51.1657 70.1322 51.3107 69.6388 51.3865 69.3804C51.423 69.2538 51.4426 69.1846 51.4426 69.1846C51.4426 69.1846 51.4831 69.1755 51.5602 69.1585C51.7993 69.1037 52.3898 68.9719 53.2076 68.7957C54.0607 68.6156 55.1594 68.3872 56.3665 68.1548C57.3999 67.9565 58.513 67.7542 59.6195 67.5727C60.0166 67.5088 60.4138 67.4461 60.8057 67.3874C63.2265 67.0272 65.4487 66.8223 66.5017 67.0559C66.5746 67.0714 66.6466 67.091 66.7172 67.1146C66.7887 67.1382 66.8574 67.1693 66.9223 67.2073C66.955 67.2269 67.2711 68.4589 67.6748 70.0643C67.6787 70.08 67.6827 70.0969 67.6866 70.1126C67.8081 70.5981 67.9374 71.115 68.0694 71.6436C68.2039 72.1826 68.3398 72.7321 68.473 73.2672C68.8689 74.8569 69.2347 76.3278 69.4228 77.0483C69.4947 77.3276 69.5417 77.4934 69.5521 77.5116C69.9937 78.2464 70.3543 80.0476 70.6469 82.3068C70.9082 84.3233 71.1159 86.7053 71.2766 89.0193C71.3563 90.164 71.4242 91.293 71.4817 92.3528C71.6764 95.9185 71.7547 98.7024 71.7547 98.7024C71.7547 98.7024 72.0461 101.023 72.6248 102.118C72.6961 102.259 72.7871 102.39 72.8952 102.506C73.2806 102.891 73.3251 103.225 73.2741 103.462C73.2518 103.575 73.2055 103.681 73.1382 103.773C73.123 103.796 73.1059 103.817 73.0873 103.837C73.0375 104.073 73.0462 104.318 73.1127 104.55C73.1792 104.782 73.3014 104.994 73.4688 105.168C73.8385 105.54 73.8084 106.073 73.7405 106.399Z" fill="#2F2E41"/>
<path d="M67.4057 48.11C67.3835 47.9455 67.36 47.7798 67.3352 47.6127C67.3208 47.5057 67.3038 47.3987 67.2881 47.293C67.1222 46.2253 67.8133 45.3117 66.9184 44.573C66.7092 44.4029 66.5386 44.1902 66.4181 43.9491L66.213 43.5367L65.8354 42.7718L65.0097 41.109L64.8673 40.8232C64.827 40.742 64.7807 40.6639 64.7289 40.5896C64.5745 40.3657 64.3735 40.1778 64.1397 40.0388L62.0886 38.8172C61.7716 38.6293 61.5164 38.353 61.3544 38.0223L61.3034 37.9179C61.0774 37.4545 60.6724 36.3465 60.193 35.8649L60.1917 35.8635C60.0872 35.7442 59.9454 35.6637 59.7893 35.6351L57.7474 35.4328C57.4208 35.3997 57.0913 35.4519 56.791 35.5844C56.4907 35.7169 56.2301 35.9251 56.0347 36.1885L55.9785 36.443L55.6506 37.9349L55.6323 37.9388C55.5356 37.961 55.439 37.9831 55.3436 38.0106C53.2259 38.5887 52.3428 45.9852 52.3428 45.9852C52.3428 45.9852 50.86 48.4298 51.4426 49.9425L52.4826 52.3818C52.4906 52.4003 52.4967 52.4195 52.5008 52.4392C52.5949 52.7048 52.6279 52.988 52.5975 53.268L52.5988 53.3633L52.6014 53.5734L52.6093 54.1125L52.6341 55.9006L52.6655 58.1389L52.6929 60.0458L52.702 60.5535L50.9893 67.9995C50.9613 68.2442 50.9818 68.492 51.0497 68.7287C51.1176 68.9654 51.2316 69.1864 51.3852 69.3791L51.3865 69.3804C51.4241 69.4286 51.4642 69.4748 51.5067 69.5188L51.508 69.5201C51.5485 69.5618 51.5903 69.5997 51.6334 69.6375C51.8396 69.8178 52.0828 69.9508 52.346 70.0272C52.6091 70.1037 52.8858 70.1217 53.1567 70.08L53.3853 70.0447H53.3866L56.7049 69.5475H56.7075L57.0916 69.4901H57.0942L60.8083 68.9327H60.8109L61.4471 68.8362C61.4981 68.8296 61.5477 68.8231 61.5987 68.8192L64.9993 68.5856C65.0773 68.5803 65.155 68.5703 65.2318 68.5555H65.2331C65.5321 68.4964 65.8125 68.3663 66.0506 68.1762C66.2886 67.9861 66.4774 67.7415 66.601 67.4631C66.6523 67.3515 66.6913 67.2347 66.7172 67.1146C66.7467 66.9848 66.7629 66.8523 66.7656 66.7192L66.8034 63.5189L66.9328 53.1767C66.9354 52.8316 67.034 52.4941 67.2176 52.2017C67.6892 51.4499 67.6356 49.8393 67.4057 48.11Z" fill="#D98C5F"/>
<path d="M61.7041 75.7318C61.6562 75.4681 61.6669 75.197 61.7353 74.9378C61.8036 74.6786 61.928 74.4375 62.0997 74.2315C62.2714 74.0256 62.4863 73.8597 62.7291 73.7456C62.9719 73.6316 63.2368 73.5721 63.5051 73.5714L65.6267 67.4098L67.6952 70.092L65.3634 75.5319C65.3348 75.9823 65.1417 76.4066 64.8209 76.7243C64.5 77.042 64.0737 77.2311 63.6226 77.2557C63.1716 77.2803 62.7271 77.1388 62.3735 76.858C62.0199 76.5771 61.7817 76.1764 61.7041 75.7318H61.7041Z" fill="#9E616A"/>
<path d="M69.7991 62.7684L69.3222 63.9692L68.656 71.3969C68.449 71.4488 68.2512 71.532 68.0694 71.6436C67.6743 71.8876 67.3735 72.258 67.2158 72.6945C67.0581 73.1309 67.0527 73.6078 67.2006 74.0477L67.3966 74.635L65.9399 74.1874L63.5453 73.4526L60.7221 72.5859L61.2002 71.0367C61.3109 70.6807 61.3333 70.3032 61.2655 69.9367C61.1977 69.5702 61.0417 69.2256 60.8109 68.9327C60.7538 68.8599 60.6923 68.7906 60.6267 68.7252L60.8057 67.3874L60.9115 66.5926L59.6195 67.5727L57.0929 69.49H57.0916L56.7571 69.7445C56.7571 69.7445 56.7388 69.6767 56.7049 69.5475C56.6409 69.2982 56.5207 68.8205 56.3665 68.1549C55.6031 64.8379 55.0407 61.4779 54.6825 58.0933C54.6042 57.3311 54.5362 56.5506 54.4814 55.7583C54.4252 54.9426 54.3834 54.1151 54.3612 53.2824C54.173 46.5046 55.2156 39.3993 59.5725 35.7657C59.7831 35.7671 59.9924 35.8006 60.193 35.8649C61.9567 36.4065 63.8915 39.0534 65.2292 40.9472C65.5454 41.3949 65.8276 41.7995 66.0666 42.1245L66.6454 42.9115C67.4356 43.9868 67.9825 45.2208 68.2483 46.5281C68.3045 46.8048 68.3485 47.085 68.3803 47.3687L69.0126 53.1793V54.6763L69.7991 62.7684Z" fill="#D98C5F"/>
<path d="M3.18631 73.1846C4.32122 74.5281 5.54876 75.7907 6.85994 76.9631L103.218 77.0936C104.53 75.9212 105.757 74.6586 106.892 73.3151L3.18631 73.1846Z" fill="#CCCCCC"/>
<path d="M55.4834 109.893C55.3227 109.894 55.162 109.896 55 109.896C54.9242 109.896 54.8485 109.896 54.7727 109.894C53.6766 109.89 52.5888 109.855 51.5093 109.787L51.5354 110L51.4426 109.783L49.372 104.967L50.8391 104.338L53.5303 103.183L54.3468 105.988L55.128 108.674L55.3606 109.47L55.4834 109.893Z" fill="#FFB6B6"/>
<path d="M45.8904 104.302L45.3051 109.043C43.9739 108.808 42.6601 108.525 41.3637 108.194V104.303L45.8904 104.302Z" fill="#FFB6B6"/>
<path d="M25.2504 95.5622V101.17C24.4561 100.66 23.6766 100.129 22.9119 99.5782V95.5622H25.2504Z" fill="#CACACA"/>
<path d="M34.3103 94.6277V97.4299C34.3102 97.9461 34.105 98.4411 33.7397 98.8062C33.3745 99.1713 32.8792 99.3767 32.3625 99.3772H22.6323C20.7748 98.0242 19.0037 96.5565 17.3296 94.9827C16.5366 94.2387 15.7667 93.4713 15.0198 92.6803H32.3625C32.8791 92.681 33.3743 92.8865 33.7395 93.2515C34.1047 93.6166 34.31 94.1115 34.3103 94.6277Z" fill="#3F3D56"/>
<path d="M57.1138 109.764L56.7937 109.866L56.6983 109.896L56.62 109.871C56.2424 109.883 55.8635 109.89 55.4834 109.893C55.3227 109.894 55.162 109.896 55 109.896C54.9242 109.896 54.8485 109.896 54.7727 109.894C53.6766 109.89 52.5888 109.855 51.5093 109.787L51.5354 110L51.4426 109.783C51.0559 109.757 50.6705 109.73 50.2865 109.696L47.2464 104.61L40.99 94.1434L40.265 92.9309C40.265 92.9309 37.7919 93.6618 34.292 94.3627C31.6544 94.8926 28.4341 95.4029 25.2504 95.57C24.4652 95.6118 23.6827 95.6326 22.9119 95.6261C20.9196 95.6131 19.0057 95.4264 17.3296 94.9827C16.5366 94.2387 15.7667 93.4713 15.0198 92.6803C13.7467 91.3354 12.5424 89.9271 11.4115 88.4607C11.3963 87.9225 11.4238 87.384 11.4938 86.8501C11.5056 86.7614 11.5173 86.6713 11.5317 86.58L11.8884 80.5292L14.5378 80.1794L18.5694 79.6469L22.9367 79.07L23.4175 82.8315C23.4175 82.8315 26.8181 82.6592 31.1266 82.7166C38.0467 82.8106 47.3065 83.4998 48.5607 86.4573C48.6783 86.7353 48.7958 87.0159 48.9134 87.2965C51.3486 93.1241 53.5852 99.3328 55.1045 103.744C55.3945 104.585 55.6571 105.359 55.891 106.053C56.6631 108.346 57.1138 109.764 57.1138 109.764Z" fill="#2F2E41"/>
<path d="M49.7064 89.792C49.6424 90.3454 49.5749 90.8966 49.5039 91.4457C48.8768 96.3022 48.0133 100.941 47.2464 104.61C46.8715 106.4 46.5188 107.959 46.2274 109.2C45.9191 109.152 45.6117 109.099 45.3051 109.043C43.9739 108.808 42.6601 108.525 41.3637 108.194C40.9783 108.096 40.5951 107.994 40.214 107.887L40.99 94.1434L41.2461 89.5975L49.2243 89.7816L49.7064 89.792Z" fill="#2F2E41"/>
<path d="M62.5347 68.5345C62.8674 68.3489 63.2368 68.2384 63.6168 68.2108C63.9969 68.1832 64.3784 68.2392 64.7344 68.3749C65.0905 68.5105 65.4124 68.7225 65.6776 68.9959C65.9428 69.2693 66.1447 69.5975 66.2692 69.9573L75.532 69.9682L72.8774 73.9797L64.4882 73.3543C63.8694 73.5231 63.21 73.4593 62.635 73.175C62.06 72.8906 61.6095 72.4054 61.3687 71.8113C61.1279 71.2172 61.1136 70.5555 61.3285 69.9516C61.5434 69.3476 61.9726 68.8434 62.5347 68.5345L62.5347 68.5345Z" fill="#FFB6B6"/>
<path d="M67.5848 73.9595L84.2673 75.6152L84.3113 75.559C84.3955 75.4515 92.7462 64.7722 94.1493 62.23C95.0125 60.7027 95.3269 58.9263 95.0402 57.1958L95.0306 57.1535L94.9974 57.1254C94.3171 56.5558 93.4627 56.2348 92.5753 56.2154C91.6878 56.1959 90.8202 56.4792 90.1155 57.0185C86.7271 59.6403 83.9951 63.013 82.1349 66.8704L81.0794 69.0658L68.8369 69.5906L67.5848 73.9595Z" fill="#D98C5F"/>
<path d="M61.1506 104.054L58.6919 109.773C58.3392 109.798 57.986 109.818 57.6324 109.833C57.3529 109.847 57.0746 109.858 56.7937 109.866L56.6983 109.896L56.62 109.871C56.2424 109.883 55.8635 109.89 55.4834 109.893C55.3227 109.894 55.162 109.896 55 109.896C54.9242 109.896 54.8485 109.896 54.7727 109.894L54.936 109.336L55.128 108.674L55.891 106.053L56.9923 102.269L58.6305 102.972L61.1506 104.054Z" fill="#FFB6B6"/>
<path d="M78.8669 104.466C77.6036 105.076 76.3146 105.636 74.9999 106.148L73.7144 103.988L77.8583 102.17L78.8669 104.466Z" fill="#FFB6B6"/>
<path d="M87.6107 94.6486V99.1984C86.8464 99.7622 86.0669 100.306 85.2722 100.83V94.6486H87.6107Z" fill="#CACACA"/>
<path d="M95.8254 91.7667C95.1683 92.495 94.4916 93.2046 93.7952 93.8955C92.1564 95.526 90.4163 97.0518 88.5853 98.4636H78.1601C77.8833 98.4636 77.6097 98.4046 77.3576 98.2905C77.1055 98.1763 76.8807 98.0098 76.6982 97.8018L76.6969 97.7979C76.4795 97.5528 76.3284 97.2563 76.2579 96.9365L76.2566 96.9339C76.2272 96.7966 76.2123 96.6566 76.2122 96.5162V93.714C76.2126 93.1979 76.4179 92.703 76.783 92.3379C77.1482 91.9728 77.6435 91.7674 78.1601 91.7667H95.8254Z" fill="#3F3D56"/>
<path d="M100.121 80.8294L98.9909 85.6664C99.1014 86.3671 99.1381 87.0775 99.1006 87.786C98.565 88.5038 98.0124 89.2073 97.4428 89.8964C96.9176 90.532 96.3785 91.1555 95.8254 91.7667C95.1683 92.495 94.4916 93.2046 93.7953 93.8955C91.982 94.4645 89.8447 94.6968 87.6107 94.7125C86.8399 94.719 86.0574 94.6982 85.2722 94.6564C82.0885 94.4893 78.8682 93.979 76.2305 93.4491C75.5329 93.3108 74.8771 93.1698 74.2735 93.0327C73.1304 92.7756 72.1741 92.5355 71.4817 92.3528C70.7018 92.1491 70.2576 92.0173 70.2576 92.0173L67.2907 96.9809L64.5969 101.486L59.6887 109.697C59.3569 109.727 59.0246 109.752 58.6919 109.773C58.3392 109.798 57.986 109.818 57.6324 109.833C57.3528 109.847 57.0746 109.858 56.7937 109.866L56.6983 109.896L56.62 109.871L55.3606 109.47L54.936 109.336L53.4088 108.85C53.4088 108.85 53.7498 107.777 54.3468 105.988C54.5663 105.331 54.8197 104.577 55.1045 103.744C56.1327 100.735 57.558 96.6924 59.1844 92.4546C59.6665 91.1964 60.1656 89.9199 60.679 88.65C61.0996 87.6071 61.5281 86.5682 61.9619 85.5437C62.7157 83.7673 66.358 82.8093 70.6469 82.3068C70.8651 82.282 71.0846 82.2572 71.3053 82.2337C73.491 82.004 75.8099 81.8853 77.9785 81.8304C79.0641 81.803 80.1119 81.7926 81.0865 81.7913C81.4013 81.7913 81.7074 81.7922 82.0049 81.7939H82.0062C82.8096 81.7978 83.5491 81.8096 84.1996 81.8226C84.3264 81.8252 84.4492 81.8291 84.5694 81.8318H84.5707C84.6517 81.8331 84.7313 81.8357 84.8097 81.837C86.2324 81.8735 87.1051 81.9179 87.1051 81.9179L87.4435 79.2658L87.5127 78.7307L87.578 78.2216V78.2203L87.5859 78.1564L87.6394 78.1551L88.58 78.1368L96.4865 77.9828L100.805 77.898L100.121 80.8294Z" fill="#2F2E41"/>
<path d="M79.8415 103.983C79.5188 104.148 79.1935 104.309 78.8669 104.466C77.6036 105.076 76.3146 105.636 74.9999 106.148C74.6249 106.296 74.2487 106.438 73.8685 106.575C73.8267 106.516 73.7836 106.458 73.7405 106.399C71.9272 103.913 69.6227 100.631 67.2907 96.9809C66.3149 95.4538 65.3337 93.8615 64.3814 92.2353L71.2766 89.0193L72.05 88.6591L74.2735 93.0327L76.2567 96.9339L76.6982 97.8018L79.8415 103.983Z" fill="#2F2E41"/>
<path d="M89.8502 49.6033C93.3585 49.6033 96.2026 46.7619 96.2026 43.2568C96.2026 39.7518 93.3585 36.9104 89.8502 36.9104C86.3418 36.9104 83.4977 39.7518 83.4977 43.2568C83.4977 46.7619 86.3418 49.6033 89.8502 49.6033Z" fill="#FFB6B6"/>
<path d="M89.64 49.3277C91.1252 50.0397 92.9533 49.7985 94.3713 48.9609C95.7893 48.1233 96.8328 46.7572 97.562 45.2815C98.0961 44.2007 98.4841 42.963 98.1748 41.798C97.8655 40.6329 96.6317 39.6568 95.4758 40.0019C96.2677 39.3648 96.1754 38.051 95.5355 37.2616C94.8955 36.4722 93.8859 36.0926 92.9103 35.8065C91.4944 35.3914 90.0066 35.0983 88.5464 35.3107C87.0862 35.523 85.6485 36.3129 84.9614 37.6175C84.4844 37.7403 83.9802 37.7015 83.5276 37.5074C83.075 37.3132 82.6997 36.9745 82.4604 36.5445C82.3013 36.9579 82.2829 37.4122 82.4083 37.8371C82.5336 38.262 82.7956 38.6338 83.1537 38.895L81.1761 37.8231C80.6719 38.5212 81.13 39.586 81.8954 39.9815C82.6608 40.377 83.5859 40.2715 84.4212 40.0602C85.2566 39.8489 84.271 41.6113 85.1325 41.6283C85.9941 41.6452 86.926 42.0957 87.1727 42.9205C87.3019 43.3526 87.2266 43.8165 87.2647 44.2658C87.3028 44.7151 87.5183 45.2135 87.9541 45.3306C88.2295 45.4045 88.5308 45.3065 88.8038 45.3886C89.1423 45.4904 89.3487 45.8522 89.3785 46.2041C89.4083 46.556 89.2978 46.903 89.1887 47.2389C88.7577 48.5665 90.1411 47.8224 89.71 49.15L89.64 49.3277Z" fill="#2F2E41"/>
<path d="M102.104 68.0739C102.052 62.8323 101.814 59.2601 101.399 57.455C100.283 52.6024 95.1291 51.7175 94.3217 51.6079C94.2357 51.3791 94.1036 51.1705 93.9334 50.995C93.7633 50.8195 93.5588 50.6809 93.3327 50.5877C93.1066 50.4946 92.8638 50.4489 92.6192 50.4535C92.3747 50.4581 92.1338 50.513 91.9114 50.6146L88.2495 52.2905C87.5066 52.6315 86.8418 53.1215 86.2964 53.7299C85.751 54.3384 85.3366 55.0523 85.0789 55.8275L84.5354 57.4851L84.2623 68.609L85.1638 73.2881L85.1651 73.2907L85.7726 76.4427L85.3545 77.0692L82.9677 80.6453L82.9272 80.708L82.9259 80.7093L82.8214 80.8646C82.9664 80.9442 83.1101 81.0225 83.2512 81.1008C83.617 81.3018 83.9736 81.4989 84.3211 81.6921C84.4048 81.7391 84.4871 81.7848 84.5694 81.8318H84.5707C84.6229 81.8605 84.6752 81.8892 84.7261 81.9179C86.0299 82.6462 87.2166 83.321 88.2861 83.9422C88.435 84.0284 88.5827 84.1145 88.7277 84.1993C93.6659 87.0851 96.169 88.8523 97.4428 89.8964C98.0123 89.2073 98.565 88.5038 99.1006 87.7859C99.5866 87.1373 100.057 86.4773 100.513 85.806C100.593 85.2813 100.646 84.7566 100.698 84.2424C100.761 83.6237 100.826 82.9829 100.936 82.3525C100.984 82.0732 100.799 81.8083 100.62 81.5524C100.454 81.3136 100.297 81.0891 100.33 80.8777C100.364 80.6597 100.604 80.4222 100.838 80.1911C101.093 79.9379 101.357 79.6769 101.395 79.4015C101.499 78.6341 101.592 77.864 101.673 77.0914C101.806 75.8345 101.909 74.5737 101.98 73.309C102.081 71.5627 102.122 69.8176 102.104 68.0739Z" fill="#D98C5F"/>
<path d="M77.9226 86.576C78.0303 86.2108 78.2168 85.8737 78.469 85.5883C78.7212 85.3029 79.033 85.0762 79.3824 84.9243C79.7318 84.7723 80.1103 84.6987 80.4912 84.7087C80.8721 84.7186 81.2462 84.8119 81.5872 84.982L88.2126 78.5148L89.1254 83.2364L82.6939 88.6539C82.37 89.2071 81.8542 89.6225 81.2443 89.8212C80.6343 90.02 79.9726 89.9883 79.3845 89.7321C78.7964 89.476 78.3227 89.0133 78.0533 88.4316C77.7839 87.8499 77.7374 87.1897 77.9226 86.576L77.9226 86.576Z" fill="#FFB6B6"/>
<path d="M85.33 86.9216L98.4083 76.443L98.4004 76.3721C98.3853 76.2364 96.8721 62.7693 96.094 59.9722C95.6411 58.2776 94.6216 56.7887 93.2048 55.7528L93.1683 55.7293L93.125 55.7325C92.2399 55.8011 91.4048 56.1689 90.7571 56.7754C90.1094 57.3819 89.688 58.1907 89.5622 59.0686C88.9776 63.3103 89.3878 67.6297 90.7604 71.6859L91.5439 73.9923L83.1648 82.925L85.33 86.9216Z" fill="#D98C5F"/>
<path d="M18.357 49.4894C21.4875 49.4894 24.0253 46.954 24.0253 43.8265C24.0253 40.6989 21.4875 38.1635 18.357 38.1635C15.2264 38.1635 12.6886 40.6989 12.6886 43.8265C12.6886 46.954 15.2264 49.4894 18.357 49.4894Z" fill="#A0616A"/>
<path d="M10.7415 86.959L10.7105 86.9157C9.05935 84.6062 11.5427 79.0565 11.9173 78.252C11.4725 78.1078 11.0915 77.814 10.8392 77.4207C10.5869 77.0274 10.4789 76.5589 10.5335 76.0949L10.695 74.7237L10.8633 73.3787L9.65752 72.1741L9.65414 72.1441L8.96025 66.0783L7.95137 62.0496C7.57123 60.5265 7.60363 58.9299 8.04524 57.4235C8.48684 55.9171 9.32174 54.5553 10.4642 53.4778L12.7963 53.1078L15.6304 50.3797H20.2008L21.7679 51.8755C24.8488 54.3985 25.5802 53.3025 29.0543 58.0521L26.5669 64.5994L27.9572 74.2561L27.9581 76.0037L28.6823 76.8078C28.9431 77.0974 29.1327 77.4439 29.2358 77.8197C29.339 78.1954 29.3528 78.59 29.2763 78.9721L29.1811 79.4478C29.5492 79.6054 29.8741 79.8488 30.1285 80.1578C30.3829 80.4667 30.5595 80.8321 30.6434 81.2232L30.8978 82.409C31.1154 82.6958 32.5517 84.6091 32.5517 85.1322C32.5517 85.2107 32.4936 85.2866 32.3691 85.3708C31.3903 86.033 25.9802 87.383 23.5857 86.4257C21.0352 85.4069 10.8963 86.9353 10.7941 86.9509L10.7415 86.959Z" fill="#3F3D56"/>
<path d="M7.86179 63.9873L12.5749 63.0656C14.3179 65.6661 15.2536 72.777 15.2536 72.777L20.4644 83.5733C20.7847 83.7677 21.0477 84.0434 21.2266 84.3723C21.4056 84.7013 21.494 85.0718 21.483 85.446C21.472 85.8203 21.3619 86.1849 21.1639 86.5028C20.9659 86.8207 20.6872 87.0805 20.356 87.2557C20.0248 87.431 19.6531 87.5154 19.2786 87.5004C18.9042 87.4854 18.5404 87.3715 18.2243 87.1704C17.9082 86.9692 17.6512 86.688 17.4793 86.3553C17.3074 86.0226 17.2269 85.6503 17.2459 85.2764L10.4496 72.4848L7.86179 63.9873Z" fill="#A0616A"/>
<path d="M7.8354 65.1045L7.7014 58.1061L9.91935 55.1417C10.3569 54.5613 10.9482 54.1148 11.6264 53.8525C12.3047 53.5903 13.0428 53.5227 13.7575 53.6576C14.725 53.8469 15.5844 54.3962 16.162 55.1944C16.7397 55.9926 16.9924 56.9802 16.869 57.9574C16.4926 60.9208 15.6379 64.6292 13.7042 65.4682L13.6846 65.4767L15.6887 72.4788L8.25677 73.516L7.8354 65.1045Z" fill="#3F3D56"/>
<path d="M35.827 64.4861C35.827 64.4861 30.1709 60.0692 27.1033 59.4348L24.3882 63.3924L31.7311 67.8881L46.0273 72.0178C46.2777 72.2956 46.5972 72.5023 46.9533 72.6168C47.3094 72.7314 47.6896 72.7497 48.0551 72.6701C48.4206 72.5904 48.7586 72.4155 49.0346 72.1632C49.3106 71.9108 49.5149 71.59 49.6266 71.2333C49.7384 70.8766 49.7538 70.4967 49.6711 70.1321C49.5884 69.7676 49.4106 69.4314 49.1558 69.1577C48.901 68.884 48.5783 68.6825 48.2204 68.5737C47.8624 68.4649 47.482 68.4526 47.1178 68.5382L35.827 64.4861Z" fill="#A0616A"/>
<path d="M25.876 65.3737L19.9816 61.59L18.7508 58.0992C18.5116 57.413 18.4694 56.6737 18.6287 55.9648C18.7881 55.2558 19.1428 54.6056 19.6527 54.0875C20.3486 53.3898 21.2837 52.9821 22.269 52.9469C23.2542 52.9117 24.2161 53.2516 24.9601 53.8978C27.215 55.8595 30.1208 56.517 29.7424 58.589L30.828 58.7473L36.3793 62.9594L33.1057 69.7053L25.876 65.3737Z" fill="#3F3D56"/>
<path d="M11.9275 40.1055C12.564 39.1218 13.7584 38.4661 14.9163 38.6504C15.0241 37.9121 15.3325 37.2176 15.8081 36.6423C16.2836 36.0671 16.908 35.6332 17.6132 35.3879C18.3185 35.1426 19.0776 35.0954 19.8079 35.2513C20.5382 35.4072 21.2116 35.7602 21.755 36.272C22.0959 36.001 22.5915 35.9868 22.9961 36.1479C23.3947 36.329 23.7413 36.607 24.0045 36.9565C24.6689 37.7843 25.0962 38.7766 25.2409 39.8278C25.3856 40.8789 25.2424 41.9496 24.8263 42.9259C24.9678 42.4119 24.4523 41.9284 23.9314 41.8131C23.4105 41.6978 22.8641 41.8069 22.3358 41.7318C21.6588 41.6355 21.0502 41.2432 20.3721 41.1549C19.8023 41.0806 19.2292 41.2266 18.6734 41.3729C18.1177 41.5192 17.5461 41.6684 16.9754 41.6007C16.4046 41.533 15.6695 43.6938 15.6794 45.2158C15.6812 45.5042 15.6218 45.8745 15.3396 45.9357C14.9922 46.011 14.7909 45.532 14.4602 45.4014C14.1655 45.2851 13.8123 45.5007 13.7098 45.8001C13.6681 45.9532 13.6636 46.1141 13.6967 46.2693C13.7299 46.4246 13.7996 46.5696 13.9002 46.6925C14.1035 46.936 14.3448 47.1451 14.6148 47.3118L14.4786 47.425C14.2521 47.724 13.7821 47.7369 13.4556 47.5519C13.1291 47.3669 12.9145 47.0378 12.721 46.7164C12.1169 45.7125 11.587 44.6429 11.3738 43.4911C11.1606 42.3393 11.2911 41.0893 11.9275 40.1055Z" fill="#2F2E41"/>
<path opacity="0.2" d="M61.7065 49.6223C62.2815 52.0154 62.5468 54.4724 62.4958 56.933C62.4469 59.3939 62.0866 61.8388 61.4237 64.2093C61.0495 65.5481 60.5777 66.8575 60.0118 68.1273C59.9099 68.3555 60.2476 68.5549 60.3502 68.3249C61.3718 66.037 62.0943 63.6271 62.4996 61.1548C62.9066 58.6819 62.9979 56.1674 62.7713 53.6715C62.643 52.2723 62.4134 50.8843 62.0844 49.5182C62.0254 49.2733 61.6474 49.377 61.7065 49.6223H61.7065Z" fill="black"/>
<path opacity="0.2" d="M98.2982 66.3684L95.022 74.3583C94.4947 75.6443 93.9831 76.938 93.4343 78.2149C92.9403 79.3647 92.3769 80.5194 91.5452 81.4673C90.7059 82.424 89.5768 83.2006 88.2869 83.3524C88.0394 83.3815 88.0365 83.7734 88.2869 83.7439C89.4652 83.6053 90.5212 83.0201 91.3741 82.2108C92.2964 81.3357 92.9463 80.221 93.4769 79.0769C94.0683 77.8018 94.5712 76.4834 95.1043 75.1833L96.7794 71.0982L98.6761 66.4725C98.7716 66.2394 98.3926 66.138 98.2982 66.3684Z" fill="black"/>
<path d="M59.4627 73.6206C59.5203 73.788 59.6294 73.9329 59.7746 74.0345C59.9197 74.136 60.0933 74.189 60.2705 74.1859L63.7314 74.0969C63.9099 74.0934 64.0824 74.0323 64.2232 73.9228C64.3641 73.8132 64.4656 73.6611 64.5127 73.4891L65.0025 68.257C65.1763 68.3356 65.3654 68.3745 65.5561 68.3707C65.7218 68.3665 65.8851 68.3298 66.0366 68.2626C66.1881 68.1954 66.3249 68.0991 66.4391 67.9791C66.5533 67.8591 66.6428 67.7178 66.7023 67.5632C66.7619 67.4087 66.7904 67.244 66.7862 67.0784C66.7821 66.9129 66.7453 66.7498 66.6781 66.5984C66.6108 66.4471 66.5144 66.3105 66.3943 66.1963C66.2742 66.0822 66.1327 65.9929 65.9781 65.9334C65.8234 65.8738 65.6585 65.8454 65.4928 65.8495C65.4166 65.8493 65.3405 65.8572 65.266 65.8731C65.1849 65.7854 65.0864 65.7158 64.9767 65.6685C64.867 65.6212 64.7487 65.5974 64.6292 65.5986L59.3055 65.7359C59.2614 65.7376 59.2174 65.743 59.1742 65.7522C59.0575 65.774 58.9467 65.8204 58.8495 65.8885C58.7522 65.9566 58.6707 66.0447 58.6104 66.1469C58.55 66.2491 58.5123 66.3631 58.4998 66.481C58.4872 66.599 58.5001 66.7183 58.5376 66.8309L59.4627 73.6206ZM65.1029 67.9018L65.4514 66.655C65.4911 66.5109 65.492 66.359 65.4541 66.2145C65.471 66.2145 65.4859 66.2065 65.5028 66.2064C65.7418 66.2015 65.973 66.2914 66.1456 66.4565C66.3183 66.6216 66.4184 66.8483 66.424 67.0871C66.4296 67.3258 66.3403 67.557 66.1755 67.7299C66.0107 67.9029 65.784 68.0036 65.5451 68.0098C65.3906 68.0146 65.2377 67.9773 65.1029 67.9018Z" fill="#2F2E41"/>
<path d="M59.1742 65.7522C59.2876 66.4001 60.5628 66.8556 62.0961 66.7764C63.5061 66.7115 64.659 66.2169 64.8702 65.6307C64.792 65.6076 64.7107 65.5968 64.6292 65.5986L59.3055 65.7359C59.2614 65.7376 59.2174 65.743 59.1742 65.7522Z" fill="#3F3D56"/>
<path d="M47.9351 66.5699C47.9726 66.4573 47.9855 66.338 47.9729 66.22C47.9604 66.102 47.9226 65.9881 47.8623 65.8859C47.802 65.7837 47.7205 65.6956 47.6232 65.6275C47.5259 65.5594 47.4152 65.5129 47.2985 65.4912C47.2552 65.482 47.2113 65.4765 47.1671 65.4749L41.8434 65.3376C41.724 65.3364 41.6057 65.3602 41.496 65.4074C41.3863 65.4547 41.2878 65.5244 41.2067 65.612C41.1321 65.5961 41.0561 65.5882 40.9799 65.5885C40.6452 65.5801 40.321 65.7048 40.0784 65.9353C39.8358 66.1658 39.6948 66.4831 39.6864 66.8174C39.678 67.1517 39.8029 67.4757 40.0336 67.718C40.2643 67.9604 40.5819 68.1012 40.9165 68.1096C41.1073 68.1134 41.2964 68.0746 41.4702 67.996L41.9599 73.228C42.007 73.4 42.1086 73.5522 42.2494 73.6617C42.3903 73.7713 42.5628 73.8324 42.7413 73.8359L46.2022 73.9248C46.3794 73.928 46.553 73.875 46.6981 73.7734C46.8432 73.6719 46.9524 73.527 47.01 73.3596L47.9351 66.5699ZM40.9276 67.7488C40.6886 67.7425 40.4619 67.6419 40.2972 67.4689C40.1324 67.2959 40.043 67.0647 40.0486 66.826C40.0542 66.5873 40.1543 66.3605 40.327 66.1955C40.4997 66.0304 40.7309 65.9404 40.9698 65.9454C40.9867 65.9454 41.0017 65.9534 41.0186 65.9535C40.9807 66.098 40.9816 66.2499 41.0212 66.3939L41.3697 67.6407C41.2349 67.7162 41.0821 67.7536 40.9276 67.7488Z" fill="#2F2E41"/>
<path d="M47.2985 65.4912C47.1851 66.1391 45.9099 66.5946 44.3766 66.5154C42.9666 66.4505 41.8137 65.9559 41.6025 65.3696C41.6807 65.3465 41.762 65.3357 41.8435 65.3375L47.1672 65.4749C47.2113 65.4765 47.2553 65.482 47.2985 65.4912Z" fill="#3F3D56"/>
<path d="M42.2532 54.1257C42.5199 53.931 42.8261 53.7971 43.1502 53.7335C43.4743 53.6698 43.8084 53.678 44.129 53.7573C44.4497 53.8366 44.749 53.9852 45.0059 54.1926C45.2628 54.4 45.4711 54.6611 45.6161 54.9576L53.587 53.9942L51.725 57.7245L44.4411 58.0674C43.9264 58.2777 43.3523 58.2921 42.8277 58.1078C42.3031 57.9235 41.8644 57.5533 41.5947 57.0675C41.325 56.5816 41.2431 56.0138 41.3644 55.4716C41.4858 54.9294 41.802 54.4505 42.2532 54.1257L42.2532 54.1257Z" fill="#9E616A"/>
<path d="M68.2483 46.5281C68.0132 46.9888 67.7271 47.5253 67.4057 48.11C66.277 50.1709 64.7263 52.8308 63.5322 54.8551C62.5119 56.5819 61.7502 57.8479 61.7293 57.8831L61.6967 57.9353L54.6825 58.0933L53.1776 58.1272L52.6654 58.1389L47.1694 58.2629L47.2216 57.9366L47.735 54.7024L47.7873 54.3722L52.6014 53.5734L54.3612 53.2824L58.2647 52.635L58.9428 50.6355C60.137 47.1211 62.1326 43.9322 64.772 41.3205C64.8491 41.2461 64.9274 41.1756 65.0097 41.109C65.0816 41.0516 65.1548 40.9968 65.2292 40.9472C65.5454 41.3949 65.8276 41.7995 66.0666 42.1245L66.6454 42.9115C67.4356 43.9868 67.9825 45.2208 68.2483 46.5281Z" fill="#D98C5F"/>
<path d="M39.0826 58.4806C39.1402 58.648 39.2494 58.7929 39.3945 58.8945C39.5396 58.996 39.7133 59.049 39.8904 59.0458L43.3513 58.9569C43.5298 58.9534 43.7023 58.8923 43.8432 58.7828C43.984 58.6732 44.0856 58.521 44.1327 58.349L44.6224 53.117C44.7962 53.1956 44.9854 53.2344 45.1761 53.2306C45.5107 53.2222 45.8283 53.0814 46.059 52.839C46.2897 52.5967 46.4146 52.2727 46.4062 51.9384C46.3978 51.6041 46.2568 51.2868 46.0142 51.0563C45.7717 50.8259 45.4474 50.7011 45.1128 50.7095C45.0365 50.7092 44.9605 50.7171 44.8859 50.7331C44.8049 50.6454 44.7063 50.5757 44.5967 50.5284C44.487 50.4812 44.3686 50.4574 44.2492 50.4586L38.9255 50.5959C38.8813 50.5975 38.8374 50.603 38.7942 50.6122C38.6774 50.6339 38.5667 50.6804 38.4694 50.7485C38.3722 50.8166 38.2906 50.9047 38.2303 51.0069C38.17 51.1091 38.1323 51.223 38.1197 51.341C38.1072 51.459 38.1201 51.5783 38.1575 51.6909L39.0826 58.4806ZM44.7229 52.7617L45.0714 51.5149C45.111 51.3709 45.1119 51.219 45.074 51.0745C45.091 51.0744 45.1059 51.0664 45.1228 51.0664C45.3617 51.0615 45.5929 51.1514 45.7656 51.3165C45.9383 51.4816 46.0384 51.7083 46.044 51.947C46.0496 52.1857 45.9602 52.4169 45.7955 52.5899C45.6307 52.7629 45.404 52.8635 45.1651 52.8698C45.0106 52.8746 44.8577 52.8372 44.7229 52.7617Z" fill="#CCCCCC"/>
<path d="M38.7942 50.6122C38.9076 51.2601 40.1828 51.7156 41.7161 51.6364C43.126 51.5715 44.2789 51.0769 44.4901 50.4907C44.412 50.4676 44.3307 50.4567 44.2492 50.4586L38.9255 50.5959C38.8813 50.5975 38.8374 50.603 38.7942 50.6122Z" fill="#3F3D56"/>
</g>
<defs>
<clipPath id="clip0_3_180">
<rect width="110" height="110" fill="white"/>
</clipPath>
</defs>
</svg>
